<?xml version="1.0" encoding="utf-8" standalone="no"?>
<!DOCTYPE svg PUBLIC "-//W3C//DTD SVG 1.1//EN"
  "http://www.w3.org/Graphics/SVG/1.1/DTD/svg11.dtd">
<svg xmlns:xlink="http://www.w3.org/1999/xlink" width="707.270312pt" height="274.017813pt" viewBox="0 0 707.270312 274.017813" xmlns="http://www.w3.org/2000/svg" version="1.1">
 <metadata>
  <rdf:RDF xmlns:dc="http://purl.org/dc/elements/1.1/" xmlns:cc="http://creativecommons.org/ns#" xmlns:rdf="http://www.w3.org/1999/02/22-rdf-syntax-ns#">
   <cc:Work>
    <dc:type rdf:resource="http://purl.org/dc/dcmitype/StillImage"/>
    <dc:date>2026-04-30T09:04:38.455025</dc:date>
    <dc:format>image/svg+xml</dc:format>
    <dc:creator>
     <cc:Agent>
      <dc:title>Matplotlib v3.10.9, https://matplotlib.org/</dc:title>
     </cc:Agent>
    </dc:creator>
   </cc:Work>
  </rdf:RDF>
 </metadata>
 <defs>
  <style type="text/css">*{stroke-linejoin: round; stroke-linecap: butt}</style>
 </defs>
 <g id="figure_1">
  <g id="patch_1">
   <path d="M 0 274.017813 
L 707.270312 274.017813 
L 707.270312 0 
L 0 0 
z
" style="fill: #121622"/>
  </g>
  <g id="axes_1">
   <g id="patch_2">
    <path d="M 49.807188 231.058125 
L 689.572187 231.058125 
L 689.572187 22.318125 
L 49.807188 22.318125 
z
" style="fill: #121622"/>
   </g>
   <g id="matplotlib.axis_1">
    <g id="xtick_1">
     <g id="text_1">
      <!-- 0 -->
      <g style="fill: #e0e0e0" transform="translate(46.307813 248.916406) scale(0.11 -0.11)">
       <defs>
        <path id="DejaVuSans-30" d="M 2034 4250 
Q 1547 4250 1301 3770 
Q 1056 3291 1056 2328 
Q 1056 1369 1301 889 
Q 1547 409 2034 409 
Q 2525 409 2770 889 
Q 3016 1369 3016 2328 
Q 3016 3291 2770 3770 
Q 2525 4250 2034 4250 
z
M 2034 4750 
Q 2819 4750 3233 4129 
Q 3647 3509 3647 2328 
Q 3647 1150 3233 529 
Q 2819 -91 2034 -91 
Q 1250 -91 836 529 
Q 422 1150 422 2328 
Q 422 3509 836 4129 
Q 1250 4750 2034 4750 
z
" transform="scale(0.015625)"/>
       </defs>
       <use xlink:href="#DejaVuSans-30"/>
      </g>
     </g>
    </g>
    <g id="xtick_2">
     <g id="text_2">
      <!-- 20 -->
      <g style="fill: #e0e0e0" transform="translate(170.761437 248.916406) scale(0.11 -0.11)">
       <defs>
        <path id="DejaVuSans-32" d="M 1228 531 
L 3431 531 
L 3431 0 
L 469 0 
L 469 531 
Q 828 903 1448 1529 
Q 2069 2156 2228 2338 
Q 2531 2678 2651 2914 
Q 2772 3150 2772 3378 
Q 2772 3750 2511 3984 
Q 2250 4219 1831 4219 
Q 1534 4219 1204 4116 
Q 875 4013 500 3803 
L 500 4441 
Q 881 4594 1212 4672 
Q 1544 4750 1819 4750 
Q 2544 4750 2975 4387 
Q 3406 4025 3406 3419 
Q 3406 3131 3298 2873 
Q 3191 2616 2906 2266 
Q 2828 2175 2409 1742 
Q 1991 1309 1228 531 
z
" transform="scale(0.015625)"/>
       </defs>
       <use xlink:href="#DejaVuSans-32"/>
       <use xlink:href="#DejaVuSans-30" transform="translate(63.623047 0)"/>
      </g>
     </g>
    </g>
    <g id="xtick_3">
     <g id="text_3">
      <!-- 40 -->
      <g style="fill: #e0e0e0" transform="translate(298.714437 248.916406) scale(0.11 -0.11)">
       <defs>
        <path id="DejaVuSans-34" d="M 2419 4116 
L 825 1625 
L 2419 1625 
L 2419 4116 
z
M 2253 4666 
L 3047 4666 
L 3047 1625 
L 3713 1625 
L 3713 1100 
L 3047 1100 
L 3047 0 
L 2419 0 
L 2419 1100 
L 313 1100 
L 313 1709 
L 2253 4666 
z
" transform="scale(0.015625)"/>
       </defs>
       <use xlink:href="#DejaVuSans-34"/>
       <use xlink:href="#DejaVuSans-30" transform="translate(63.623047 0)"/>
      </g>
     </g>
    </g>
    <g id="xtick_4">
     <g id="text_4">
      <!-- 60 -->
      <g style="fill: #e0e0e0" transform="translate(426.667437 248.916406) scale(0.11 -0.11)">
       <defs>
        <path id="DejaVuSans-36" d="M 2113 2584 
Q 1688 2584 1439 2293 
Q 1191 2003 1191 1497 
Q 1191 994 1439 701 
Q 1688 409 2113 409 
Q 2538 409 2786 701 
Q 3034 994 3034 1497 
Q 3034 2003 2786 2293 
Q 2538 2584 2113 2584 
z
M 3366 4563 
L 3366 3988 
Q 3128 4100 2886 4159 
Q 2644 4219 2406 4219 
Q 1781 4219 1451 3797 
Q 1122 3375 1075 2522 
Q 1259 2794 1537 2939 
Q 1816 3084 2150 3084 
Q 2853 3084 3261 2657 
Q 3669 2231 3669 1497 
Q 3669 778 3244 343 
Q 2819 -91 2113 -91 
Q 1303 -91 875 529 
Q 447 1150 447 2328 
Q 447 3434 972 4092 
Q 1497 4750 2381 4750 
Q 2619 4750 2861 4703 
Q 3103 4656 3366 4563 
z
" transform="scale(0.015625)"/>
       </defs>
       <use xlink:href="#DejaVuSans-36"/>
       <use xlink:href="#DejaVuSans-30" transform="translate(63.623047 0)"/>
      </g>
     </g>
    </g>
    <g id="xtick_5">
     <g id="text_5">
      <!-- 80 -->
      <g style="fill: #e0e0e0" transform="translate(554.620437 248.916406) scale(0.11 -0.11)">
       <defs>
        <path id="DejaVuSans-38" d="M 2034 2216 
Q 1584 2216 1326 1975 
Q 1069 1734 1069 1313 
Q 1069 891 1326 650 
Q 1584 409 2034 409 
Q 2484 409 2743 651 
Q 3003 894 3003 1313 
Q 3003 1734 2745 1975 
Q 2488 2216 2034 2216 
z
M 1403 2484 
Q 997 2584 770 2862 
Q 544 3141 544 3541 
Q 544 4100 942 4425 
Q 1341 4750 2034 4750 
Q 2731 4750 3128 4425 
Q 3525 4100 3525 3541 
Q 3525 3141 3298 2862 
Q 3072 2584 2669 2484 
Q 3125 2378 3379 2068 
Q 3634 1759 3634 1313 
Q 3634 634 3220 271 
Q 2806 -91 2034 -91 
Q 1263 -91 848 271 
Q 434 634 434 1313 
Q 434 1759 690 2068 
Q 947 2378 1403 2484 
z
M 1172 3481 
Q 1172 3119 1398 2916 
Q 1625 2713 2034 2713 
Q 2441 2713 2670 2916 
Q 2900 3119 2900 3481 
Q 2900 3844 2670 4047 
Q 2441 4250 2034 4250 
Q 1625 4250 1398 4047 
Q 1172 3844 1172 3481 
z
" transform="scale(0.015625)"/>
       </defs>
       <use xlink:href="#DejaVuSans-38"/>
       <use xlink:href="#DejaVuSans-30" transform="translate(63.623047 0)"/>
      </g>
     </g>
    </g>
    <g id="xtick_6">
     <g id="text_6">
      <!-- 100 -->
      <g style="fill: #e0e0e0" transform="translate(679.074062 248.916406) scale(0.11 -0.11)">
       <defs>
        <path id="DejaVuSans-31" d="M 794 531 
L 1825 531 
L 1825 4091 
L 703 3866 
L 703 4441 
L 1819 4666 
L 2450 4666 
L 2450 531 
L 3481 531 
L 3481 0 
L 794 0 
L 794 531 
z
" transform="scale(0.015625)"/>
       </defs>
       <use xlink:href="#DejaVuSans-31"/>
       <use xlink:href="#DejaVuSans-30" transform="translate(63.623047 0)"/>
       <use xlink:href="#DejaVuSans-30" transform="translate(127.246094 0)"/>
      </g>
     </g>
    </g>
    <g id="text_7">
     <!-- Cycles between consecutive rdtscp reads -->
     <g style="fill: #e0e0e0" transform="translate(245.245937 264.322188) scale(0.12 -0.12)">
      <defs>
       <path id="DejaVuSans-43" d="M 4122 4306 
L 4122 3641 
Q 3803 3938 3442 4084 
Q 3081 4231 2675 4231 
Q 1875 4231 1450 3742 
Q 1025 3253 1025 2328 
Q 1025 1406 1450 917 
Q 1875 428 2675 428 
Q 3081 428 3442 575 
Q 3803 722 4122 1019 
L 4122 359 
Q 3791 134 3420 21 
Q 3050 -91 2638 -91 
Q 1578 -91 968 557 
Q 359 1206 359 2328 
Q 359 3453 968 4101 
Q 1578 4750 2638 4750 
Q 3056 4750 3426 4639 
Q 3797 4528 4122 4306 
z
" transform="scale(0.015625)"/>
       <path id="DejaVuSans-79" d="M 2059 -325 
Q 1816 -950 1584 -1140 
Q 1353 -1331 966 -1331 
L 506 -1331 
L 506 -850 
L 844 -850 
Q 1081 -850 1212 -737 
Q 1344 -625 1503 -206 
L 1606 56 
L 191 3500 
L 800 3500 
L 1894 763 
L 2988 3500 
L 3597 3500 
L 2059 -325 
z
" transform="scale(0.015625)"/>
       <path id="DejaVuSans-63" d="M 3122 3366 
L 3122 2828 
Q 2878 2963 2633 3030 
Q 2388 3097 2138 3097 
Q 1578 3097 1268 2742 
Q 959 2388 959 1747 
Q 959 1106 1268 751 
Q 1578 397 2138 397 
Q 2388 397 2633 464 
Q 2878 531 3122 666 
L 3122 134 
Q 2881 22 2623 -34 
Q 2366 -91 2075 -91 
Q 1284 -91 818 406 
Q 353 903 353 1747 
Q 353 2603 823 3093 
Q 1294 3584 2113 3584 
Q 2378 3584 2631 3529 
Q 2884 3475 3122 3366 
z
" transform="scale(0.015625)"/>
       <path id="DejaVuSans-6c" d="M 603 4863 
L 1178 4863 
L 1178 0 
L 603 0 
L 603 4863 
z
" transform="scale(0.015625)"/>
       <path id="DejaVuSans-65" d="M 3597 1894 
L 3597 1613 
L 953 1613 
Q 991 1019 1311 708 
Q 1631 397 2203 397 
Q 2534 397 2845 478 
Q 3156 559 3463 722 
L 3463 178 
Q 3153 47 2828 -22 
Q 2503 -91 2169 -91 
Q 1331 -91 842 396 
Q 353 884 353 1716 
Q 353 2575 817 3079 
Q 1281 3584 2069 3584 
Q 2775 3584 3186 3129 
Q 3597 2675 3597 1894 
z
M 3022 2063 
Q 3016 2534 2758 2815 
Q 2500 3097 2075 3097 
Q 1594 3097 1305 2825 
Q 1016 2553 972 2059 
L 3022 2063 
z
" transform="scale(0.015625)"/>
       <path id="DejaVuSans-73" d="M 2834 3397 
L 2834 2853 
Q 2591 2978 2328 3040 
Q 2066 3103 1784 3103 
Q 1356 3103 1142 2972 
Q 928 2841 928 2578 
Q 928 2378 1081 2264 
Q 1234 2150 1697 2047 
L 1894 2003 
Q 2506 1872 2764 1633 
Q 3022 1394 3022 966 
Q 3022 478 2636 193 
Q 2250 -91 1575 -91 
Q 1294 -91 989 -36 
Q 684 19 347 128 
L 347 722 
Q 666 556 975 473 
Q 1284 391 1588 391 
Q 1994 391 2212 530 
Q 2431 669 2431 922 
Q 2431 1156 2273 1281 
Q 2116 1406 1581 1522 
L 1381 1569 
Q 847 1681 609 1914 
Q 372 2147 372 2553 
Q 372 3047 722 3315 
Q 1072 3584 1716 3584 
Q 2034 3584 2315 3537 
Q 2597 3491 2834 3397 
z
" transform="scale(0.015625)"/>
       <path id="DejaVuSans-20" transform="scale(0.015625)"/>
       <path id="DejaVuSans-62" d="M 3116 1747 
Q 3116 2381 2855 2742 
Q 2594 3103 2138 3103 
Q 1681 3103 1420 2742 
Q 1159 2381 1159 1747 
Q 1159 1113 1420 752 
Q 1681 391 2138 391 
Q 2594 391 2855 752 
Q 3116 1113 3116 1747 
z
M 1159 2969 
Q 1341 3281 1617 3432 
Q 1894 3584 2278 3584 
Q 2916 3584 3314 3078 
Q 3713 2572 3713 1747 
Q 3713 922 3314 415 
Q 2916 -91 2278 -91 
Q 1894 -91 1617 61 
Q 1341 213 1159 525 
L 1159 0 
L 581 0 
L 581 4863 
L 1159 4863 
L 1159 2969 
z
" transform="scale(0.015625)"/>
       <path id="DejaVuSans-74" d="M 1172 4494 
L 1172 3500 
L 2356 3500 
L 2356 3053 
L 1172 3053 
L 1172 1153 
Q 1172 725 1289 603 
Q 1406 481 1766 481 
L 2356 481 
L 2356 0 
L 1766 0 
Q 1100 0 847 248 
Q 594 497 594 1153 
L 594 3053 
L 172 3053 
L 172 3500 
L 594 3500 
L 594 4494 
L 1172 4494 
z
" transform="scale(0.015625)"/>
       <path id="DejaVuSans-77" d="M 269 3500 
L 844 3500 
L 1563 769 
L 2278 3500 
L 2956 3500 
L 3675 769 
L 4391 3500 
L 4966 3500 
L 4050 0 
L 3372 0 
L 2619 2869 
L 1863 0 
L 1184 0 
L 269 3500 
z
" transform="scale(0.015625)"/>
       <path id="DejaVuSans-6e" d="M 3513 2113 
L 3513 0 
L 2938 0 
L 2938 2094 
Q 2938 2591 2744 2837 
Q 2550 3084 2163 3084 
Q 1697 3084 1428 2787 
Q 1159 2491 1159 1978 
L 1159 0 
L 581 0 
L 581 3500 
L 1159 3500 
L 1159 2956 
Q 1366 3272 1645 3428 
Q 1925 3584 2291 3584 
Q 2894 3584 3203 3211 
Q 3513 2838 3513 2113 
z
" transform="scale(0.015625)"/>
       <path id="DejaVuSans-6f" d="M 1959 3097 
Q 1497 3097 1228 2736 
Q 959 2375 959 1747 
Q 959 1119 1226 758 
Q 1494 397 1959 397 
Q 2419 397 2687 759 
Q 2956 1122 2956 1747 
Q 2956 2369 2687 2733 
Q 2419 3097 1959 3097 
z
M 1959 3584 
Q 2709 3584 3137 3096 
Q 3566 2609 3566 1747 
Q 3566 888 3137 398 
Q 2709 -91 1959 -91 
Q 1206 -91 779 398 
Q 353 888 353 1747 
Q 353 2609 779 3096 
Q 1206 3584 1959 3584 
z
" transform="scale(0.015625)"/>
       <path id="DejaVuSans-75" d="M 544 1381 
L 544 3500 
L 1119 3500 
L 1119 1403 
Q 1119 906 1312 657 
Q 1506 409 1894 409 
Q 2359 409 2629 706 
Q 2900 1003 2900 1516 
L 2900 3500 
L 3475 3500 
L 3475 0 
L 2900 0 
L 2900 538 
Q 2691 219 2414 64 
Q 2138 -91 1772 -91 
Q 1169 -91 856 284 
Q 544 659 544 1381 
z
M 1991 3584 
L 1991 3584 
z
" transform="scale(0.015625)"/>
       <path id="DejaVuSans-69" d="M 603 3500 
L 1178 3500 
L 1178 0 
L 603 0 
L 603 3500 
z
M 603 4863 
L 1178 4863 
L 1178 4134 
L 603 4134 
L 603 4863 
z
" transform="scale(0.015625)"/>
       <path id="DejaVuSans-76" d="M 191 3500 
L 800 3500 
L 1894 563 
L 2988 3500 
L 3597 3500 
L 2284 0 
L 1503 0 
L 191 3500 
z
" transform="scale(0.015625)"/>
       <path id="DejaVuSans-72" d="M 2631 2963 
Q 2534 3019 2420 3045 
Q 2306 3072 2169 3072 
Q 1681 3072 1420 2755 
Q 1159 2438 1159 1844 
L 1159 0 
L 581 0 
L 581 3500 
L 1159 3500 
L 1159 2956 
Q 1341 3275 1631 3429 
Q 1922 3584 2338 3584 
Q 2397 3584 2469 3576 
Q 2541 3569 2628 3553 
L 2631 2963 
z
" transform="scale(0.015625)"/>
       <path id="DejaVuSans-64" d="M 2906 2969 
L 2906 4863 
L 3481 4863 
L 3481 0 
L 2906 0 
L 2906 525 
Q 2725 213 2448 61 
Q 2172 -91 1784 -91 
Q 1150 -91 751 415 
Q 353 922 353 1747 
Q 353 2572 751 3078 
Q 1150 3584 1784 3584 
Q 2172 3584 2448 3432 
Q 2725 3281 2906 2969 
z
M 947 1747 
Q 947 1113 1208 752 
Q 1469 391 1925 391 
Q 2381 391 2643 752 
Q 2906 1113 2906 1747 
Q 2906 2381 2643 2742 
Q 2381 3103 1925 3103 
Q 1469 3103 1208 2742 
Q 947 2381 947 1747 
z
" transform="scale(0.015625)"/>
       <path id="DejaVuSans-70" d="M 1159 525 
L 1159 -1331 
L 581 -1331 
L 581 3500 
L 1159 3500 
L 1159 2969 
Q 1341 3281 1617 3432 
Q 1894 3584 2278 3584 
Q 2916 3584 3314 3078 
Q 3713 2572 3713 1747 
Q 3713 922 3314 415 
Q 2916 -91 2278 -91 
Q 1894 -91 1617 61 
Q 1341 213 1159 525 
z
M 3116 1747 
Q 3116 2381 2855 2742 
Q 2594 3103 2138 3103 
Q 1681 3103 1420 2742 
Q 1159 2381 1159 1747 
Q 1159 1113 1420 752 
Q 1681 391 2138 391 
Q 2594 391 2855 752 
Q 3116 1113 3116 1747 
z
" transform="scale(0.015625)"/>
       <path id="DejaVuSans-61" d="M 2194 1759 
Q 1497 1759 1228 1600 
Q 959 1441 959 1056 
Q 959 750 1161 570 
Q 1363 391 1709 391 
Q 2188 391 2477 730 
Q 2766 1069 2766 1631 
L 2766 1759 
L 2194 1759 
z
M 3341 1997 
L 3341 0 
L 2766 0 
L 2766 531 
Q 2569 213 2275 61 
Q 1981 -91 1556 -91 
Q 1019 -91 701 211 
Q 384 513 384 1019 
Q 384 1609 779 1909 
Q 1175 2209 1959 2209 
L 2766 2209 
L 2766 2266 
Q 2766 2663 2505 2880 
Q 2244 3097 1772 3097 
Q 1472 3097 1187 3025 
Q 903 2953 641 2809 
L 641 3341 
Q 956 3463 1253 3523 
Q 1550 3584 1831 3584 
Q 2591 3584 2966 3190 
Q 3341 2797 3341 1997 
z
" transform="scale(0.015625)"/>
      </defs>
      <use xlink:href="#DejaVuSans-43"/>
      <use xlink:href="#DejaVuSans-79" transform="translate(69.824219 0)"/>
      <use xlink:href="#DejaVuSans-63" transform="translate(129.003906 0)"/>
      <use xlink:href="#DejaVuSans-6c" transform="translate(183.984375 0)"/>
      <use xlink:href="#DejaVuSans-65" transform="translate(211.767578 0)"/>
      <use xlink:href="#DejaVuSans-73" transform="translate(273.291016 0)"/>
      <use xlink:href="#DejaVuSans-20" transform="translate(325.390625 0)"/>
      <use xlink:href="#DejaVuSans-62" transform="translate(357.177734 0)"/>
      <use xlink:href="#DejaVuSans-65" transform="translate(420.654297 0)"/>
      <use xlink:href="#DejaVuSans-74" transform="translate(482.177734 0)"/>
      <use xlink:href="#DejaVuSans-77" transform="translate(521.386719 0)"/>
      <use xlink:href="#DejaVuSans-65" transform="translate(603.173828 0)"/>
      <use xlink:href="#DejaVuSans-65" transform="translate(664.697266 0)"/>
      <use xlink:href="#DejaVuSans-6e" transform="translate(726.220703 0)"/>
      <use xlink:href="#DejaVuSans-20" transform="translate(789.599609 0)"/>
      <use xlink:href="#DejaVuSans-63" transform="translate(821.386719 0)"/>
      <use xlink:href="#DejaVuSans-6f" transform="translate(876.367188 0)"/>
      <use xlink:href="#DejaVuSans-6e" transform="translate(937.548828 0)"/>
      <use xlink:href="#DejaVuSans-73" transform="translate(1000.927734 0)"/>
      <use xlink:href="#DejaVuSans-65" transform="translate(1053.027344 0)"/>
      <use xlink:href="#DejaVuSans-63" transform="translate(1114.550781 0)"/>
      <use xlink:href="#DejaVuSans-75" transform="translate(1169.53125 0)"/>
      <use xlink:href="#DejaVuSans-74" transform="translate(1232.910156 0)"/>
      <use xlink:href="#DejaVuSans-69" transform="translate(1272.119141 0)"/>
      <use xlink:href="#DejaVuSans-76" transform="translate(1299.902344 0)"/>
      <use xlink:href="#DejaVuSans-65" transform="translate(1359.082031 0)"/>
      <use xlink:href="#DejaVuSans-20" transform="translate(1420.605469 0)"/>
      <use xlink:href="#DejaVuSans-72" transform="translate(1452.392578 0)"/>
      <use xlink:href="#DejaVuSans-64" transform="translate(1491.755859 0)"/>
      <use xlink:href="#DejaVuSans-74" transform="translate(1555.232422 0)"/>
      <use xlink:href="#DejaVuSans-73" transform="translate(1594.441406 0)"/>
      <use xlink:href="#DejaVuSans-63" transform="translate(1646.541016 0)"/>
      <use xlink:href="#DejaVuSans-70" transform="translate(1701.521484 0)"/>
      <use xlink:href="#DejaVuSans-20" transform="translate(1764.998047 0)"/>
      <use xlink:href="#DejaVuSans-72" transform="translate(1796.785156 0)"/>
      <use xlink:href="#DejaVuSans-65" transform="translate(1835.648438 0)"/>
      <use xlink:href="#DejaVuSans-61" transform="translate(1897.171875 0)"/>
      <use xlink:href="#DejaVuSans-64" transform="translate(1958.451172 0)"/>
      <use xlink:href="#DejaVuSans-73" transform="translate(2021.927734 0)"/>
     </g>
    </g>
   </g>
   <g id="matplotlib.axis_2">
    <g id="ytick_1">
     <g id="line2d_1">
      <path d="M 49.807188 231.058125 
L 689.572187 231.058125 
" clip-path="url(#p1901d03892)" style="fill: none; stroke: #30333e; stroke-width: 0.5; stroke-linecap: round"/>
     </g>
     <g id="text_8">
      <!-- 0.0 -->
      <g style="fill: #e0e0e0" transform="translate(22.81375 235.237266) scale(0.11 -0.11)">
       <defs>
        <path id="DejaVuSans-2e" d="M 684 794 
L 1344 794 
L 1344 0 
L 684 0 
L 684 794 
z
" transform="scale(0.015625)"/>
       </defs>
       <use xlink:href="#DejaVuSans-30"/>
       <use xlink:href="#DejaVuSans-2e" transform="translate(63.623047 0)"/>
       <use xlink:href="#DejaVuSans-30" transform="translate(95.410156 0)"/>
      </g>
     </g>
    </g>
    <g id="ytick_2">
     <g id="line2d_2">
      <path d="M 49.807188 201.113926 
L 689.572187 201.113926 
" clip-path="url(#p1901d03892)" style="fill: none; stroke: #30333e; stroke-width: 0.5; stroke-linecap: round"/>
     </g>
     <g id="text_9">
      <!-- 0.1 -->
      <g style="fill: #e0e0e0" transform="translate(22.81375 205.293066) scale(0.11 -0.11)">
       <use xlink:href="#DejaVuSans-30"/>
       <use xlink:href="#DejaVuSans-2e" transform="translate(63.623047 0)"/>
       <use xlink:href="#DejaVuSans-31" transform="translate(95.410156 0)"/>
      </g>
     </g>
    </g>
    <g id="ytick_3">
     <g id="line2d_3">
      <path d="M 49.807188 171.169726 
L 689.572187 171.169726 
" clip-path="url(#p1901d03892)" style="fill: none; stroke: #30333e; stroke-width: 0.5; stroke-linecap: round"/>
     </g>
     <g id="text_10">
      <!-- 0.2 -->
      <g style="fill: #e0e0e0" transform="translate(22.81375 175.348867) scale(0.11 -0.11)">
       <use xlink:href="#DejaVuSans-30"/>
       <use xlink:href="#DejaVuSans-2e" transform="translate(63.623047 0)"/>
       <use xlink:href="#DejaVuSans-32" transform="translate(95.410156 0)"/>
      </g>
     </g>
    </g>
    <g id="ytick_4">
     <g id="line2d_4">
      <path d="M 49.807188 141.225527 
L 689.572187 141.225527 
" clip-path="url(#p1901d03892)" style="fill: none; stroke: #30333e; stroke-width: 0.5; stroke-linecap: round"/>
     </g>
     <g id="text_11">
      <!-- 0.3 -->
      <g style="fill: #e0e0e0" transform="translate(22.81375 145.404668) scale(0.11 -0.11)">
       <defs>
        <path id="DejaVuSans-33" d="M 2597 2516 
Q 3050 2419 3304 2112 
Q 3559 1806 3559 1356 
Q 3559 666 3084 287 
Q 2609 -91 1734 -91 
Q 1441 -91 1130 -33 
Q 819 25 488 141 
L 488 750 
Q 750 597 1062 519 
Q 1375 441 1716 441 
Q 2309 441 2620 675 
Q 2931 909 2931 1356 
Q 2931 1769 2642 2001 
Q 2353 2234 1838 2234 
L 1294 2234 
L 1294 2753 
L 1863 2753 
Q 2328 2753 2575 2939 
Q 2822 3125 2822 3475 
Q 2822 3834 2567 4026 
Q 2313 4219 1838 4219 
Q 1578 4219 1281 4162 
Q 984 4106 628 3988 
L 628 4550 
Q 988 4650 1302 4700 
Q 1616 4750 1894 4750 
Q 2613 4750 3031 4423 
Q 3450 4097 3450 3541 
Q 3450 3153 3228 2886 
Q 3006 2619 2597 2516 
z
" transform="scale(0.015625)"/>
       </defs>
       <use xlink:href="#DejaVuSans-30"/>
       <use xlink:href="#DejaVuSans-2e" transform="translate(63.623047 0)"/>
       <use xlink:href="#DejaVuSans-33" transform="translate(95.410156 0)"/>
      </g>
     </g>
    </g>
    <g id="ytick_5">
     <g id="line2d_5">
      <path d="M 49.807188 111.281328 
L 689.572187 111.281328 
" clip-path="url(#p1901d03892)" style="fill: none; stroke: #30333e; stroke-width: 0.5; stroke-linecap: round"/>
     </g>
     <g id="text_12">
      <!-- 0.4 -->
      <g style="fill: #e0e0e0" transform="translate(22.81375 115.460468) scale(0.11 -0.11)">
       <use xlink:href="#DejaVuSans-30"/>
       <use xlink:href="#DejaVuSans-2e" transform="translate(63.623047 0)"/>
       <use xlink:href="#DejaVuSans-34" transform="translate(95.410156 0)"/>
      </g>
     </g>
    </g>
    <g id="ytick_6">
     <g id="line2d_6">
      <path d="M 49.807188 81.337128 
L 689.572187 81.337128 
" clip-path="url(#p1901d03892)" style="fill: none; stroke: #30333e; stroke-width: 0.5; stroke-linecap: round"/>
     </g>
     <g id="text_13">
      <!-- 0.5 -->
      <g style="fill: #e0e0e0" transform="translate(22.81375 85.516269) scale(0.11 -0.11)">
       <defs>
        <path id="DejaVuSans-35" d="M 691 4666 
L 3169 4666 
L 3169 4134 
L 1269 4134 
L 1269 2991 
Q 1406 3038 1543 3061 
Q 1681 3084 1819 3084 
Q 2600 3084 3056 2656 
Q 3513 2228 3513 1497 
Q 3513 744 3044 326 
Q 2575 -91 1722 -91 
Q 1428 -91 1123 -41 
Q 819 9 494 109 
L 494 744 
Q 775 591 1075 516 
Q 1375 441 1709 441 
Q 2250 441 2565 725 
Q 2881 1009 2881 1497 
Q 2881 1984 2565 2268 
Q 2250 2553 1709 2553 
Q 1456 2553 1204 2497 
Q 953 2441 691 2322 
L 691 4666 
z
" transform="scale(0.015625)"/>
       </defs>
       <use xlink:href="#DejaVuSans-30"/>
       <use xlink:href="#DejaVuSans-2e" transform="translate(63.623047 0)"/>
       <use xlink:href="#DejaVuSans-35" transform="translate(95.410156 0)"/>
      </g>
     </g>
    </g>
    <g id="ytick_7">
     <g id="line2d_7">
      <path d="M 49.807188 51.392929 
L 689.572187 51.392929 
" clip-path="url(#p1901d03892)" style="fill: none; stroke: #30333e; stroke-width: 0.5; stroke-linecap: round"/>
     </g>
     <g id="text_14">
      <!-- 0.6 -->
      <g style="fill: #e0e0e0" transform="translate(22.81375 55.57207) scale(0.11 -0.11)">
       <use xlink:href="#DejaVuSans-30"/>
       <use xlink:href="#DejaVuSans-2e" transform="translate(63.623047 0)"/>
       <use xlink:href="#DejaVuSans-36" transform="translate(95.410156 0)"/>
      </g>
     </g>
    </g>
    <g id="text_15">
     <!-- Relative frequency -->
     <g style="fill: #e0e0e0" transform="translate(16.318125 182.88375) rotate(-90) scale(0.12 -0.12)">
      <defs>
       <path id="DejaVuSans-52" d="M 2841 2188 
Q 3044 2119 3236 1894 
Q 3428 1669 3622 1275 
L 4263 0 
L 3584 0 
L 2988 1197 
Q 2756 1666 2539 1819 
Q 2322 1972 1947 1972 
L 1259 1972 
L 1259 0 
L 628 0 
L 628 4666 
L 2053 4666 
Q 2853 4666 3247 4331 
Q 3641 3997 3641 3322 
Q 3641 2881 3436 2590 
Q 3231 2300 2841 2188 
z
M 1259 4147 
L 1259 2491 
L 2053 2491 
Q 2509 2491 2742 2702 
Q 2975 2913 2975 3322 
Q 2975 3731 2742 3939 
Q 2509 4147 2053 4147 
L 1259 4147 
z
" transform="scale(0.015625)"/>
       <path id="DejaVuSans-66" d="M 2375 4863 
L 2375 4384 
L 1825 4384 
Q 1516 4384 1395 4259 
Q 1275 4134 1275 3809 
L 1275 3500 
L 2222 3500 
L 2222 3053 
L 1275 3053 
L 1275 0 
L 697 0 
L 697 3053 
L 147 3053 
L 147 3500 
L 697 3500 
L 697 3744 
Q 697 4328 969 4595 
Q 1241 4863 1831 4863 
L 2375 4863 
z
" transform="scale(0.015625)"/>
       <path id="DejaVuSans-71" d="M 947 1747 
Q 947 1113 1208 752 
Q 1469 391 1925 391 
Q 2381 391 2643 752 
Q 2906 1113 2906 1747 
Q 2906 2381 2643 2742 
Q 2381 3103 1925 3103 
Q 1469 3103 1208 2742 
Q 947 2381 947 1747 
z
M 2906 525 
Q 2725 213 2448 61 
Q 2172 -91 1784 -91 
Q 1150 -91 751 415 
Q 353 922 353 1747 
Q 353 2572 751 3078 
Q 1150 3584 1784 3584 
Q 2172 3584 2448 3432 
Q 2725 3281 2906 2969 
L 2906 3500 
L 3481 3500 
L 3481 -1331 
L 2906 -1331 
L 2906 525 
z
" transform="scale(0.015625)"/>
      </defs>
      <use xlink:href="#DejaVuSans-52"/>
      <use xlink:href="#DejaVuSans-65" transform="translate(64.982422 0)"/>
      <use xlink:href="#DejaVuSans-6c" transform="translate(126.505859 0)"/>
      <use xlink:href="#DejaVuSans-61" transform="translate(154.289062 0)"/>
      <use xlink:href="#DejaVuSans-74" transform="translate(215.568359 0)"/>
      <use xlink:href="#DejaVuSans-69" transform="translate(254.777344 0)"/>
      <use xlink:href="#DejaVuSans-76" transform="translate(282.560547 0)"/>
      <use xlink:href="#DejaVuSans-65" transform="translate(341.740234 0)"/>
      <use xlink:href="#DejaVuSans-20" transform="translate(403.263672 0)"/>
      <use xlink:href="#DejaVuSans-66" transform="translate(435.050781 0)"/>
      <use xlink:href="#DejaVuSans-72" transform="translate(470.255859 0)"/>
      <use xlink:href="#DejaVuSans-65" transform="translate(509.119141 0)"/>
      <use xlink:href="#DejaVuSans-71" transform="translate(570.642578 0)"/>
      <use xlink:href="#DejaVuSans-75" transform="translate(634.119141 0)"/>
      <use xlink:href="#DejaVuSans-65" transform="translate(697.498047 0)"/>
      <use xlink:href="#DejaVuSans-6e" transform="translate(759.021484 0)"/>
      <use xlink:href="#DejaVuSans-63" transform="translate(822.400391 0)"/>
      <use xlink:href="#DejaVuSans-79" transform="translate(877.380859 0)"/>
     </g>
    </g>
   </g>
   <g id="patch_3">
    <path d="M 49.807188 231.058125 
L 56.204838 231.058125 
L 56.204838 231.058125 
L 49.807188 231.058125 
z
" clip-path="url(#p1901d03892)" style="fill: #ec407a; stroke: #121622; stroke-width: 0.5; stroke-linejoin: miter"/>
   </g>
   <g id="patch_4">
    <path d="M 56.204838 231.058125 
L 62.602488 231.058125 
L 62.602488 231.058125 
L 56.204838 231.058125 
z
" clip-path="url(#p1901d03892)" style="fill: #ec407a; stroke: #121622; stroke-width: 0.5; stroke-linejoin: miter"/>
   </g>
   <g id="patch_5">
    <path d="M 62.602488 231.058125 
L 69.000137 231.058125 
L 69.000137 231.058125 
L 62.602488 231.058125 
z
" clip-path="url(#p1901d03892)" style="fill: #ec407a; stroke: #121622; stroke-width: 0.5; stroke-linejoin: miter"/>
   </g>
   <g id="patch_6">
    <path d="M 69.000137 231.058125 
L 75.397787 231.058125 
L 75.397787 231.058125 
L 69.000137 231.058125 
z
" clip-path="url(#p1901d03892)" style="fill: #ec407a; stroke: #121622; stroke-width: 0.5; stroke-linejoin: miter"/>
   </g>
   <g id="patch_7">
    <path d="M 75.397787 231.058125 
L 81.795437 231.058125 
L 81.795437 231.058125 
L 75.397787 231.058125 
z
" clip-path="url(#p1901d03892)" style="fill: #ec407a; stroke: #121622; stroke-width: 0.5; stroke-linejoin: miter"/>
   </g>
   <g id="patch_8">
    <path d="M 81.795437 231.058125 
L 88.193087 231.058125 
L 88.193087 231.058125 
L 81.795437 231.058125 
z
" clip-path="url(#p1901d03892)" style="fill: #ec407a; stroke: #121622; stroke-width: 0.5; stroke-linejoin: miter"/>
   </g>
   <g id="patch_9">
    <path d="M 88.193087 231.058125 
L 94.590737 231.058125 
L 94.590737 231.058125 
L 88.193087 231.058125 
z
" clip-path="url(#p1901d03892)" style="fill: #ec407a; stroke: #121622; stroke-width: 0.5; stroke-linejoin: miter"/>
   </g>
   <g id="patch_10">
    <path d="M 94.590737 231.058125 
L 100.988387 231.058125 
L 100.988387 231.058125 
L 94.590737 231.058125 
z
" clip-path="url(#p1901d03892)" style="fill: #ec407a; stroke: #121622; stroke-width: 0.5; stroke-linejoin: miter"/>
   </g>
   <g id="patch_11">
    <path d="M 100.988387 231.058125 
L 107.386037 231.058125 
L 107.386037 231.058125 
L 100.988387 231.058125 
z
" clip-path="url(#p1901d03892)" style="fill: #ec407a; stroke: #121622; stroke-width: 0.5; stroke-linejoin: miter"/>
   </g>
   <g id="patch_12">
    <path d="M 107.386037 231.058125 
L 113.783687 231.058125 
L 113.783687 231.058125 
L 107.386037 231.058125 
z
" clip-path="url(#p1901d03892)" style="fill: #ec407a; stroke: #121622; stroke-width: 0.5; stroke-linejoin: miter"/>
   </g>
   <g id="patch_13">
    <path d="M 113.783687 231.058125 
L 120.181337 231.058125 
L 120.181337 231.058125 
L 113.783687 231.058125 
z
" clip-path="url(#p1901d03892)" style="fill: #ec407a; stroke: #121622; stroke-width: 0.5; stroke-linejoin: miter"/>
   </g>
   <g id="patch_14">
    <path d="M 120.181337 231.058125 
L 126.578987 231.058125 
L 126.578987 231.058125 
L 120.181337 231.058125 
z
" clip-path="url(#p1901d03892)" style="fill: #ec407a; stroke: #121622; stroke-width: 0.5; stroke-linejoin: miter"/>
   </g>
   <g id="patch_15">
    <path d="M 126.578987 231.058125 
L 132.976637 231.058125 
L 132.976637 231.058125 
L 126.578987 231.058125 
z
" clip-path="url(#p1901d03892)" style="fill: #ec407a; stroke: #121622; stroke-width: 0.5; stroke-linejoin: miter"/>
   </g>
   <g id="patch_16">
    <path d="M 132.976637 231.058125 
L 139.374287 231.058125 
L 139.374287 231.058125 
L 132.976637 231.058125 
z
" clip-path="url(#p1901d03892)" style="fill: #ec407a; stroke: #121622; stroke-width: 0.5; stroke-linejoin: miter"/>
   </g>
   <g id="patch_17">
    <path d="M 139.374287 231.058125 
L 145.771937 231.058125 
L 145.771937 231.058125 
L 139.374287 231.058125 
z
" clip-path="url(#p1901d03892)" style="fill: #ec407a; stroke: #121622; stroke-width: 0.5; stroke-linejoin: miter"/>
   </g>
   <g id="patch_18">
    <path d="M 145.771937 231.058125 
L 152.169587 231.058125 
L 152.169587 231.058125 
L 145.771937 231.058125 
z
" clip-path="url(#p1901d03892)" style="fill: #ec407a; stroke: #121622; stroke-width: 0.5; stroke-linejoin: miter"/>
   </g>
   <g id="patch_19">
    <path d="M 152.169587 231.058125 
L 158.567237 231.058125 
L 158.567237 231.058125 
L 152.169587 231.058125 
z
" clip-path="url(#p1901d03892)" style="fill: #ec407a; stroke: #121622; stroke-width: 0.5; stroke-linejoin: miter"/>
   </g>
   <g id="patch_20">
    <path d="M 158.567237 231.058125 
L 164.964887 231.058125 
L 164.964887 231.058125 
L 158.567237 231.058125 
z
" clip-path="url(#p1901d03892)" style="fill: #ec407a; stroke: #121622; stroke-width: 0.5; stroke-linejoin: miter"/>
   </g>
   <g id="patch_21">
    <path d="M 164.964887 231.058125 
L 171.362537 231.058125 
L 171.362537 231.058125 
L 164.964887 231.058125 
z
" clip-path="url(#p1901d03892)" style="fill: #ec407a; stroke: #121622; stroke-width: 0.5; stroke-linejoin: miter"/>
   </g>
   <g id="patch_22">
    <path d="M 171.362537 231.058125 
L 177.760187 231.058125 
L 177.760187 231.058125 
L 171.362537 231.058125 
z
" clip-path="url(#p1901d03892)" style="fill: #ec407a; stroke: #121622; stroke-width: 0.5; stroke-linejoin: miter"/>
   </g>
   <g id="patch_23">
    <path d="M 177.760187 231.058125 
L 184.157837 231.058125 
L 184.157837 231.058125 
L 177.760187 231.058125 
z
" clip-path="url(#p1901d03892)" style="fill: #ec407a; stroke: #121622; stroke-width: 0.5; stroke-linejoin: miter"/>
   </g>
   <g id="patch_24">
    <path d="M 184.157837 231.058125 
L 190.555487 231.058125 
L 190.555487 231.058125 
L 184.157837 231.058125 
z
" clip-path="url(#p1901d03892)" style="fill: #ec407a; stroke: #121622; stroke-width: 0.5; stroke-linejoin: miter"/>
   </g>
   <g id="patch_25">
    <path d="M 190.555487 231.058125 
L 196.953137 231.058125 
L 196.953137 231.058125 
L 190.555487 231.058125 
z
" clip-path="url(#p1901d03892)" style="fill: #ec407a; stroke: #121622; stroke-width: 0.5; stroke-linejoin: miter"/>
   </g>
   <g id="patch_26">
    <path d="M 196.953137 231.058125 
L 203.350787 231.058125 
L 203.350787 231.058125 
L 196.953137 231.058125 
z
" clip-path="url(#p1901d03892)" style="fill: #ec407a; stroke: #121622; stroke-width: 0.5; stroke-linejoin: miter"/>
   </g>
   <g id="patch_27">
    <path d="M 203.350787 231.058125 
L 209.748437 231.058125 
L 209.748437 231.058125 
L 203.350787 231.058125 
z
" clip-path="url(#p1901d03892)" style="fill: #ec407a; stroke: #121622; stroke-width: 0.5; stroke-linejoin: miter"/>
   </g>
   <g id="patch_28">
    <path d="M 209.748437 231.058125 
L 216.146087 231.058125 
L 216.146087 231.058125 
L 209.748437 231.058125 
z
" clip-path="url(#p1901d03892)" style="fill: #ec407a; stroke: #121622; stroke-width: 0.5; stroke-linejoin: miter"/>
   </g>
   <g id="patch_29">
    <path d="M 216.146087 231.058125 
L 222.543737 231.058125 
L 222.543737 231.058125 
L 216.146087 231.058125 
z
" clip-path="url(#p1901d03892)" style="fill: #ec407a; stroke: #121622; stroke-width: 0.5; stroke-linejoin: miter"/>
   </g>
   <g id="patch_30">
    <path d="M 222.543737 231.058125 
L 228.941387 231.058125 
L 228.941387 231.058125 
L 222.543737 231.058125 
z
" clip-path="url(#p1901d03892)" style="fill: #ec407a; stroke: #121622; stroke-width: 0.5; stroke-linejoin: miter"/>
   </g>
   <g id="patch_31">
    <path d="M 228.941387 231.058125 
L 235.339037 231.058125 
L 235.339037 231.058125 
L 228.941387 231.058125 
z
" clip-path="url(#p1901d03892)" style="fill: #ec407a; stroke: #121622; stroke-width: 0.5; stroke-linejoin: miter"/>
   </g>
   <g id="patch_32">
    <path d="M 235.339037 231.058125 
L 241.736687 231.058125 
L 241.736687 231.058125 
L 235.339037 231.058125 
z
" clip-path="url(#p1901d03892)" style="fill: #ec407a; stroke: #121622; stroke-width: 0.5; stroke-linejoin: miter"/>
   </g>
   <g id="patch_33">
    <path d="M 241.736687 231.058125 
L 248.134337 231.058125 
L 248.134337 231.058125 
L 241.736687 231.058125 
z
" clip-path="url(#p1901d03892)" style="fill: #ec407a; stroke: #121622; stroke-width: 0.5; stroke-linejoin: miter"/>
   </g>
   <g id="patch_34">
    <path d="M 248.134337 231.058125 
L 254.531987 231.058125 
L 254.531987 231.058125 
L 248.134337 231.058125 
z
" clip-path="url(#p1901d03892)" style="fill: #ec407a; stroke: #121622; stroke-width: 0.5; stroke-linejoin: miter"/>
   </g>
   <g id="patch_35">
    <path d="M 254.531987 231.058125 
L 260.929637 231.058125 
L 260.929637 231.058125 
L 254.531987 231.058125 
z
" clip-path="url(#p1901d03892)" style="fill: #ec407a; stroke: #121622; stroke-width: 0.5; stroke-linejoin: miter"/>
   </g>
   <g id="patch_36">
    <path d="M 260.929637 231.058125 
L 267.327287 231.058125 
L 267.327287 231.058125 
L 260.929637 231.058125 
z
" clip-path="url(#p1901d03892)" style="fill: #ec407a; stroke: #121622; stroke-width: 0.5; stroke-linejoin: miter"/>
   </g>
   <g id="patch_37">
    <path d="M 267.327287 231.058125 
L 273.724937 231.058125 
L 273.724937 231.058125 
L 267.327287 231.058125 
z
" clip-path="url(#p1901d03892)" style="fill: #ec407a; stroke: #121622; stroke-width: 0.5; stroke-linejoin: miter"/>
   </g>
   <g id="patch_38">
    <path d="M 273.724937 231.058125 
L 280.122587 231.058125 
L 280.122587 231.058125 
L 273.724937 231.058125 
z
" clip-path="url(#p1901d03892)" style="fill: #ec407a; stroke: #121622; stroke-width: 0.5; stroke-linejoin: miter"/>
   </g>
   <g id="patch_39">
    <path d="M 280.122587 231.058125 
L 286.520237 231.058125 
L 286.520237 231.058125 
L 280.122587 231.058125 
z
" clip-path="url(#p1901d03892)" style="fill: #ec407a; stroke: #121622; stroke-width: 0.5; stroke-linejoin: miter"/>
   </g>
   <g id="patch_40">
    <path d="M 286.520237 231.058125 
L 292.917887 231.058125 
L 292.917887 231.058125 
L 286.520237 231.058125 
z
" clip-path="url(#p1901d03892)" style="fill: #ec407a; stroke: #121622; stroke-width: 0.5; stroke-linejoin: miter"/>
   </g>
   <g id="patch_41">
    <path d="M 292.917887 231.058125 
L 299.315537 231.058125 
L 299.315537 231.058125 
L 292.917887 231.058125 
z
" clip-path="url(#p1901d03892)" style="fill: #ec407a; stroke: #121622; stroke-width: 0.5; stroke-linejoin: miter"/>
   </g>
   <g id="patch_42">
    <path d="M 299.315537 231.058125 
L 305.713187 231.058125 
L 305.713187 231.058125 
L 299.315537 231.058125 
z
" clip-path="url(#p1901d03892)" style="fill: #ec407a; stroke: #121622; stroke-width: 0.5; stroke-linejoin: miter"/>
   </g>
   <g id="patch_43">
    <path d="M 305.713187 231.058125 
L 312.110837 231.058125 
L 312.110837 231.058125 
L 305.713187 231.058125 
z
" clip-path="url(#p1901d03892)" style="fill: #ec407a; stroke: #121622; stroke-width: 0.5; stroke-linejoin: miter"/>
   </g>
   <g id="patch_44">
    <path d="M 312.110837 231.058125 
L 318.508487 231.058125 
L 318.508487 231.058125 
L 312.110837 231.058125 
z
" clip-path="url(#p1901d03892)" style="fill: #ec407a; stroke: #121622; stroke-width: 0.5; stroke-linejoin: miter"/>
   </g>
   <g id="patch_45">
    <path d="M 318.508487 231.058125 
L 324.906137 231.058125 
L 324.906137 32.258125 
L 318.508487 32.258125 
z
" clip-path="url(#p1901d03892)" style="fill: #ec407a; stroke: #121622; stroke-width: 0.5; stroke-linejoin: miter"/>
   </g>
   <g id="patch_46">
    <path d="M 324.906137 231.058125 
L 331.303787 231.058125 
L 331.303787 231.058125 
L 324.906137 231.058125 
z
" clip-path="url(#p1901d03892)" style="fill: #ec407a; stroke: #121622; stroke-width: 0.5; stroke-linejoin: miter"/>
   </g>
   <g id="patch_47">
    <path d="M 331.303787 231.058125 
L 337.701437 231.058125 
L 337.701437 231.058125 
L 331.303787 231.058125 
z
" clip-path="url(#p1901d03892)" style="fill: #ec407a; stroke: #121622; stroke-width: 0.5; stroke-linejoin: miter"/>
   </g>
   <g id="patch_48">
    <path d="M 337.701437 231.058125 
L 344.099087 231.058125 
L 344.099087 231.058125 
L 337.701437 231.058125 
z
" clip-path="url(#p1901d03892)" style="fill: #ec407a; stroke: #121622; stroke-width: 0.5; stroke-linejoin: miter"/>
   </g>
   <g id="patch_49">
    <path d="M 344.099087 231.058125 
L 350.496737 231.058125 
L 350.496737 231.058125 
L 344.099087 231.058125 
z
" clip-path="url(#p1901d03892)" style="fill: #ec407a; stroke: #121622; stroke-width: 0.5; stroke-linejoin: miter"/>
   </g>
   <g id="patch_50">
    <path d="M 350.496737 231.058125 
L 356.894387 231.058125 
L 356.894387 231.058125 
L 350.496737 231.058125 
z
" clip-path="url(#p1901d03892)" style="fill: #ec407a; stroke: #121622; stroke-width: 0.5; stroke-linejoin: miter"/>
   </g>
   <g id="patch_51">
    <path d="M 356.894387 231.058125 
L 363.292037 231.058125 
L 363.292037 231.058125 
L 356.894387 231.058125 
z
" clip-path="url(#p1901d03892)" style="fill: #ec407a; stroke: #121622; stroke-width: 0.5; stroke-linejoin: miter"/>
   </g>
   <g id="patch_52">
    <path d="M 363.292037 231.058125 
L 369.689687 231.058125 
L 369.689687 231.058125 
L 363.292037 231.058125 
z
" clip-path="url(#p1901d03892)" style="fill: #ec407a; stroke: #121622; stroke-width: 0.5; stroke-linejoin: miter"/>
   </g>
   <g id="patch_53">
    <path d="M 369.689687 231.058125 
L 376.087337 231.058125 
L 376.087337 231.058125 
L 369.689687 231.058125 
z
" clip-path="url(#p1901d03892)" style="fill: #ec407a; stroke: #121622; stroke-width: 0.5; stroke-linejoin: miter"/>
   </g>
   <g id="patch_54">
    <path d="M 376.087337 231.058125 
L 382.484987 231.058125 
L 382.484987 231.058125 
L 376.087337 231.058125 
z
" clip-path="url(#p1901d03892)" style="fill: #ec407a; stroke: #121622; stroke-width: 0.5; stroke-linejoin: miter"/>
   </g>
   <g id="patch_55">
    <path d="M 382.484987 231.058125 
L 388.882637 231.058125 
L 388.882637 231.058125 
L 382.484987 231.058125 
z
" clip-path="url(#p1901d03892)" style="fill: #ec407a; stroke: #121622; stroke-width: 0.5; stroke-linejoin: miter"/>
   </g>
   <g id="patch_56">
    <path d="M 388.882637 231.058125 
L 395.280287 231.058125 
L 395.280287 231.058125 
L 388.882637 231.058125 
z
" clip-path="url(#p1901d03892)" style="fill: #ec407a; stroke: #121622; stroke-width: 0.5; stroke-linejoin: miter"/>
   </g>
   <g id="patch_57">
    <path d="M 395.280287 231.058125 
L 401.677937 231.058125 
L 401.677937 231.058125 
L 395.280287 231.058125 
z
" clip-path="url(#p1901d03892)" style="fill: #ec407a; stroke: #121622; stroke-width: 0.5; stroke-linejoin: miter"/>
   </g>
   <g id="patch_58">
    <path d="M 401.677937 231.058125 
L 408.075587 231.058125 
L 408.075587 231.058125 
L 401.677937 231.058125 
z
" clip-path="url(#p1901d03892)" style="fill: #ec407a; stroke: #121622; stroke-width: 0.5; stroke-linejoin: miter"/>
   </g>
   <g id="patch_59">
    <path d="M 408.075587 231.058125 
L 414.473237 231.058125 
L 414.473237 231.058125 
L 408.075587 231.058125 
z
" clip-path="url(#p1901d03892)" style="fill: #ec407a; stroke: #121622; stroke-width: 0.5; stroke-linejoin: miter"/>
   </g>
   <g id="patch_60">
    <path d="M 414.473237 231.058125 
L 420.870887 231.058125 
L 420.870887 231.058125 
L 414.473237 231.058125 
z
" clip-path="url(#p1901d03892)" style="fill: #ec407a; stroke: #121622; stroke-width: 0.5; stroke-linejoin: miter"/>
   </g>
   <g id="patch_61">
    <path d="M 420.870887 231.058125 
L 427.268537 231.058125 
L 427.268537 231.058125 
L 420.870887 231.058125 
z
" clip-path="url(#p1901d03892)" style="fill: #ec407a; stroke: #121622; stroke-width: 0.5; stroke-linejoin: miter"/>
   </g>
   <g id="patch_62">
    <path d="M 427.268537 231.058125 
L 433.666187 231.058125 
L 433.666187 231.058125 
L 427.268537 231.058125 
z
" clip-path="url(#p1901d03892)" style="fill: #ec407a; stroke: #121622; stroke-width: 0.5; stroke-linejoin: miter"/>
   </g>
   <g id="patch_63">
    <path d="M 433.666187 231.058125 
L 440.063837 231.058125 
L 440.063837 231.058125 
L 433.666187 231.058125 
z
" clip-path="url(#p1901d03892)" style="fill: #ec407a; stroke: #121622; stroke-width: 0.5; stroke-linejoin: miter"/>
   </g>
   <g id="patch_64">
    <path d="M 440.063837 231.058125 
L 446.461487 231.058125 
L 446.461487 231.058125 
L 440.063837 231.058125 
z
" clip-path="url(#p1901d03892)" style="fill: #ec407a; stroke: #121622; stroke-width: 0.5; stroke-linejoin: miter"/>
   </g>
   <g id="patch_65">
    <path d="M 446.461487 231.058125 
L 452.859137 231.058125 
L 452.859137 231.058125 
L 446.461487 231.058125 
z
" clip-path="url(#p1901d03892)" style="fill: #ec407a; stroke: #121622; stroke-width: 0.5; stroke-linejoin: miter"/>
   </g>
   <g id="patch_66">
    <path d="M 452.859137 231.058125 
L 459.256787 231.058125 
L 459.256787 231.058125 
L 452.859137 231.058125 
z
" clip-path="url(#p1901d03892)" style="fill: #ec407a; stroke: #121622; stroke-width: 0.5; stroke-linejoin: miter"/>
   </g>
   <g id="patch_67">
    <path d="M 459.256787 231.058125 
L 465.654437 231.058125 
L 465.654437 231.058125 
L 459.256787 231.058125 
z
" clip-path="url(#p1901d03892)" style="fill: #ec407a; stroke: #121622; stroke-width: 0.5; stroke-linejoin: miter"/>
   </g>
   <g id="patch_68">
    <path d="M 465.654437 231.058125 
L 472.052087 231.058125 
L 472.052087 231.058125 
L 465.654437 231.058125 
z
" clip-path="url(#p1901d03892)" style="fill: #ec407a; stroke: #121622; stroke-width: 0.5; stroke-linejoin: miter"/>
   </g>
   <g id="patch_69">
    <path d="M 472.052087 231.058125 
L 478.449737 231.058125 
L 478.449737 231.058125 
L 472.052087 231.058125 
z
" clip-path="url(#p1901d03892)" style="fill: #ec407a; stroke: #121622; stroke-width: 0.5; stroke-linejoin: miter"/>
   </g>
   <g id="patch_70">
    <path d="M 478.449737 231.058125 
L 484.847387 231.058125 
L 484.847387 231.058125 
L 478.449737 231.058125 
z
" clip-path="url(#p1901d03892)" style="fill: #ec407a; stroke: #121622; stroke-width: 0.5; stroke-linejoin: miter"/>
   </g>
   <g id="patch_71">
    <path d="M 484.847387 231.058125 
L 491.245037 231.058125 
L 491.245037 231.058125 
L 484.847387 231.058125 
z
" clip-path="url(#p1901d03892)" style="fill: #ec407a; stroke: #121622; stroke-width: 0.5; stroke-linejoin: miter"/>
   </g>
   <g id="patch_72">
    <path d="M 491.245037 231.058125 
L 497.642687 231.058125 
L 497.642687 231.058125 
L 491.245037 231.058125 
z
" clip-path="url(#p1901d03892)" style="fill: #ec407a; stroke: #121622; stroke-width: 0.5; stroke-linejoin: miter"/>
   </g>
   <g id="patch_73">
    <path d="M 497.642687 231.058125 
L 504.040337 231.058125 
L 504.040337 231.058125 
L 497.642687 231.058125 
z
" clip-path="url(#p1901d03892)" style="fill: #ec407a; stroke: #121622; stroke-width: 0.5; stroke-linejoin: miter"/>
   </g>
   <g id="patch_74">
    <path d="M 504.040337 231.058125 
L 510.437987 231.058125 
L 510.437987 231.058125 
L 504.040337 231.058125 
z
" clip-path="url(#p1901d03892)" style="fill: #ec407a; stroke: #121622; stroke-width: 0.5; stroke-linejoin: miter"/>
   </g>
   <g id="patch_75">
    <path d="M 510.437987 231.058125 
L 516.835637 231.058125 
L 516.835637 231.058125 
L 510.437987 231.058125 
z
" clip-path="url(#p1901d03892)" style="fill: #ec407a; stroke: #121622; stroke-width: 0.5; stroke-linejoin: miter"/>
   </g>
   <g id="patch_76">
    <path d="M 516.835637 231.058125 
L 523.233287 231.058125 
L 523.233287 231.058125 
L 516.835637 231.058125 
z
" clip-path="url(#p1901d03892)" style="fill: #ec407a; stroke: #121622; stroke-width: 0.5; stroke-linejoin: miter"/>
   </g>
   <g id="patch_77">
    <path d="M 523.233287 231.058125 
L 529.630937 231.058125 
L 529.630937 231.058125 
L 523.233287 231.058125 
z
" clip-path="url(#p1901d03892)" style="fill: #ec407a; stroke: #121622; stroke-width: 0.5; stroke-linejoin: miter"/>
   </g>
   <g id="patch_78">
    <path d="M 529.630937 231.058125 
L 536.028587 231.058125 
L 536.028587 231.058125 
L 529.630937 231.058125 
z
" clip-path="url(#p1901d03892)" style="fill: #ec407a; stroke: #121622; stroke-width: 0.5; stroke-linejoin: miter"/>
   </g>
   <g id="patch_79">
    <path d="M 536.028587 231.058125 
L 542.426237 231.058125 
L 542.426237 231.058125 
L 536.028587 231.058125 
z
" clip-path="url(#p1901d03892)" style="fill: #ec407a; stroke: #121622; stroke-width: 0.5; stroke-linejoin: miter"/>
   </g>
   <g id="patch_80">
    <path d="M 542.426237 231.058125 
L 548.823887 231.058125 
L 548.823887 231.058125 
L 542.426237 231.058125 
z
" clip-path="url(#p1901d03892)" style="fill: #ec407a; stroke: #121622; stroke-width: 0.5; stroke-linejoin: miter"/>
   </g>
   <g id="patch_81">
    <path d="M 548.823887 231.058125 
L 555.221537 231.058125 
L 555.221537 231.058125 
L 548.823887 231.058125 
z
" clip-path="url(#p1901d03892)" style="fill: #ec407a; stroke: #121622; stroke-width: 0.5; stroke-linejoin: miter"/>
   </g>
   <g id="patch_82">
    <path d="M 555.221537 231.058125 
L 561.619187 231.058125 
L 561.619187 231.058125 
L 555.221537 231.058125 
z
" clip-path="url(#p1901d03892)" style="fill: #ec407a; stroke: #121622; stroke-width: 0.5; stroke-linejoin: miter"/>
   </g>
   <g id="patch_83">
    <path d="M 561.619187 231.058125 
L 568.016837 231.058125 
L 568.016837 231.058125 
L 561.619187 231.058125 
z
" clip-path="url(#p1901d03892)" style="fill: #ec407a; stroke: #121622; stroke-width: 0.5; stroke-linejoin: miter"/>
   </g>
   <g id="patch_84">
    <path d="M 568.016837 231.058125 
L 574.414487 231.058125 
L 574.414487 231.058125 
L 568.016837 231.058125 
z
" clip-path="url(#p1901d03892)" style="fill: #ec407a; stroke: #121622; stroke-width: 0.5; stroke-linejoin: miter"/>
   </g>
   <g id="patch_85">
    <path d="M 574.414487 231.058125 
L 580.812137 231.058125 
L 580.812137 231.058125 
L 574.414487 231.058125 
z
" clip-path="url(#p1901d03892)" style="fill: #ec407a; stroke: #121622; stroke-width: 0.5; stroke-linejoin: miter"/>
   </g>
   <g id="patch_86">
    <path d="M 580.812137 231.058125 
L 587.209787 231.058125 
L 587.209787 231.058125 
L 580.812137 231.058125 
z
" clip-path="url(#p1901d03892)" style="fill: #ec407a; stroke: #121622; stroke-width: 0.5; stroke-linejoin: miter"/>
   </g>
   <g id="patch_87">
    <path d="M 587.209787 231.058125 
L 593.607437 231.058125 
L 593.607437 130.416132 
L 587.209787 130.416132 
z
" clip-path="url(#p1901d03892)" style="fill: #ec407a; stroke: #121622; stroke-width: 0.5; stroke-linejoin: miter"/>
   </g>
   <g id="patch_88">
    <path d="M 593.607437 231.058125 
L 600.005087 231.058125 
L 600.005087 231.058125 
L 593.607437 231.058125 
z
" clip-path="url(#p1901d03892)" style="fill: #ec407a; stroke: #121622; stroke-width: 0.5; stroke-linejoin: miter"/>
   </g>
   <g id="patch_89">
    <path d="M 600.005087 231.058125 
L 606.402737 231.058125 
L 606.402737 231.058125 
L 600.005087 231.058125 
z
" clip-path="url(#p1901d03892)" style="fill: #ec407a; stroke: #121622; stroke-width: 0.5; stroke-linejoin: miter"/>
   </g>
   <g id="patch_90">
    <path d="M 606.402737 231.058125 
L 612.800387 231.058125 
L 612.800387 231.058125 
L 606.402737 231.058125 
z
" clip-path="url(#p1901d03892)" style="fill: #ec407a; stroke: #121622; stroke-width: 0.5; stroke-linejoin: miter"/>
   </g>
   <g id="patch_91">
    <path d="M 612.800387 231.058125 
L 619.198037 231.058125 
L 619.198037 231.058125 
L 612.800387 231.058125 
z
" clip-path="url(#p1901d03892)" style="fill: #ec407a; stroke: #121622; stroke-width: 0.5; stroke-linejoin: miter"/>
   </g>
   <g id="patch_92">
    <path d="M 619.198037 231.058125 
L 625.595687 231.058125 
L 625.595687 231.058125 
L 619.198037 231.058125 
z
" clip-path="url(#p1901d03892)" style="fill: #ec407a; stroke: #121622; stroke-width: 0.5; stroke-linejoin: miter"/>
   </g>
   <g id="patch_93">
    <path d="M 625.595687 231.058125 
L 631.993337 231.058125 
L 631.993337 231.058125 
L 625.595687 231.058125 
z
" clip-path="url(#p1901d03892)" style="fill: #ec407a; stroke: #121622; stroke-width: 0.5; stroke-linejoin: miter"/>
   </g>
   <g id="patch_94">
    <path d="M 631.993337 231.058125 
L 638.390987 231.058125 
L 638.390987 231.058125 
L 631.993337 231.058125 
z
" clip-path="url(#p1901d03892)" style="fill: #ec407a; stroke: #121622; stroke-width: 0.5; stroke-linejoin: miter"/>
   </g>
   <g id="patch_95">
    <path d="M 638.390987 231.058125 
L 644.788637 231.058125 
L 644.788637 231.058125 
L 638.390987 231.058125 
z
" clip-path="url(#p1901d03892)" style="fill: #ec407a; stroke: #121622; stroke-width: 0.5; stroke-linejoin: miter"/>
   </g>
   <g id="patch_96">
    <path d="M 644.788637 231.058125 
L 651.186287 231.058125 
L 651.186287 231.058125 
L 644.788637 231.058125 
z
" clip-path="url(#p1901d03892)" style="fill: #ec407a; stroke: #121622; stroke-width: 0.5; stroke-linejoin: miter"/>
   </g>
   <g id="patch_97">
    <path d="M 651.186287 231.058125 
L 657.583937 231.058125 
L 657.583937 231.058125 
L 651.186287 231.058125 
z
" clip-path="url(#p1901d03892)" style="fill: #ec407a; stroke: #121622; stroke-width: 0.5; stroke-linejoin: miter"/>
   </g>
   <g id="patch_98">
    <path d="M 657.583937 231.058125 
L 663.981587 231.058125 
L 663.981587 231.058125 
L 657.583937 231.058125 
z
" clip-path="url(#p1901d03892)" style="fill: #ec407a; stroke: #121622; stroke-width: 0.5; stroke-linejoin: miter"/>
   </g>
   <g id="patch_99">
    <path d="M 663.981587 231.058125 
L 670.379237 231.058125 
L 670.379237 231.058125 
L 663.981587 231.058125 
z
" clip-path="url(#p1901d03892)" style="fill: #ec407a; stroke: #121622; stroke-width: 0.5; stroke-linejoin: miter"/>
   </g>
   <g id="patch_100">
    <path d="M 670.379237 231.058125 
L 676.776887 231.058125 
L 676.776887 231.058125 
L 670.379237 231.058125 
z
" clip-path="url(#p1901d03892)" style="fill: #ec407a; stroke: #121622; stroke-width: 0.5; stroke-linejoin: miter"/>
   </g>
   <g id="patch_101">
    <path d="M 676.776887 231.058125 
L 683.174537 231.058125 
L 683.174537 231.058125 
L 676.776887 231.058125 
z
" clip-path="url(#p1901d03892)" style="fill: #ec407a; stroke: #121622; stroke-width: 0.5; stroke-linejoin: miter"/>
   </g>
   <g id="patch_102">
    <path d="M 683.174537 231.058125 
L 689.572187 231.058125 
L 689.572187 231.058125 
L 683.174537 231.058125 
z
" clip-path="url(#p1901d03892)" style="fill: #ec407a; stroke: #121622; stroke-width: 0.5; stroke-linejoin: miter"/>
   </g>
   <g id="patch_103">
    <path d="M 49.807188 231.058125 
L 49.807188 22.318125 
" style="fill: none; stroke: #30333e; stroke-width: 1.25; stroke-linejoin: miter; stroke-linecap: square"/>
   </g>
   <g id="patch_104">
    <path d="M 49.807188 231.058125 
L 689.572187 231.058125 
" style="fill: none; stroke: #30333e; stroke-width: 1.25; stroke-linejoin: miter; stroke-linecap: square"/>
   </g>
   <g id="text_16">
    <!-- rdtscp step distribution (4-unrolled, 3 deltas per iter) -->
    <g style="fill: #e0e0e0" transform="translate(211.11625 16.318125) scale(0.12 -0.12)">
     <defs>
      <path id="DejaVuSans-28" d="M 1984 4856 
Q 1566 4138 1362 3434 
Q 1159 2731 1159 2009 
Q 1159 1288 1364 580 
Q 1569 -128 1984 -844 
L 1484 -844 
Q 1016 -109 783 600 
Q 550 1309 550 2009 
Q 550 2706 781 3412 
Q 1013 4119 1484 4856 
L 1984 4856 
z
" transform="scale(0.015625)"/>
      <path id="DejaVuSans-2d" d="M 313 2009 
L 1997 2009 
L 1997 1497 
L 313 1497 
L 313 2009 
z
" transform="scale(0.015625)"/>
      <path id="DejaVuSans-2c" d="M 750 794 
L 1409 794 
L 1409 256 
L 897 -744 
L 494 -744 
L 750 256 
L 750 794 
z
" transform="scale(0.015625)"/>
      <path id="DejaVuSans-29" d="M 513 4856 
L 1013 4856 
Q 1481 4119 1714 3412 
Q 1947 2706 1947 2009 
Q 1947 1309 1714 600 
Q 1481 -109 1013 -844 
L 513 -844 
Q 928 -128 1133 580 
Q 1338 1288 1338 2009 
Q 1338 2731 1133 3434 
Q 928 4138 513 4856 
z
" transform="scale(0.015625)"/>
     </defs>
     <use xlink:href="#DejaVuSans-72"/>
     <use xlink:href="#DejaVuSans-64" transform="translate(39.363281 0)"/>
     <use xlink:href="#DejaVuSans-74" transform="translate(102.839844 0)"/>
     <use xlink:href="#DejaVuSans-73" transform="translate(142.048828 0)"/>
     <use xlink:href="#DejaVuSans-63" transform="translate(194.148438 0)"/>
     <use xlink:href="#DejaVuSans-70" transform="translate(249.128906 0)"/>
     <use xlink:href="#DejaVuSans-20" transform="translate(312.605469 0)"/>
     <use xlink:href="#DejaVuSans-73" transform="translate(344.392578 0)"/>
     <use xlink:href="#DejaVuSans-74" transform="translate(396.492188 0)"/>
     <use xlink:href="#DejaVuSans-65" transform="translate(435.701172 0)"/>
     <use xlink:href="#DejaVuSans-70" transform="translate(497.224609 0)"/>
     <use xlink:href="#DejaVuSans-20" transform="translate(560.701172 0)"/>
     <use xlink:href="#DejaVuSans-64" transform="translate(592.488281 0)"/>
     <use xlink:href="#DejaVuSans-69" transform="translate(655.964844 0)"/>
     <use xlink:href="#DejaVuSans-73" transform="translate(683.748047 0)"/>
     <use xlink:href="#DejaVuSans-74" transform="translate(735.847656 0)"/>
     <use xlink:href="#DejaVuSans-72" transform="translate(775.056641 0)"/>
     <use xlink:href="#DejaVuSans-69" transform="translate(816.169922 0)"/>
     <use xlink:href="#DejaVuSans-62" transform="translate(843.953125 0)"/>
     <use xlink:href="#DejaVuSans-75" transform="translate(907.429688 0)"/>
     <use xlink:href="#DejaVuSans-74" transform="translate(970.808594 0)"/>
     <use xlink:href="#DejaVuSans-69" transform="translate(1010.017578 0)"/>
     <use xlink:href="#DejaVuSans-6f" transform="translate(1037.800781 0)"/>
     <use xlink:href="#DejaVuSans-6e" transform="translate(1098.982422 0)"/>
     <use xlink:href="#DejaVuSans-20" transform="translate(1162.361328 0)"/>
     <use xlink:href="#DejaVuSans-28" transform="translate(1194.148438 0)"/>
     <use xlink:href="#DejaVuSans-34" transform="translate(1233.162109 0)"/>
     <use xlink:href="#DejaVuSans-2d" transform="translate(1296.785156 0)"/>
     <use xlink:href="#DejaVuSans-75" transform="translate(1332.869141 0)"/>
     <use xlink:href="#DejaVuSans-6e" transform="translate(1396.248047 0)"/>
     <use xlink:href="#DejaVuSans-72" transform="translate(1459.626953 0)"/>
     <use xlink:href="#DejaVuSans-6f" transform="translate(1498.490234 0)"/>
     <use xlink:href="#DejaVuSans-6c" transform="translate(1559.671875 0)"/>
     <use xlink:href="#DejaVuSans-6c" transform="translate(1587.455078 0)"/>
     <use xlink:href="#DejaVuSans-65" transform="translate(1615.238281 0)"/>
     <use xlink:href="#DejaVuSans-64" transform="translate(1676.761719 0)"/>
     <use xlink:href="#DejaVuSans-2c" transform="translate(1740.238281 0)"/>
     <use xlink:href="#DejaVuSans-20" transform="translate(1772.025391 0)"/>
     <use xlink:href="#DejaVuSans-33" transform="translate(1803.8125 0)"/>
     <use xlink:href="#DejaVuSans-20" transform="translate(1867.435547 0)"/>
     <use xlink:href="#DejaVuSans-64" transform="translate(1899.222656 0)"/>
     <use xlink:href="#DejaVuSans-65" transform="translate(1962.699219 0)"/>
     <use xlink:href="#DejaVuSans-6c" transform="translate(2024.222656 0)"/>
     <use xlink:href="#DejaVuSans-74" transform="translate(2052.005859 0)"/>
     <use xlink:href="#DejaVuSans-61" transform="translate(2091.214844 0)"/>
     <use xlink:href="#DejaVuSans-73" transform="translate(2152.494141 0)"/>
     <use xlink:href="#DejaVuSans-20" transform="translate(2204.59375 0)"/>
     <use xlink:href="#DejaVuSans-70" transform="translate(2236.380859 0)"/>
     <use xlink:href="#DejaVuSans-65" transform="translate(2299.857422 0)"/>
     <use xlink:href="#DejaVuSans-72" transform="translate(2361.380859 0)"/>
     <use xlink:href="#DejaVuSans-20" transform="translate(2402.494141 0)"/>
     <use xlink:href="#DejaVuSans-69" transform="translate(2434.28125 0)"/>
     <use xlink:href="#DejaVuSans-74" transform="translate(2462.064453 0)"/>
     <use xlink:href="#DejaVuSans-65" transform="translate(2501.273438 0)"/>
     <use xlink:href="#DejaVuSans-72" transform="translate(2562.796875 0)"/>
     <use xlink:href="#DejaVuSans-29" transform="translate(2603.910156 0)"/>
    </g>
   </g>
  </g>
 </g>
 <defs>
  <clipPath id="p1901d03892">
   <rect x="49.807188" y="22.318125" width="639.765" height="208.74"/>
  </clipPath>
 </defs>
</svg>
