<?xml version="1.0" encoding="utf-8" standalone="no"?>
<!DOCTYPE svg PUBLIC "-//W3C//DTD SVG 1.1//EN"
  "http://www.w3.org/Graphics/SVG/1.1/DTD/svg11.dtd">
<svg xmlns:xlink="http://www.w3.org/1999/xlink" width="707.339062pt" height="274.017813pt" viewBox="0 0 707.339062 274.017813" xmlns="http://www.w3.org/2000/svg" version="1.1">
 <metadata>
  <rdf:RDF xmlns:dc="http://purl.org/dc/elements/1.1/" xmlns:cc="http://creativecommons.org/ns#" xmlns:rdf="http://www.w3.org/1999/02/22-rdf-syntax-ns#">
   <cc:Work>
    <dc:type rdf:resource="http://purl.org/dc/dcmitype/StillImage"/>
    <dc:date>2026-04-30T09:04:38.111853</dc:date>
    <dc:format>image/svg+xml</dc:format>
    <dc:creator>
     <cc:Agent>
      <dc:title>Matplotlib v3.10.9, https://matplotlib.org/</dc:title>
     </cc:Agent>
    </dc:creator>
   </cc:Work>
  </rdf:RDF>
 </metadata>
 <defs>
  <style type="text/css">*{stroke-linejoin: round; stroke-linecap: butt}</style>
 </defs>
 <g id="figure_1">
  <g id="patch_1">
   <path d="M -0 274.017813 
L 707.339062 274.017813 
L 707.339062 0 
L -0 0 
z
" style="fill: #121622"/>
  </g>
  <g id="axes_1">
   <g id="patch_2">
    <path d="M 56.805938 231.058125 
L 689.640937 231.058125 
L 689.640937 22.318125 
L 56.805938 22.318125 
z
" style="fill: #121622"/>
   </g>
   <g id="matplotlib.axis_1">
    <g id="xtick_1">
     <g id="text_1">
      <!-- 0 -->
      <g style="fill: #e0e0e0" transform="translate(53.306563 248.916406) scale(0.11 -0.11)">
       <defs>
        <path id="DejaVuSans-30" d="M 2034 4250 
Q 1547 4250 1301 3770 
Q 1056 3291 1056 2328 
Q 1056 1369 1301 889 
Q 1547 409 2034 409 
Q 2525 409 2770 889 
Q 3016 1369 3016 2328 
Q 3016 3291 2770 3770 
Q 2525 4250 2034 4250 
z
M 2034 4750 
Q 2819 4750 3233 4129 
Q 3647 3509 3647 2328 
Q 3647 1150 3233 529 
Q 2819 -91 2034 -91 
Q 1250 -91 836 529 
Q 422 1150 422 2328 
Q 422 3509 836 4129 
Q 1250 4750 2034 4750 
z
" transform="scale(0.015625)"/>
       </defs>
       <use xlink:href="#DejaVuSans-30"/>
      </g>
     </g>
    </g>
    <g id="xtick_2">
     <g id="text_2">
      <!-- 20 -->
      <g style="fill: #e0e0e0" transform="translate(176.374188 248.916406) scale(0.11 -0.11)">
       <defs>
        <path id="DejaVuSans-32" d="M 1228 531 
L 3431 531 
L 3431 0 
L 469 0 
L 469 531 
Q 828 903 1448 1529 
Q 2069 2156 2228 2338 
Q 2531 2678 2651 2914 
Q 2772 3150 2772 3378 
Q 2772 3750 2511 3984 
Q 2250 4219 1831 4219 
Q 1534 4219 1204 4116 
Q 875 4013 500 3803 
L 500 4441 
Q 881 4594 1212 4672 
Q 1544 4750 1819 4750 
Q 2544 4750 2975 4387 
Q 3406 4025 3406 3419 
Q 3406 3131 3298 2873 
Q 3191 2616 2906 2266 
Q 2828 2175 2409 1742 
Q 1991 1309 1228 531 
z
" transform="scale(0.015625)"/>
       </defs>
       <use xlink:href="#DejaVuSans-32"/>
       <use xlink:href="#DejaVuSans-30" transform="translate(63.623047 0)"/>
      </g>
     </g>
    </g>
    <g id="xtick_3">
     <g id="text_3">
      <!-- 40 -->
      <g style="fill: #e0e0e0" transform="translate(302.941188 248.916406) scale(0.11 -0.11)">
       <defs>
        <path id="DejaVuSans-34" d="M 2419 4116 
L 825 1625 
L 2419 1625 
L 2419 4116 
z
M 2253 4666 
L 3047 4666 
L 3047 1625 
L 3713 1625 
L 3713 1100 
L 3047 1100 
L 3047 0 
L 2419 0 
L 2419 1100 
L 313 1100 
L 313 1709 
L 2253 4666 
z
" transform="scale(0.015625)"/>
       </defs>
       <use xlink:href="#DejaVuSans-34"/>
       <use xlink:href="#DejaVuSans-30" transform="translate(63.623047 0)"/>
      </g>
     </g>
    </g>
    <g id="xtick_4">
     <g id="text_4">
      <!-- 60 -->
      <g style="fill: #e0e0e0" transform="translate(429.508188 248.916406) scale(0.11 -0.11)">
       <defs>
        <path id="DejaVuSans-36" d="M 2113 2584 
Q 1688 2584 1439 2293 
Q 1191 2003 1191 1497 
Q 1191 994 1439 701 
Q 1688 409 2113 409 
Q 2538 409 2786 701 
Q 3034 994 3034 1497 
Q 3034 2003 2786 2293 
Q 2538 2584 2113 2584 
z
M 3366 4563 
L 3366 3988 
Q 3128 4100 2886 4159 
Q 2644 4219 2406 4219 
Q 1781 4219 1451 3797 
Q 1122 3375 1075 2522 
Q 1259 2794 1537 2939 
Q 1816 3084 2150 3084 
Q 2853 3084 3261 2657 
Q 3669 2231 3669 1497 
Q 3669 778 3244 343 
Q 2819 -91 2113 -91 
Q 1303 -91 875 529 
Q 447 1150 447 2328 
Q 447 3434 972 4092 
Q 1497 4750 2381 4750 
Q 2619 4750 2861 4703 
Q 3103 4656 3366 4563 
z
" transform="scale(0.015625)"/>
       </defs>
       <use xlink:href="#DejaVuSans-36"/>
       <use xlink:href="#DejaVuSans-30" transform="translate(63.623047 0)"/>
      </g>
     </g>
    </g>
    <g id="xtick_5">
     <g id="text_5">
      <!-- 80 -->
      <g style="fill: #e0e0e0" transform="translate(556.075187 248.916406) scale(0.11 -0.11)">
       <defs>
        <path id="DejaVuSans-38" d="M 2034 2216 
Q 1584 2216 1326 1975 
Q 1069 1734 1069 1313 
Q 1069 891 1326 650 
Q 1584 409 2034 409 
Q 2484 409 2743 651 
Q 3003 894 3003 1313 
Q 3003 1734 2745 1975 
Q 2488 2216 2034 2216 
z
M 1403 2484 
Q 997 2584 770 2862 
Q 544 3141 544 3541 
Q 544 4100 942 4425 
Q 1341 4750 2034 4750 
Q 2731 4750 3128 4425 
Q 3525 4100 3525 3541 
Q 3525 3141 3298 2862 
Q 3072 2584 2669 2484 
Q 3125 2378 3379 2068 
Q 3634 1759 3634 1313 
Q 3634 634 3220 271 
Q 2806 -91 2034 -91 
Q 1263 -91 848 271 
Q 434 634 434 1313 
Q 434 1759 690 2068 
Q 947 2378 1403 2484 
z
M 1172 3481 
Q 1172 3119 1398 2916 
Q 1625 2713 2034 2713 
Q 2441 2713 2670 2916 
Q 2900 3119 2900 3481 
Q 2900 3844 2670 4047 
Q 2441 4250 2034 4250 
Q 1625 4250 1398 4047 
Q 1172 3844 1172 3481 
z
" transform="scale(0.015625)"/>
       </defs>
       <use xlink:href="#DejaVuSans-38"/>
       <use xlink:href="#DejaVuSans-30" transform="translate(63.623047 0)"/>
      </g>
     </g>
    </g>
    <g id="xtick_6">
     <g id="text_6">
      <!-- 100 -->
      <g style="fill: #e0e0e0" transform="translate(679.142812 248.916406) scale(0.11 -0.11)">
       <defs>
        <path id="DejaVuSans-31" d="M 794 531 
L 1825 531 
L 1825 4091 
L 703 3866 
L 703 4441 
L 1819 4666 
L 2450 4666 
L 2450 531 
L 3481 531 
L 3481 0 
L 794 0 
L 794 531 
z
" transform="scale(0.015625)"/>
       </defs>
       <use xlink:href="#DejaVuSans-31"/>
       <use xlink:href="#DejaVuSans-30" transform="translate(63.623047 0)"/>
       <use xlink:href="#DejaVuSans-30" transform="translate(127.246094 0)"/>
      </g>
     </g>
    </g>
    <g id="text_7">
     <!-- Cycles between consecutive rdtsc reads -->
     <g style="fill: #e0e0e0" transform="translate(252.58875 264.322188) scale(0.12 -0.12)">
      <defs>
       <path id="DejaVuSans-43" d="M 4122 4306 
L 4122 3641 
Q 3803 3938 3442 4084 
Q 3081 4231 2675 4231 
Q 1875 4231 1450 3742 
Q 1025 3253 1025 2328 
Q 1025 1406 1450 917 
Q 1875 428 2675 428 
Q 3081 428 3442 575 
Q 3803 722 4122 1019 
L 4122 359 
Q 3791 134 3420 21 
Q 3050 -91 2638 -91 
Q 1578 -91 968 557 
Q 359 1206 359 2328 
Q 359 3453 968 4101 
Q 1578 4750 2638 4750 
Q 3056 4750 3426 4639 
Q 3797 4528 4122 4306 
z
" transform="scale(0.015625)"/>
       <path id="DejaVuSans-79" d="M 2059 -325 
Q 1816 -950 1584 -1140 
Q 1353 -1331 966 -1331 
L 506 -1331 
L 506 -850 
L 844 -850 
Q 1081 -850 1212 -737 
Q 1344 -625 1503 -206 
L 1606 56 
L 191 3500 
L 800 3500 
L 1894 763 
L 2988 3500 
L 3597 3500 
L 2059 -325 
z
" transform="scale(0.015625)"/>
       <path id="DejaVuSans-63" d="M 3122 3366 
L 3122 2828 
Q 2878 2963 2633 3030 
Q 2388 3097 2138 3097 
Q 1578 3097 1268 2742 
Q 959 2388 959 1747 
Q 959 1106 1268 751 
Q 1578 397 2138 397 
Q 2388 397 2633 464 
Q 2878 531 3122 666 
L 3122 134 
Q 2881 22 2623 -34 
Q 2366 -91 2075 -91 
Q 1284 -91 818 406 
Q 353 903 353 1747 
Q 353 2603 823 3093 
Q 1294 3584 2113 3584 
Q 2378 3584 2631 3529 
Q 2884 3475 3122 3366 
z
" transform="scale(0.015625)"/>
       <path id="DejaVuSans-6c" d="M 603 4863 
L 1178 4863 
L 1178 0 
L 603 0 
L 603 4863 
z
" transform="scale(0.015625)"/>
       <path id="DejaVuSans-65" d="M 3597 1894 
L 3597 1613 
L 953 1613 
Q 991 1019 1311 708 
Q 1631 397 2203 397 
Q 2534 397 2845 478 
Q 3156 559 3463 722 
L 3463 178 
Q 3153 47 2828 -22 
Q 2503 -91 2169 -91 
Q 1331 -91 842 396 
Q 353 884 353 1716 
Q 353 2575 817 3079 
Q 1281 3584 2069 3584 
Q 2775 3584 3186 3129 
Q 3597 2675 3597 1894 
z
M 3022 2063 
Q 3016 2534 2758 2815 
Q 2500 3097 2075 3097 
Q 1594 3097 1305 2825 
Q 1016 2553 972 2059 
L 3022 2063 
z
" transform="scale(0.015625)"/>
       <path id="DejaVuSans-73" d="M 2834 3397 
L 2834 2853 
Q 2591 2978 2328 3040 
Q 2066 3103 1784 3103 
Q 1356 3103 1142 2972 
Q 928 2841 928 2578 
Q 928 2378 1081 2264 
Q 1234 2150 1697 2047 
L 1894 2003 
Q 2506 1872 2764 1633 
Q 3022 1394 3022 966 
Q 3022 478 2636 193 
Q 2250 -91 1575 -91 
Q 1294 -91 989 -36 
Q 684 19 347 128 
L 347 722 
Q 666 556 975 473 
Q 1284 391 1588 391 
Q 1994 391 2212 530 
Q 2431 669 2431 922 
Q 2431 1156 2273 1281 
Q 2116 1406 1581 1522 
L 1381 1569 
Q 847 1681 609 1914 
Q 372 2147 372 2553 
Q 372 3047 722 3315 
Q 1072 3584 1716 3584 
Q 2034 3584 2315 3537 
Q 2597 3491 2834 3397 
z
" transform="scale(0.015625)"/>
       <path id="DejaVuSans-20" transform="scale(0.015625)"/>
       <path id="DejaVuSans-62" d="M 3116 1747 
Q 3116 2381 2855 2742 
Q 2594 3103 2138 3103 
Q 1681 3103 1420 2742 
Q 1159 2381 1159 1747 
Q 1159 1113 1420 752 
Q 1681 391 2138 391 
Q 2594 391 2855 752 
Q 3116 1113 3116 1747 
z
M 1159 2969 
Q 1341 3281 1617 3432 
Q 1894 3584 2278 3584 
Q 2916 3584 3314 3078 
Q 3713 2572 3713 1747 
Q 3713 922 3314 415 
Q 2916 -91 2278 -91 
Q 1894 -91 1617 61 
Q 1341 213 1159 525 
L 1159 0 
L 581 0 
L 581 4863 
L 1159 4863 
L 1159 2969 
z
" transform="scale(0.015625)"/>
       <path id="DejaVuSans-74" d="M 1172 4494 
L 1172 3500 
L 2356 3500 
L 2356 3053 
L 1172 3053 
L 1172 1153 
Q 1172 725 1289 603 
Q 1406 481 1766 481 
L 2356 481 
L 2356 0 
L 1766 0 
Q 1100 0 847 248 
Q 594 497 594 1153 
L 594 3053 
L 172 3053 
L 172 3500 
L 594 3500 
L 594 4494 
L 1172 4494 
z
" transform="scale(0.015625)"/>
       <path id="DejaVuSans-77" d="M 269 3500 
L 844 3500 
L 1563 769 
L 2278 3500 
L 2956 3500 
L 3675 769 
L 4391 3500 
L 4966 3500 
L 4050 0 
L 3372 0 
L 2619 2869 
L 1863 0 
L 1184 0 
L 269 3500 
z
" transform="scale(0.015625)"/>
       <path id="DejaVuSans-6e" d="M 3513 2113 
L 3513 0 
L 2938 0 
L 2938 2094 
Q 2938 2591 2744 2837 
Q 2550 3084 2163 3084 
Q 1697 3084 1428 2787 
Q 1159 2491 1159 1978 
L 1159 0 
L 581 0 
L 581 3500 
L 1159 3500 
L 1159 2956 
Q 1366 3272 1645 3428 
Q 1925 3584 2291 3584 
Q 2894 3584 3203 3211 
Q 3513 2838 3513 2113 
z
" transform="scale(0.015625)"/>
       <path id="DejaVuSans-6f" d="M 1959 3097 
Q 1497 3097 1228 2736 
Q 959 2375 959 1747 
Q 959 1119 1226 758 
Q 1494 397 1959 397 
Q 2419 397 2687 759 
Q 2956 1122 2956 1747 
Q 2956 2369 2687 2733 
Q 2419 3097 1959 3097 
z
M 1959 3584 
Q 2709 3584 3137 3096 
Q 3566 2609 3566 1747 
Q 3566 888 3137 398 
Q 2709 -91 1959 -91 
Q 1206 -91 779 398 
Q 353 888 353 1747 
Q 353 2609 779 3096 
Q 1206 3584 1959 3584 
z
" transform="scale(0.015625)"/>
       <path id="DejaVuSans-75" d="M 544 1381 
L 544 3500 
L 1119 3500 
L 1119 1403 
Q 1119 906 1312 657 
Q 1506 409 1894 409 
Q 2359 409 2629 706 
Q 2900 1003 2900 1516 
L 2900 3500 
L 3475 3500 
L 3475 0 
L 2900 0 
L 2900 538 
Q 2691 219 2414 64 
Q 2138 -91 1772 -91 
Q 1169 -91 856 284 
Q 544 659 544 1381 
z
M 1991 3584 
L 1991 3584 
z
" transform="scale(0.015625)"/>
       <path id="DejaVuSans-69" d="M 603 3500 
L 1178 3500 
L 1178 0 
L 603 0 
L 603 3500 
z
M 603 4863 
L 1178 4863 
L 1178 4134 
L 603 4134 
L 603 4863 
z
" transform="scale(0.015625)"/>
       <path id="DejaVuSans-76" d="M 191 3500 
L 800 3500 
L 1894 563 
L 2988 3500 
L 3597 3500 
L 2284 0 
L 1503 0 
L 191 3500 
z
" transform="scale(0.015625)"/>
       <path id="DejaVuSans-72" d="M 2631 2963 
Q 2534 3019 2420 3045 
Q 2306 3072 2169 3072 
Q 1681 3072 1420 2755 
Q 1159 2438 1159 1844 
L 1159 0 
L 581 0 
L 581 3500 
L 1159 3500 
L 1159 2956 
Q 1341 3275 1631 3429 
Q 1922 3584 2338 3584 
Q 2397 3584 2469 3576 
Q 2541 3569 2628 3553 
L 2631 2963 
z
" transform="scale(0.015625)"/>
       <path id="DejaVuSans-64" d="M 2906 2969 
L 2906 4863 
L 3481 4863 
L 3481 0 
L 2906 0 
L 2906 525 
Q 2725 213 2448 61 
Q 2172 -91 1784 -91 
Q 1150 -91 751 415 
Q 353 922 353 1747 
Q 353 2572 751 3078 
Q 1150 3584 1784 3584 
Q 2172 3584 2448 3432 
Q 2725 3281 2906 2969 
z
M 947 1747 
Q 947 1113 1208 752 
Q 1469 391 1925 391 
Q 2381 391 2643 752 
Q 2906 1113 2906 1747 
Q 2906 2381 2643 2742 
Q 2381 3103 1925 3103 
Q 1469 3103 1208 2742 
Q 947 2381 947 1747 
z
" transform="scale(0.015625)"/>
       <path id="DejaVuSans-61" d="M 2194 1759 
Q 1497 1759 1228 1600 
Q 959 1441 959 1056 
Q 959 750 1161 570 
Q 1363 391 1709 391 
Q 2188 391 2477 730 
Q 2766 1069 2766 1631 
L 2766 1759 
L 2194 1759 
z
M 3341 1997 
L 3341 0 
L 2766 0 
L 2766 531 
Q 2569 213 2275 61 
Q 1981 -91 1556 -91 
Q 1019 -91 701 211 
Q 384 513 384 1019 
Q 384 1609 779 1909 
Q 1175 2209 1959 2209 
L 2766 2209 
L 2766 2266 
Q 2766 2663 2505 2880 
Q 2244 3097 1772 3097 
Q 1472 3097 1187 3025 
Q 903 2953 641 2809 
L 641 3341 
Q 956 3463 1253 3523 
Q 1550 3584 1831 3584 
Q 2591 3584 2966 3190 
Q 3341 2797 3341 1997 
z
" transform="scale(0.015625)"/>
      </defs>
      <use xlink:href="#DejaVuSans-43"/>
      <use xlink:href="#DejaVuSans-79" transform="translate(69.824219 0)"/>
      <use xlink:href="#DejaVuSans-63" transform="translate(129.003906 0)"/>
      <use xlink:href="#DejaVuSans-6c" transform="translate(183.984375 0)"/>
      <use xlink:href="#DejaVuSans-65" transform="translate(211.767578 0)"/>
      <use xlink:href="#DejaVuSans-73" transform="translate(273.291016 0)"/>
      <use xlink:href="#DejaVuSans-20" transform="translate(325.390625 0)"/>
      <use xlink:href="#DejaVuSans-62" transform="translate(357.177734 0)"/>
      <use xlink:href="#DejaVuSans-65" transform="translate(420.654297 0)"/>
      <use xlink:href="#DejaVuSans-74" transform="translate(482.177734 0)"/>
      <use xlink:href="#DejaVuSans-77" transform="translate(521.386719 0)"/>
      <use xlink:href="#DejaVuSans-65" transform="translate(603.173828 0)"/>
      <use xlink:href="#DejaVuSans-65" transform="translate(664.697266 0)"/>
      <use xlink:href="#DejaVuSans-6e" transform="translate(726.220703 0)"/>
      <use xlink:href="#DejaVuSans-20" transform="translate(789.599609 0)"/>
      <use xlink:href="#DejaVuSans-63" transform="translate(821.386719 0)"/>
      <use xlink:href="#DejaVuSans-6f" transform="translate(876.367188 0)"/>
      <use xlink:href="#DejaVuSans-6e" transform="translate(937.548828 0)"/>
      <use xlink:href="#DejaVuSans-73" transform="translate(1000.927734 0)"/>
      <use xlink:href="#DejaVuSans-65" transform="translate(1053.027344 0)"/>
      <use xlink:href="#DejaVuSans-63" transform="translate(1114.550781 0)"/>
      <use xlink:href="#DejaVuSans-75" transform="translate(1169.53125 0)"/>
      <use xlink:href="#DejaVuSans-74" transform="translate(1232.910156 0)"/>
      <use xlink:href="#DejaVuSans-69" transform="translate(1272.119141 0)"/>
      <use xlink:href="#DejaVuSans-76" transform="translate(1299.902344 0)"/>
      <use xlink:href="#DejaVuSans-65" transform="translate(1359.082031 0)"/>
      <use xlink:href="#DejaVuSans-20" transform="translate(1420.605469 0)"/>
      <use xlink:href="#DejaVuSans-72" transform="translate(1452.392578 0)"/>
      <use xlink:href="#DejaVuSans-64" transform="translate(1491.755859 0)"/>
      <use xlink:href="#DejaVuSans-74" transform="translate(1555.232422 0)"/>
      <use xlink:href="#DejaVuSans-73" transform="translate(1594.441406 0)"/>
      <use xlink:href="#DejaVuSans-63" transform="translate(1646.541016 0)"/>
      <use xlink:href="#DejaVuSans-20" transform="translate(1701.521484 0)"/>
      <use xlink:href="#DejaVuSans-72" transform="translate(1733.308594 0)"/>
      <use xlink:href="#DejaVuSans-65" transform="translate(1772.171875 0)"/>
      <use xlink:href="#DejaVuSans-61" transform="translate(1833.695312 0)"/>
      <use xlink:href="#DejaVuSans-64" transform="translate(1894.974609 0)"/>
      <use xlink:href="#DejaVuSans-73" transform="translate(1958.451172 0)"/>
     </g>
    </g>
   </g>
   <g id="matplotlib.axis_2">
    <g id="ytick_1">
     <g id="line2d_1">
      <path d="M 56.805938 231.058125 
L 689.640937 231.058125 
" clip-path="url(#pa1cb41e364)" style="fill: none; stroke: #30333e; stroke-width: 0.5; stroke-linecap: round"/>
     </g>
     <g id="text_8">
      <!-- 0.00 -->
      <g style="fill: #e0e0e0" transform="translate(22.81375 235.237266) scale(0.11 -0.11)">
       <defs>
        <path id="DejaVuSans-2e" d="M 684 794 
L 1344 794 
L 1344 0 
L 684 0 
L 684 794 
z
" transform="scale(0.015625)"/>
       </defs>
       <use xlink:href="#DejaVuSans-30"/>
       <use xlink:href="#DejaVuSans-2e" transform="translate(63.623047 0)"/>
       <use xlink:href="#DejaVuSans-30" transform="translate(95.410156 0)"/>
       <use xlink:href="#DejaVuSans-30" transform="translate(159.033203 0)"/>
      </g>
     </g>
    </g>
    <g id="ytick_2">
     <g id="line2d_2">
      <path d="M 56.805938 201.305663 
L 689.640937 201.305663 
" clip-path="url(#pa1cb41e364)" style="fill: none; stroke: #30333e; stroke-width: 0.5; stroke-linecap: round"/>
     </g>
     <g id="text_9">
      <!-- 0.05 -->
      <g style="fill: #e0e0e0" transform="translate(22.81375 205.484804) scale(0.11 -0.11)">
       <defs>
        <path id="DejaVuSans-35" d="M 691 4666 
L 3169 4666 
L 3169 4134 
L 1269 4134 
L 1269 2991 
Q 1406 3038 1543 3061 
Q 1681 3084 1819 3084 
Q 2600 3084 3056 2656 
Q 3513 2228 3513 1497 
Q 3513 744 3044 326 
Q 2575 -91 1722 -91 
Q 1428 -91 1123 -41 
Q 819 9 494 109 
L 494 744 
Q 775 591 1075 516 
Q 1375 441 1709 441 
Q 2250 441 2565 725 
Q 2881 1009 2881 1497 
Q 2881 1984 2565 2268 
Q 2250 2553 1709 2553 
Q 1456 2553 1204 2497 
Q 953 2441 691 2322 
L 691 4666 
z
" transform="scale(0.015625)"/>
       </defs>
       <use xlink:href="#DejaVuSans-30"/>
       <use xlink:href="#DejaVuSans-2e" transform="translate(63.623047 0)"/>
       <use xlink:href="#DejaVuSans-30" transform="translate(95.410156 0)"/>
       <use xlink:href="#DejaVuSans-35" transform="translate(159.033203 0)"/>
      </g>
     </g>
    </g>
    <g id="ytick_3">
     <g id="line2d_3">
      <path d="M 56.805938 171.553201 
L 689.640937 171.553201 
" clip-path="url(#pa1cb41e364)" style="fill: none; stroke: #30333e; stroke-width: 0.5; stroke-linecap: round"/>
     </g>
     <g id="text_10">
      <!-- 0.10 -->
      <g style="fill: #e0e0e0" transform="translate(22.81375 175.732342) scale(0.11 -0.11)">
       <use xlink:href="#DejaVuSans-30"/>
       <use xlink:href="#DejaVuSans-2e" transform="translate(63.623047 0)"/>
       <use xlink:href="#DejaVuSans-31" transform="translate(95.410156 0)"/>
       <use xlink:href="#DejaVuSans-30" transform="translate(159.033203 0)"/>
      </g>
     </g>
    </g>
    <g id="ytick_4">
     <g id="line2d_4">
      <path d="M 56.805938 141.800739 
L 689.640937 141.800739 
" clip-path="url(#pa1cb41e364)" style="fill: none; stroke: #30333e; stroke-width: 0.5; stroke-linecap: round"/>
     </g>
     <g id="text_11">
      <!-- 0.15 -->
      <g style="fill: #e0e0e0" transform="translate(22.81375 145.97988) scale(0.11 -0.11)">
       <use xlink:href="#DejaVuSans-30"/>
       <use xlink:href="#DejaVuSans-2e" transform="translate(63.623047 0)"/>
       <use xlink:href="#DejaVuSans-31" transform="translate(95.410156 0)"/>
       <use xlink:href="#DejaVuSans-35" transform="translate(159.033203 0)"/>
      </g>
     </g>
    </g>
    <g id="ytick_5">
     <g id="line2d_5">
      <path d="M 56.805938 112.048277 
L 689.640937 112.048277 
" clip-path="url(#pa1cb41e364)" style="fill: none; stroke: #30333e; stroke-width: 0.5; stroke-linecap: round"/>
     </g>
     <g id="text_12">
      <!-- 0.20 -->
      <g style="fill: #e0e0e0" transform="translate(22.81375 116.227418) scale(0.11 -0.11)">
       <use xlink:href="#DejaVuSans-30"/>
       <use xlink:href="#DejaVuSans-2e" transform="translate(63.623047 0)"/>
       <use xlink:href="#DejaVuSans-32" transform="translate(95.410156 0)"/>
       <use xlink:href="#DejaVuSans-30" transform="translate(159.033203 0)"/>
      </g>
     </g>
    </g>
    <g id="ytick_6">
     <g id="line2d_6">
      <path d="M 56.805938 82.295815 
L 689.640937 82.295815 
" clip-path="url(#pa1cb41e364)" style="fill: none; stroke: #30333e; stroke-width: 0.5; stroke-linecap: round"/>
     </g>
     <g id="text_13">
      <!-- 0.25 -->
      <g style="fill: #e0e0e0" transform="translate(22.81375 86.474956) scale(0.11 -0.11)">
       <use xlink:href="#DejaVuSans-30"/>
       <use xlink:href="#DejaVuSans-2e" transform="translate(63.623047 0)"/>
       <use xlink:href="#DejaVuSans-32" transform="translate(95.410156 0)"/>
       <use xlink:href="#DejaVuSans-35" transform="translate(159.033203 0)"/>
      </g>
     </g>
    </g>
    <g id="ytick_7">
     <g id="line2d_7">
      <path d="M 56.805938 52.543354 
L 689.640937 52.543354 
" clip-path="url(#pa1cb41e364)" style="fill: none; stroke: #30333e; stroke-width: 0.5; stroke-linecap: round"/>
     </g>
     <g id="text_14">
      <!-- 0.30 -->
      <g style="fill: #e0e0e0" transform="translate(22.81375 56.722494) scale(0.11 -0.11)">
       <defs>
        <path id="DejaVuSans-33" d="M 2597 2516 
Q 3050 2419 3304 2112 
Q 3559 1806 3559 1356 
Q 3559 666 3084 287 
Q 2609 -91 1734 -91 
Q 1441 -91 1130 -33 
Q 819 25 488 141 
L 488 750 
Q 750 597 1062 519 
Q 1375 441 1716 441 
Q 2309 441 2620 675 
Q 2931 909 2931 1356 
Q 2931 1769 2642 2001 
Q 2353 2234 1838 2234 
L 1294 2234 
L 1294 2753 
L 1863 2753 
Q 2328 2753 2575 2939 
Q 2822 3125 2822 3475 
Q 2822 3834 2567 4026 
Q 2313 4219 1838 4219 
Q 1578 4219 1281 4162 
Q 984 4106 628 3988 
L 628 4550 
Q 988 4650 1302 4700 
Q 1616 4750 1894 4750 
Q 2613 4750 3031 4423 
Q 3450 4097 3450 3541 
Q 3450 3153 3228 2886 
Q 3006 2619 2597 2516 
z
" transform="scale(0.015625)"/>
       </defs>
       <use xlink:href="#DejaVuSans-30"/>
       <use xlink:href="#DejaVuSans-2e" transform="translate(63.623047 0)"/>
       <use xlink:href="#DejaVuSans-33" transform="translate(95.410156 0)"/>
       <use xlink:href="#DejaVuSans-30" transform="translate(159.033203 0)"/>
      </g>
     </g>
    </g>
    <g id="ytick_8">
     <g id="line2d_8">
      <path d="M 56.805938 22.790892 
L 689.640937 22.790892 
" clip-path="url(#pa1cb41e364)" style="fill: none; stroke: #30333e; stroke-width: 0.5; stroke-linecap: round"/>
     </g>
     <g id="text_15">
      <!-- 0.35 -->
      <g style="fill: #e0e0e0" transform="translate(22.81375 26.970032) scale(0.11 -0.11)">
       <use xlink:href="#DejaVuSans-30"/>
       <use xlink:href="#DejaVuSans-2e" transform="translate(63.623047 0)"/>
       <use xlink:href="#DejaVuSans-33" transform="translate(95.410156 0)"/>
       <use xlink:href="#DejaVuSans-35" transform="translate(159.033203 0)"/>
      </g>
     </g>
    </g>
    <g id="text_16">
     <!-- Relative frequency -->
     <g style="fill: #e0e0e0" transform="translate(16.318125 182.88375) rotate(-90) scale(0.12 -0.12)">
      <defs>
       <path id="DejaVuSans-52" d="M 2841 2188 
Q 3044 2119 3236 1894 
Q 3428 1669 3622 1275 
L 4263 0 
L 3584 0 
L 2988 1197 
Q 2756 1666 2539 1819 
Q 2322 1972 1947 1972 
L 1259 1972 
L 1259 0 
L 628 0 
L 628 4666 
L 2053 4666 
Q 2853 4666 3247 4331 
Q 3641 3997 3641 3322 
Q 3641 2881 3436 2590 
Q 3231 2300 2841 2188 
z
M 1259 4147 
L 1259 2491 
L 2053 2491 
Q 2509 2491 2742 2702 
Q 2975 2913 2975 3322 
Q 2975 3731 2742 3939 
Q 2509 4147 2053 4147 
L 1259 4147 
z
" transform="scale(0.015625)"/>
       <path id="DejaVuSans-66" d="M 2375 4863 
L 2375 4384 
L 1825 4384 
Q 1516 4384 1395 4259 
Q 1275 4134 1275 3809 
L 1275 3500 
L 2222 3500 
L 2222 3053 
L 1275 3053 
L 1275 0 
L 697 0 
L 697 3053 
L 147 3053 
L 147 3500 
L 697 3500 
L 697 3744 
Q 697 4328 969 4595 
Q 1241 4863 1831 4863 
L 2375 4863 
z
" transform="scale(0.015625)"/>
       <path id="DejaVuSans-71" d="M 947 1747 
Q 947 1113 1208 752 
Q 1469 391 1925 391 
Q 2381 391 2643 752 
Q 2906 1113 2906 1747 
Q 2906 2381 2643 2742 
Q 2381 3103 1925 3103 
Q 1469 3103 1208 2742 
Q 947 2381 947 1747 
z
M 2906 525 
Q 2725 213 2448 61 
Q 2172 -91 1784 -91 
Q 1150 -91 751 415 
Q 353 922 353 1747 
Q 353 2572 751 3078 
Q 1150 3584 1784 3584 
Q 2172 3584 2448 3432 
Q 2725 3281 2906 2969 
L 2906 3500 
L 3481 3500 
L 3481 -1331 
L 2906 -1331 
L 2906 525 
z
" transform="scale(0.015625)"/>
      </defs>
      <use xlink:href="#DejaVuSans-52"/>
      <use xlink:href="#DejaVuSans-65" transform="translate(64.982422 0)"/>
      <use xlink:href="#DejaVuSans-6c" transform="translate(126.505859 0)"/>
      <use xlink:href="#DejaVuSans-61" transform="translate(154.289062 0)"/>
      <use xlink:href="#DejaVuSans-74" transform="translate(215.568359 0)"/>
      <use xlink:href="#DejaVuSans-69" transform="translate(254.777344 0)"/>
      <use xlink:href="#DejaVuSans-76" transform="translate(282.560547 0)"/>
      <use xlink:href="#DejaVuSans-65" transform="translate(341.740234 0)"/>
      <use xlink:href="#DejaVuSans-20" transform="translate(403.263672 0)"/>
      <use xlink:href="#DejaVuSans-66" transform="translate(435.050781 0)"/>
      <use xlink:href="#DejaVuSans-72" transform="translate(470.255859 0)"/>
      <use xlink:href="#DejaVuSans-65" transform="translate(509.119141 0)"/>
      <use xlink:href="#DejaVuSans-71" transform="translate(570.642578 0)"/>
      <use xlink:href="#DejaVuSans-75" transform="translate(634.119141 0)"/>
      <use xlink:href="#DejaVuSans-65" transform="translate(697.498047 0)"/>
      <use xlink:href="#DejaVuSans-6e" transform="translate(759.021484 0)"/>
      <use xlink:href="#DejaVuSans-63" transform="translate(822.400391 0)"/>
      <use xlink:href="#DejaVuSans-79" transform="translate(877.380859 0)"/>
     </g>
    </g>
   </g>
   <g id="patch_3">
    <path d="M 56.805938 231.058125 
L 63.134288 231.058125 
L 63.134288 231.058125 
L 56.805938 231.058125 
z
" clip-path="url(#pa1cb41e364)" style="fill: #ec407a; stroke: #121622; stroke-width: 0.5; stroke-linejoin: miter"/>
   </g>
   <g id="patch_4">
    <path d="M 63.134288 231.058125 
L 69.462637 231.058125 
L 69.462637 32.757966 
L 63.134288 32.757966 
z
" clip-path="url(#pa1cb41e364)" style="fill: #ec407a; stroke: #121622; stroke-width: 0.5; stroke-linejoin: miter"/>
   </g>
   <g id="patch_5">
    <path d="M 69.462637 231.058125 
L 75.790987 231.058125 
L 75.790987 231.058125 
L 69.462637 231.058125 
z
" clip-path="url(#pa1cb41e364)" style="fill: #ec407a; stroke: #121622; stroke-width: 0.5; stroke-linejoin: miter"/>
   </g>
   <g id="patch_6">
    <path d="M 75.790987 231.058125 
L 82.119338 231.058125 
L 82.119338 231.058125 
L 75.790987 231.058125 
z
" clip-path="url(#pa1cb41e364)" style="fill: #ec407a; stroke: #121622; stroke-width: 0.5; stroke-linejoin: miter"/>
   </g>
   <g id="patch_7">
    <path d="M 82.119338 231.058125 
L 88.447688 231.058125 
L 88.447688 231.058125 
L 82.119338 231.058125 
z
" clip-path="url(#pa1cb41e364)" style="fill: #ec407a; stroke: #121622; stroke-width: 0.5; stroke-linejoin: miter"/>
   </g>
   <g id="patch_8">
    <path d="M 88.447688 231.058125 
L 94.776038 231.058125 
L 94.776038 231.058125 
L 88.447688 231.058125 
z
" clip-path="url(#pa1cb41e364)" style="fill: #ec407a; stroke: #121622; stroke-width: 0.5; stroke-linejoin: miter"/>
   </g>
   <g id="patch_9">
    <path d="M 94.776038 231.058125 
L 101.104388 231.058125 
L 101.104388 231.058125 
L 94.776038 231.058125 
z
" clip-path="url(#pa1cb41e364)" style="fill: #ec407a; stroke: #121622; stroke-width: 0.5; stroke-linejoin: miter"/>
   </g>
   <g id="patch_10">
    <path d="M 101.104388 231.058125 
L 107.432738 231.058125 
L 107.432738 231.058125 
L 101.104388 231.058125 
z
" clip-path="url(#pa1cb41e364)" style="fill: #ec407a; stroke: #121622; stroke-width: 0.5; stroke-linejoin: miter"/>
   </g>
   <g id="patch_11">
    <path d="M 107.432738 231.058125 
L 113.761088 231.058125 
L 113.761088 231.058125 
L 107.432738 231.058125 
z
" clip-path="url(#pa1cb41e364)" style="fill: #ec407a; stroke: #121622; stroke-width: 0.5; stroke-linejoin: miter"/>
   </g>
   <g id="patch_12">
    <path d="M 113.761088 231.058125 
L 120.089438 231.058125 
L 120.089438 231.058125 
L 113.761088 231.058125 
z
" clip-path="url(#pa1cb41e364)" style="fill: #ec407a; stroke: #121622; stroke-width: 0.5; stroke-linejoin: miter"/>
   </g>
   <g id="patch_13">
    <path d="M 120.089438 231.058125 
L 126.417788 231.058125 
L 126.417788 231.058125 
L 120.089438 231.058125 
z
" clip-path="url(#pa1cb41e364)" style="fill: #ec407a; stroke: #121622; stroke-width: 0.5; stroke-linejoin: miter"/>
   </g>
   <g id="patch_14">
    <path d="M 126.417788 231.058125 
L 132.746138 231.058125 
L 132.746138 231.058125 
L 126.417788 231.058125 
z
" clip-path="url(#pa1cb41e364)" style="fill: #ec407a; stroke: #121622; stroke-width: 0.5; stroke-linejoin: miter"/>
   </g>
   <g id="patch_15">
    <path d="M 132.746138 231.058125 
L 139.074488 231.058125 
L 139.074488 231.058125 
L 132.746138 231.058125 
z
" clip-path="url(#pa1cb41e364)" style="fill: #ec407a; stroke: #121622; stroke-width: 0.5; stroke-linejoin: miter"/>
   </g>
   <g id="patch_16">
    <path d="M 139.074488 231.058125 
L 145.402838 231.058125 
L 145.402838 231.058125 
L 139.074488 231.058125 
z
" clip-path="url(#pa1cb41e364)" style="fill: #ec407a; stroke: #121622; stroke-width: 0.5; stroke-linejoin: miter"/>
   </g>
   <g id="patch_17">
    <path d="M 145.402838 231.058125 
L 151.731188 231.058125 
L 151.731188 231.058125 
L 145.402838 231.058125 
z
" clip-path="url(#pa1cb41e364)" style="fill: #ec407a; stroke: #121622; stroke-width: 0.5; stroke-linejoin: miter"/>
   </g>
   <g id="patch_18">
    <path d="M 151.731188 231.058125 
L 158.059538 231.058125 
L 158.059538 231.058125 
L 151.731188 231.058125 
z
" clip-path="url(#pa1cb41e364)" style="fill: #ec407a; stroke: #121622; stroke-width: 0.5; stroke-linejoin: miter"/>
   </g>
   <g id="patch_19">
    <path d="M 158.059538 231.058125 
L 164.387888 231.058125 
L 164.387888 231.058125 
L 158.059538 231.058125 
z
" clip-path="url(#pa1cb41e364)" style="fill: #ec407a; stroke: #121622; stroke-width: 0.5; stroke-linejoin: miter"/>
   </g>
   <g id="patch_20">
    <path d="M 164.387888 231.058125 
L 170.716238 231.058125 
L 170.716238 231.058125 
L 164.387888 231.058125 
z
" clip-path="url(#pa1cb41e364)" style="fill: #ec407a; stroke: #121622; stroke-width: 0.5; stroke-linejoin: miter"/>
   </g>
   <g id="patch_21">
    <path d="M 170.716238 231.058125 
L 177.044588 231.058125 
L 177.044588 231.058125 
L 170.716238 231.058125 
z
" clip-path="url(#pa1cb41e364)" style="fill: #ec407a; stroke: #121622; stroke-width: 0.5; stroke-linejoin: miter"/>
   </g>
   <g id="patch_22">
    <path d="M 177.044588 231.058125 
L 183.372938 231.058125 
L 183.372938 231.058125 
L 177.044588 231.058125 
z
" clip-path="url(#pa1cb41e364)" style="fill: #ec407a; stroke: #121622; stroke-width: 0.5; stroke-linejoin: miter"/>
   </g>
   <g id="patch_23">
    <path d="M 183.372938 231.058125 
L 189.701288 231.058125 
L 189.701288 231.058125 
L 183.372938 231.058125 
z
" clip-path="url(#pa1cb41e364)" style="fill: #ec407a; stroke: #121622; stroke-width: 0.5; stroke-linejoin: miter"/>
   </g>
   <g id="patch_24">
    <path d="M 189.701287 231.058125 
L 196.029637 231.058125 
L 196.029637 231.058125 
L 189.701287 231.058125 
z
" clip-path="url(#pa1cb41e364)" style="fill: #ec407a; stroke: #121622; stroke-width: 0.5; stroke-linejoin: miter"/>
   </g>
   <g id="patch_25">
    <path d="M 196.029637 231.058125 
L 202.357987 231.058125 
L 202.357987 231.058125 
L 196.029637 231.058125 
z
" clip-path="url(#pa1cb41e364)" style="fill: #ec407a; stroke: #121622; stroke-width: 0.5; stroke-linejoin: miter"/>
   </g>
   <g id="patch_26">
    <path d="M 202.357987 231.058125 
L 208.686337 231.058125 
L 208.686337 231.058125 
L 202.357987 231.058125 
z
" clip-path="url(#pa1cb41e364)" style="fill: #ec407a; stroke: #121622; stroke-width: 0.5; stroke-linejoin: miter"/>
   </g>
   <g id="patch_27">
    <path d="M 208.686337 231.058125 
L 215.014687 231.058125 
L 215.014687 231.058125 
L 208.686337 231.058125 
z
" clip-path="url(#pa1cb41e364)" style="fill: #ec407a; stroke: #121622; stroke-width: 0.5; stroke-linejoin: miter"/>
   </g>
   <g id="patch_28">
    <path d="M 215.014687 231.058125 
L 221.343037 231.058125 
L 221.343037 231.058125 
L 215.014687 231.058125 
z
" clip-path="url(#pa1cb41e364)" style="fill: #ec407a; stroke: #121622; stroke-width: 0.5; stroke-linejoin: miter"/>
   </g>
   <g id="patch_29">
    <path d="M 221.343037 231.058125 
L 227.671387 231.058125 
L 227.671387 231.058125 
L 221.343037 231.058125 
z
" clip-path="url(#pa1cb41e364)" style="fill: #ec407a; stroke: #121622; stroke-width: 0.5; stroke-linejoin: miter"/>
   </g>
   <g id="patch_30">
    <path d="M 227.671387 231.058125 
L 233.999737 231.058125 
L 233.999737 231.058125 
L 227.671387 231.058125 
z
" clip-path="url(#pa1cb41e364)" style="fill: #ec407a; stroke: #121622; stroke-width: 0.5; stroke-linejoin: miter"/>
   </g>
   <g id="patch_31">
    <path d="M 233.999737 231.058125 
L 240.328087 231.058125 
L 240.328087 231.058125 
L 233.999737 231.058125 
z
" clip-path="url(#pa1cb41e364)" style="fill: #ec407a; stroke: #121622; stroke-width: 0.5; stroke-linejoin: miter"/>
   </g>
   <g id="patch_32">
    <path d="M 240.328087 231.058125 
L 246.656437 231.058125 
L 246.656437 231.058125 
L 240.328087 231.058125 
z
" clip-path="url(#pa1cb41e364)" style="fill: #ec407a; stroke: #121622; stroke-width: 0.5; stroke-linejoin: miter"/>
   </g>
   <g id="patch_33">
    <path d="M 246.656437 231.058125 
L 252.984787 231.058125 
L 252.984787 231.058125 
L 246.656437 231.058125 
z
" clip-path="url(#pa1cb41e364)" style="fill: #ec407a; stroke: #121622; stroke-width: 0.5; stroke-linejoin: miter"/>
   </g>
   <g id="patch_34">
    <path d="M 252.984787 231.058125 
L 259.313137 231.058125 
L 259.313137 231.058125 
L 252.984787 231.058125 
z
" clip-path="url(#pa1cb41e364)" style="fill: #ec407a; stroke: #121622; stroke-width: 0.5; stroke-linejoin: miter"/>
   </g>
   <g id="patch_35">
    <path d="M 259.313137 231.058125 
L 265.641487 231.058125 
L 265.641487 231.058125 
L 259.313137 231.058125 
z
" clip-path="url(#pa1cb41e364)" style="fill: #ec407a; stroke: #121622; stroke-width: 0.5; stroke-linejoin: miter"/>
   </g>
   <g id="patch_36">
    <path d="M 265.641487 231.058125 
L 271.969837 231.058125 
L 271.969837 231.058125 
L 265.641487 231.058125 
z
" clip-path="url(#pa1cb41e364)" style="fill: #ec407a; stroke: #121622; stroke-width: 0.5; stroke-linejoin: miter"/>
   </g>
   <g id="patch_37">
    <path d="M 271.969837 231.058125 
L 278.298187 231.058125 
L 278.298187 231.058125 
L 271.969837 231.058125 
z
" clip-path="url(#pa1cb41e364)" style="fill: #ec407a; stroke: #121622; stroke-width: 0.5; stroke-linejoin: miter"/>
   </g>
   <g id="patch_38">
    <path d="M 278.298187 231.058125 
L 284.626537 231.058125 
L 284.626537 231.058125 
L 278.298187 231.058125 
z
" clip-path="url(#pa1cb41e364)" style="fill: #ec407a; stroke: #121622; stroke-width: 0.5; stroke-linejoin: miter"/>
   </g>
   <g id="patch_39">
    <path d="M 284.626537 231.058125 
L 290.954887 231.058125 
L 290.954887 231.058125 
L 284.626537 231.058125 
z
" clip-path="url(#pa1cb41e364)" style="fill: #ec407a; stroke: #121622; stroke-width: 0.5; stroke-linejoin: miter"/>
   </g>
   <g id="patch_40">
    <path d="M 290.954887 231.058125 
L 297.283237 231.058125 
L 297.283237 231.058125 
L 290.954887 231.058125 
z
" clip-path="url(#pa1cb41e364)" style="fill: #ec407a; stroke: #121622; stroke-width: 0.5; stroke-linejoin: miter"/>
   </g>
   <g id="patch_41">
    <path d="M 297.283237 231.058125 
L 303.611587 231.058125 
L 303.611587 231.058125 
L 297.283237 231.058125 
z
" clip-path="url(#pa1cb41e364)" style="fill: #ec407a; stroke: #121622; stroke-width: 0.5; stroke-linejoin: miter"/>
   </g>
   <g id="patch_42">
    <path d="M 303.611587 231.058125 
L 309.939937 231.058125 
L 309.939937 231.058125 
L 303.611587 231.058125 
z
" clip-path="url(#pa1cb41e364)" style="fill: #ec407a; stroke: #121622; stroke-width: 0.5; stroke-linejoin: miter"/>
   </g>
   <g id="patch_43">
    <path d="M 309.939937 231.058125 
L 316.268287 231.058125 
L 316.268287 231.058125 
L 309.939937 231.058125 
z
" clip-path="url(#pa1cb41e364)" style="fill: #ec407a; stroke: #121622; stroke-width: 0.5; stroke-linejoin: miter"/>
   </g>
   <g id="patch_44">
    <path d="M 316.268287 231.058125 
L 322.596637 231.058125 
L 322.596637 33.109045 
L 316.268287 33.109045 
z
" clip-path="url(#pa1cb41e364)" style="fill: #ec407a; stroke: #121622; stroke-width: 0.5; stroke-linejoin: miter"/>
   </g>
   <g id="patch_45">
    <path d="M 322.596637 231.058125 
L 328.924987 231.058125 
L 328.924987 32.258125 
L 322.596637 32.258125 
z
" clip-path="url(#pa1cb41e364)" style="fill: #ec407a; stroke: #121622; stroke-width: 0.5; stroke-linejoin: miter"/>
   </g>
   <g id="patch_46">
    <path d="M 328.924987 231.058125 
L 335.253337 231.058125 
L 335.253337 231.058125 
L 328.924987 231.058125 
z
" clip-path="url(#pa1cb41e364)" style="fill: #ec407a; stroke: #121622; stroke-width: 0.5; stroke-linejoin: miter"/>
   </g>
   <g id="patch_47">
    <path d="M 335.253337 231.058125 
L 341.581687 231.058125 
L 341.581687 231.058125 
L 335.253337 231.058125 
z
" clip-path="url(#pa1cb41e364)" style="fill: #ec407a; stroke: #121622; stroke-width: 0.5; stroke-linejoin: miter"/>
   </g>
   <g id="patch_48">
    <path d="M 341.581687 231.058125 
L 347.910037 231.058125 
L 347.910037 231.058125 
L 341.581687 231.058125 
z
" clip-path="url(#pa1cb41e364)" style="fill: #ec407a; stroke: #121622; stroke-width: 0.5; stroke-linejoin: miter"/>
   </g>
   <g id="patch_49">
    <path d="M 347.910037 231.058125 
L 354.238387 231.058125 
L 354.238387 231.058125 
L 347.910037 231.058125 
z
" clip-path="url(#pa1cb41e364)" style="fill: #ec407a; stroke: #121622; stroke-width: 0.5; stroke-linejoin: miter"/>
   </g>
   <g id="patch_50">
    <path d="M 354.238387 231.058125 
L 360.566737 231.058125 
L 360.566737 231.058125 
L 354.238387 231.058125 
z
" clip-path="url(#pa1cb41e364)" style="fill: #ec407a; stroke: #121622; stroke-width: 0.5; stroke-linejoin: miter"/>
   </g>
   <g id="patch_51">
    <path d="M 360.566737 231.058125 
L 366.895087 231.058125 
L 366.895087 231.058125 
L 360.566737 231.058125 
z
" clip-path="url(#pa1cb41e364)" style="fill: #ec407a; stroke: #121622; stroke-width: 0.5; stroke-linejoin: miter"/>
   </g>
   <g id="patch_52">
    <path d="M 366.895087 231.058125 
L 373.223437 231.058125 
L 373.223437 231.058125 
L 366.895087 231.058125 
z
" clip-path="url(#pa1cb41e364)" style="fill: #ec407a; stroke: #121622; stroke-width: 0.5; stroke-linejoin: miter"/>
   </g>
   <g id="patch_53">
    <path d="M 373.223437 231.058125 
L 379.551787 231.058125 
L 379.551787 231.058125 
L 373.223437 231.058125 
z
" clip-path="url(#pa1cb41e364)" style="fill: #ec407a; stroke: #121622; stroke-width: 0.5; stroke-linejoin: miter"/>
   </g>
   <g id="patch_54">
    <path d="M 379.551787 231.058125 
L 385.880137 231.058125 
L 385.880137 231.058125 
L 379.551787 231.058125 
z
" clip-path="url(#pa1cb41e364)" style="fill: #ec407a; stroke: #121622; stroke-width: 0.5; stroke-linejoin: miter"/>
   </g>
   <g id="patch_55">
    <path d="M 385.880137 231.058125 
L 392.208487 231.058125 
L 392.208487 231.058125 
L 385.880137 231.058125 
z
" clip-path="url(#pa1cb41e364)" style="fill: #ec407a; stroke: #121622; stroke-width: 0.5; stroke-linejoin: miter"/>
   </g>
   <g id="patch_56">
    <path d="M 392.208487 231.058125 
L 398.536837 231.058125 
L 398.536837 231.058125 
L 392.208487 231.058125 
z
" clip-path="url(#pa1cb41e364)" style="fill: #ec407a; stroke: #121622; stroke-width: 0.5; stroke-linejoin: miter"/>
   </g>
   <g id="patch_57">
    <path d="M 398.536837 231.058125 
L 404.865187 231.058125 
L 404.865187 231.058125 
L 398.536837 231.058125 
z
" clip-path="url(#pa1cb41e364)" style="fill: #ec407a; stroke: #121622; stroke-width: 0.5; stroke-linejoin: miter"/>
   </g>
   <g id="patch_58">
    <path d="M 404.865187 231.058125 
L 411.193537 231.058125 
L 411.193537 231.058125 
L 404.865187 231.058125 
z
" clip-path="url(#pa1cb41e364)" style="fill: #ec407a; stroke: #121622; stroke-width: 0.5; stroke-linejoin: miter"/>
   </g>
   <g id="patch_59">
    <path d="M 411.193537 231.058125 
L 417.521887 231.058125 
L 417.521887 231.058125 
L 411.193537 231.058125 
z
" clip-path="url(#pa1cb41e364)" style="fill: #ec407a; stroke: #121622; stroke-width: 0.5; stroke-linejoin: miter"/>
   </g>
   <g id="patch_60">
    <path d="M 417.521887 231.058125 
L 423.850237 231.058125 
L 423.850237 231.058125 
L 417.521887 231.058125 
z
" clip-path="url(#pa1cb41e364)" style="fill: #ec407a; stroke: #121622; stroke-width: 0.5; stroke-linejoin: miter"/>
   </g>
   <g id="patch_61">
    <path d="M 423.850237 231.058125 
L 430.178587 231.058125 
L 430.178587 231.058125 
L 423.850237 231.058125 
z
" clip-path="url(#pa1cb41e364)" style="fill: #ec407a; stroke: #121622; stroke-width: 0.5; stroke-linejoin: miter"/>
   </g>
   <g id="patch_62">
    <path d="M 430.178587 231.058125 
L 436.506937 231.058125 
L 436.506937 231.058125 
L 430.178587 231.058125 
z
" clip-path="url(#pa1cb41e364)" style="fill: #ec407a; stroke: #121622; stroke-width: 0.5; stroke-linejoin: miter"/>
   </g>
   <g id="patch_63">
    <path d="M 436.506937 231.058125 
L 442.835287 231.058125 
L 442.835287 231.058125 
L 436.506937 231.058125 
z
" clip-path="url(#pa1cb41e364)" style="fill: #ec407a; stroke: #121622; stroke-width: 0.5; stroke-linejoin: miter"/>
   </g>
   <g id="patch_64">
    <path d="M 442.835287 231.058125 
L 449.163637 231.058125 
L 449.163637 231.058125 
L 442.835287 231.058125 
z
" clip-path="url(#pa1cb41e364)" style="fill: #ec407a; stroke: #121622; stroke-width: 0.5; stroke-linejoin: miter"/>
   </g>
   <g id="patch_65">
    <path d="M 449.163637 231.058125 
L 455.491987 231.058125 
L 455.491987 231.058125 
L 449.163637 231.058125 
z
" clip-path="url(#pa1cb41e364)" style="fill: #ec407a; stroke: #121622; stroke-width: 0.5; stroke-linejoin: miter"/>
   </g>
   <g id="patch_66">
    <path d="M 455.491987 231.058125 
L 461.820337 231.058125 
L 461.820337 231.058125 
L 455.491987 231.058125 
z
" clip-path="url(#pa1cb41e364)" style="fill: #ec407a; stroke: #121622; stroke-width: 0.5; stroke-linejoin: miter"/>
   </g>
   <g id="patch_67">
    <path d="M 461.820337 231.058125 
L 468.148687 231.058125 
L 468.148687 231.058125 
L 461.820337 231.058125 
z
" clip-path="url(#pa1cb41e364)" style="fill: #ec407a; stroke: #121622; stroke-width: 0.5; stroke-linejoin: miter"/>
   </g>
   <g id="patch_68">
    <path d="M 468.148687 231.058125 
L 474.477037 231.058125 
L 474.477037 231.058125 
L 468.148687 231.058125 
z
" clip-path="url(#pa1cb41e364)" style="fill: #ec407a; stroke: #121622; stroke-width: 0.5; stroke-linejoin: miter"/>
   </g>
   <g id="patch_69">
    <path d="M 474.477037 231.058125 
L 480.805387 231.058125 
L 480.805387 231.058125 
L 474.477037 231.058125 
z
" clip-path="url(#pa1cb41e364)" style="fill: #ec407a; stroke: #121622; stroke-width: 0.5; stroke-linejoin: miter"/>
   </g>
   <g id="patch_70">
    <path d="M 480.805387 231.058125 
L 487.133737 231.058125 
L 487.133737 231.058125 
L 480.805387 231.058125 
z
" clip-path="url(#pa1cb41e364)" style="fill: #ec407a; stroke: #121622; stroke-width: 0.5; stroke-linejoin: miter"/>
   </g>
   <g id="patch_71">
    <path d="M 487.133737 231.058125 
L 493.462087 231.058125 
L 493.462087 231.058125 
L 487.133737 231.058125 
z
" clip-path="url(#pa1cb41e364)" style="fill: #ec407a; stroke: #121622; stroke-width: 0.5; stroke-linejoin: miter"/>
   </g>
   <g id="patch_72">
    <path d="M 493.462087 231.058125 
L 499.790437 231.058125 
L 499.790437 231.058125 
L 493.462087 231.058125 
z
" clip-path="url(#pa1cb41e364)" style="fill: #ec407a; stroke: #121622; stroke-width: 0.5; stroke-linejoin: miter"/>
   </g>
   <g id="patch_73">
    <path d="M 499.790437 231.058125 
L 506.118787 231.058125 
L 506.118787 231.058125 
L 499.790437 231.058125 
z
" clip-path="url(#pa1cb41e364)" style="fill: #ec407a; stroke: #121622; stroke-width: 0.5; stroke-linejoin: miter"/>
   </g>
   <g id="patch_74">
    <path d="M 506.118787 231.058125 
L 512.447137 231.058125 
L 512.447137 231.058125 
L 506.118787 231.058125 
z
" clip-path="url(#pa1cb41e364)" style="fill: #ec407a; stroke: #121622; stroke-width: 0.5; stroke-linejoin: miter"/>
   </g>
   <g id="patch_75">
    <path d="M 512.447137 231.058125 
L 518.775487 231.058125 
L 518.775487 231.058125 
L 512.447137 231.058125 
z
" clip-path="url(#pa1cb41e364)" style="fill: #ec407a; stroke: #121622; stroke-width: 0.5; stroke-linejoin: miter"/>
   </g>
   <g id="patch_76">
    <path d="M 518.775487 231.058125 
L 525.103837 231.058125 
L 525.103837 231.058125 
L 518.775487 231.058125 
z
" clip-path="url(#pa1cb41e364)" style="fill: #ec407a; stroke: #121622; stroke-width: 0.5; stroke-linejoin: miter"/>
   </g>
   <g id="patch_77">
    <path d="M 525.103837 231.058125 
L 531.432187 231.058125 
L 531.432187 231.058125 
L 525.103837 231.058125 
z
" clip-path="url(#pa1cb41e364)" style="fill: #ec407a; stroke: #121622; stroke-width: 0.5; stroke-linejoin: miter"/>
   </g>
   <g id="patch_78">
    <path d="M 531.432187 231.058125 
L 537.760537 231.058125 
L 537.760537 231.058125 
L 531.432187 231.058125 
z
" clip-path="url(#pa1cb41e364)" style="fill: #ec407a; stroke: #121622; stroke-width: 0.5; stroke-linejoin: miter"/>
   </g>
   <g id="patch_79">
    <path d="M 537.760537 231.058125 
L 544.088887 231.058125 
L 544.088887 231.058125 
L 537.760537 231.058125 
z
" clip-path="url(#pa1cb41e364)" style="fill: #ec407a; stroke: #121622; stroke-width: 0.5; stroke-linejoin: miter"/>
   </g>
   <g id="patch_80">
    <path d="M 544.088887 231.058125 
L 550.417237 231.058125 
L 550.417237 231.058125 
L 544.088887 231.058125 
z
" clip-path="url(#pa1cb41e364)" style="fill: #ec407a; stroke: #121622; stroke-width: 0.5; stroke-linejoin: miter"/>
   </g>
   <g id="patch_81">
    <path d="M 550.417237 231.058125 
L 556.745587 231.058125 
L 556.745587 231.058125 
L 550.417237 231.058125 
z
" clip-path="url(#pa1cb41e364)" style="fill: #ec407a; stroke: #121622; stroke-width: 0.5; stroke-linejoin: miter"/>
   </g>
   <g id="patch_82">
    <path d="M 556.745587 231.058125 
L 563.073937 231.058125 
L 563.073937 231.058125 
L 556.745587 231.058125 
z
" clip-path="url(#pa1cb41e364)" style="fill: #ec407a; stroke: #121622; stroke-width: 0.5; stroke-linejoin: miter"/>
   </g>
   <g id="patch_83">
    <path d="M 563.073937 231.058125 
L 569.402287 231.058125 
L 569.402287 231.058125 
L 563.073937 231.058125 
z
" clip-path="url(#pa1cb41e364)" style="fill: #ec407a; stroke: #121622; stroke-width: 0.5; stroke-linejoin: miter"/>
   </g>
   <g id="patch_84">
    <path d="M 569.402287 231.058125 
L 575.730637 231.058125 
L 575.730637 231.058125 
L 569.402287 231.058125 
z
" clip-path="url(#pa1cb41e364)" style="fill: #ec407a; stroke: #121622; stroke-width: 0.5; stroke-linejoin: miter"/>
   </g>
   <g id="patch_85">
    <path d="M 575.730637 231.058125 
L 582.058987 231.058125 
L 582.058987 231.058125 
L 575.730637 231.058125 
z
" clip-path="url(#pa1cb41e364)" style="fill: #ec407a; stroke: #121622; stroke-width: 0.5; stroke-linejoin: miter"/>
   </g>
   <g id="patch_86">
    <path d="M 582.058987 231.058125 
L 588.387337 231.058125 
L 588.387337 231.058125 
L 582.058987 231.058125 
z
" clip-path="url(#pa1cb41e364)" style="fill: #ec407a; stroke: #121622; stroke-width: 0.5; stroke-linejoin: miter"/>
   </g>
   <g id="patch_87">
    <path d="M 588.387337 231.058125 
L 594.715687 231.058125 
L 594.715687 231.058125 
L 588.387337 231.058125 
z
" clip-path="url(#pa1cb41e364)" style="fill: #ec407a; stroke: #121622; stroke-width: 0.5; stroke-linejoin: miter"/>
   </g>
   <g id="patch_88">
    <path d="M 594.715687 231.058125 
L 601.044037 231.058125 
L 601.044037 231.058125 
L 594.715687 231.058125 
z
" clip-path="url(#pa1cb41e364)" style="fill: #ec407a; stroke: #121622; stroke-width: 0.5; stroke-linejoin: miter"/>
   </g>
   <g id="patch_89">
    <path d="M 601.044037 231.058125 
L 607.372387 231.058125 
L 607.372387 231.058125 
L 601.044037 231.058125 
z
" clip-path="url(#pa1cb41e364)" style="fill: #ec407a; stroke: #121622; stroke-width: 0.5; stroke-linejoin: miter"/>
   </g>
   <g id="patch_90">
    <path d="M 607.372387 231.058125 
L 613.700737 231.058125 
L 613.700737 231.058125 
L 607.372387 231.058125 
z
" clip-path="url(#pa1cb41e364)" style="fill: #ec407a; stroke: #121622; stroke-width: 0.5; stroke-linejoin: miter"/>
   </g>
   <g id="patch_91">
    <path d="M 613.700737 231.058125 
L 620.029087 231.058125 
L 620.029087 231.058125 
L 613.700737 231.058125 
z
" clip-path="url(#pa1cb41e364)" style="fill: #ec407a; stroke: #121622; stroke-width: 0.5; stroke-linejoin: miter"/>
   </g>
   <g id="patch_92">
    <path d="M 620.029087 231.058125 
L 626.357437 231.058125 
L 626.357437 231.058125 
L 620.029087 231.058125 
z
" clip-path="url(#pa1cb41e364)" style="fill: #ec407a; stroke: #121622; stroke-width: 0.5; stroke-linejoin: miter"/>
   </g>
   <g id="patch_93">
    <path d="M 626.357437 231.058125 
L 632.685787 231.058125 
L 632.685787 231.058125 
L 626.357437 231.058125 
z
" clip-path="url(#pa1cb41e364)" style="fill: #ec407a; stroke: #121622; stroke-width: 0.5; stroke-linejoin: miter"/>
   </g>
   <g id="patch_94">
    <path d="M 632.685787 231.058125 
L 639.014137 231.058125 
L 639.014137 231.058125 
L 632.685787 231.058125 
z
" clip-path="url(#pa1cb41e364)" style="fill: #ec407a; stroke: #121622; stroke-width: 0.5; stroke-linejoin: miter"/>
   </g>
   <g id="patch_95">
    <path d="M 639.014137 231.058125 
L 645.342487 231.058125 
L 645.342487 231.058125 
L 639.014137 231.058125 
z
" clip-path="url(#pa1cb41e364)" style="fill: #ec407a; stroke: #121622; stroke-width: 0.5; stroke-linejoin: miter"/>
   </g>
   <g id="patch_96">
    <path d="M 645.342487 231.058125 
L 651.670837 231.058125 
L 651.670837 231.058125 
L 645.342487 231.058125 
z
" clip-path="url(#pa1cb41e364)" style="fill: #ec407a; stroke: #121622; stroke-width: 0.5; stroke-linejoin: miter"/>
   </g>
   <g id="patch_97">
    <path d="M 651.670837 231.058125 
L 657.999187 231.058125 
L 657.999187 231.058125 
L 651.670837 231.058125 
z
" clip-path="url(#pa1cb41e364)" style="fill: #ec407a; stroke: #121622; stroke-width: 0.5; stroke-linejoin: miter"/>
   </g>
   <g id="patch_98">
    <path d="M 657.999187 231.058125 
L 664.327537 231.058125 
L 664.327537 231.058125 
L 657.999187 231.058125 
z
" clip-path="url(#pa1cb41e364)" style="fill: #ec407a; stroke: #121622; stroke-width: 0.5; stroke-linejoin: miter"/>
   </g>
   <g id="patch_99">
    <path d="M 664.327537 231.058125 
L 670.655887 231.058125 
L 670.655887 231.058125 
L 664.327537 231.058125 
z
" clip-path="url(#pa1cb41e364)" style="fill: #ec407a; stroke: #121622; stroke-width: 0.5; stroke-linejoin: miter"/>
   </g>
   <g id="patch_100">
    <path d="M 670.655887 231.058125 
L 676.984237 231.058125 
L 676.984237 231.058125 
L 670.655887 231.058125 
z
" clip-path="url(#pa1cb41e364)" style="fill: #ec407a; stroke: #121622; stroke-width: 0.5; stroke-linejoin: miter"/>
   </g>
   <g id="patch_101">
    <path d="M 676.984237 231.058125 
L 683.312587 231.058125 
L 683.312587 231.058125 
L 676.984237 231.058125 
z
" clip-path="url(#pa1cb41e364)" style="fill: #ec407a; stroke: #121622; stroke-width: 0.5; stroke-linejoin: miter"/>
   </g>
   <g id="patch_102">
    <path d="M 683.312587 231.058125 
L 689.640937 231.058125 
L 689.640937 231.058125 
L 683.312587 231.058125 
z
" clip-path="url(#pa1cb41e364)" style="fill: #ec407a; stroke: #121622; stroke-width: 0.5; stroke-linejoin: miter"/>
   </g>
   <g id="patch_103">
    <path d="M 56.805938 231.058125 
L 56.805938 22.318125 
" style="fill: none; stroke: #30333e; stroke-width: 1.25; stroke-linejoin: miter; stroke-linecap: square"/>
   </g>
   <g id="patch_104">
    <path d="M 56.805938 231.058125 
L 689.640937 231.058125 
" style="fill: none; stroke: #30333e; stroke-width: 1.25; stroke-linejoin: miter; stroke-linecap: square"/>
   </g>
   <g id="text_17">
    <!-- rdtsc step distribution (8-unrolled, 7 deltas per iter) -->
    <g style="fill: #e0e0e0" transform="translate(218.459062 16.318125) scale(0.12 -0.12)">
     <defs>
      <path id="DejaVuSans-70" d="M 1159 525 
L 1159 -1331 
L 581 -1331 
L 581 3500 
L 1159 3500 
L 1159 2969 
Q 1341 3281 1617 3432 
Q 1894 3584 2278 3584 
Q 2916 3584 3314 3078 
Q 3713 2572 3713 1747 
Q 3713 922 3314 415 
Q 2916 -91 2278 -91 
Q 1894 -91 1617 61 
Q 1341 213 1159 525 
z
M 3116 1747 
Q 3116 2381 2855 2742 
Q 2594 3103 2138 3103 
Q 1681 3103 1420 2742 
Q 1159 2381 1159 1747 
Q 1159 1113 1420 752 
Q 1681 391 2138 391 
Q 2594 391 2855 752 
Q 3116 1113 3116 1747 
z
" transform="scale(0.015625)"/>
      <path id="DejaVuSans-28" d="M 1984 4856 
Q 1566 4138 1362 3434 
Q 1159 2731 1159 2009 
Q 1159 1288 1364 580 
Q 1569 -128 1984 -844 
L 1484 -844 
Q 1016 -109 783 600 
Q 550 1309 550 2009 
Q 550 2706 781 3412 
Q 1013 4119 1484 4856 
L 1984 4856 
z
" transform="scale(0.015625)"/>
      <path id="DejaVuSans-2d" d="M 313 2009 
L 1997 2009 
L 1997 1497 
L 313 1497 
L 313 2009 
z
" transform="scale(0.015625)"/>
      <path id="DejaVuSans-2c" d="M 750 794 
L 1409 794 
L 1409 256 
L 897 -744 
L 494 -744 
L 750 256 
L 750 794 
z
" transform="scale(0.015625)"/>
      <path id="DejaVuSans-37" d="M 525 4666 
L 3525 4666 
L 3525 4397 
L 1831 0 
L 1172 0 
L 2766 4134 
L 525 4134 
L 525 4666 
z
" transform="scale(0.015625)"/>
      <path id="DejaVuSans-29" d="M 513 4856 
L 1013 4856 
Q 1481 4119 1714 3412 
Q 1947 2706 1947 2009 
Q 1947 1309 1714 600 
Q 1481 -109 1013 -844 
L 513 -844 
Q 928 -128 1133 580 
Q 1338 1288 1338 2009 
Q 1338 2731 1133 3434 
Q 928 4138 513 4856 
z
" transform="scale(0.015625)"/>
     </defs>
     <use xlink:href="#DejaVuSans-72"/>
     <use xlink:href="#DejaVuSans-64" transform="translate(39.363281 0)"/>
     <use xlink:href="#DejaVuSans-74" transform="translate(102.839844 0)"/>
     <use xlink:href="#DejaVuSans-73" transform="translate(142.048828 0)"/>
     <use xlink:href="#DejaVuSans-63" transform="translate(194.148438 0)"/>
     <use xlink:href="#DejaVuSans-20" transform="translate(249.128906 0)"/>
     <use xlink:href="#DejaVuSans-73" transform="translate(280.916016 0)"/>
     <use xlink:href="#DejaVuSans-74" transform="translate(333.015625 0)"/>
     <use xlink:href="#DejaVuSans-65" transform="translate(372.224609 0)"/>
     <use xlink:href="#DejaVuSans-70" transform="translate(433.748047 0)"/>
     <use xlink:href="#DejaVuSans-20" transform="translate(497.224609 0)"/>
     <use xlink:href="#DejaVuSans-64" transform="translate(529.011719 0)"/>
     <use xlink:href="#DejaVuSans-69" transform="translate(592.488281 0)"/>
     <use xlink:href="#DejaVuSans-73" transform="translate(620.271484 0)"/>
     <use xlink:href="#DejaVuSans-74" transform="translate(672.371094 0)"/>
     <use xlink:href="#DejaVuSans-72" transform="translate(711.580078 0)"/>
     <use xlink:href="#DejaVuSans-69" transform="translate(752.693359 0)"/>
     <use xlink:href="#DejaVuSans-62" transform="translate(780.476562 0)"/>
     <use xlink:href="#DejaVuSans-75" transform="translate(843.953125 0)"/>
     <use xlink:href="#DejaVuSans-74" transform="translate(907.332031 0)"/>
     <use xlink:href="#DejaVuSans-69" transform="translate(946.541016 0)"/>
     <use xlink:href="#DejaVuSans-6f" transform="translate(974.324219 0)"/>
     <use xlink:href="#DejaVuSans-6e" transform="translate(1035.505859 0)"/>
     <use xlink:href="#DejaVuSans-20" transform="translate(1098.884766 0)"/>
     <use xlink:href="#DejaVuSans-28" transform="translate(1130.671875 0)"/>
     <use xlink:href="#DejaVuSans-38" transform="translate(1169.685547 0)"/>
     <use xlink:href="#DejaVuSans-2d" transform="translate(1233.308594 0)"/>
     <use xlink:href="#DejaVuSans-75" transform="translate(1269.392578 0)"/>
     <use xlink:href="#DejaVuSans-6e" transform="translate(1332.771484 0)"/>
     <use xlink:href="#DejaVuSans-72" transform="translate(1396.150391 0)"/>
     <use xlink:href="#DejaVuSans-6f" transform="translate(1435.013672 0)"/>
     <use xlink:href="#DejaVuSans-6c" transform="translate(1496.195312 0)"/>
     <use xlink:href="#DejaVuSans-6c" transform="translate(1523.978516 0)"/>
     <use xlink:href="#DejaVuSans-65" transform="translate(1551.761719 0)"/>
     <use xlink:href="#DejaVuSans-64" transform="translate(1613.285156 0)"/>
     <use xlink:href="#DejaVuSans-2c" transform="translate(1676.761719 0)"/>
     <use xlink:href="#DejaVuSans-20" transform="translate(1708.548828 0)"/>
     <use xlink:href="#DejaVuSans-37" transform="translate(1740.335938 0)"/>
     <use xlink:href="#DejaVuSans-20" transform="translate(1803.958984 0)"/>
     <use xlink:href="#DejaVuSans-64" transform="translate(1835.746094 0)"/>
     <use xlink:href="#DejaVuSans-65" transform="translate(1899.222656 0)"/>
     <use xlink:href="#DejaVuSans-6c" transform="translate(1960.746094 0)"/>
     <use xlink:href="#DejaVuSans-74" transform="translate(1988.529297 0)"/>
     <use xlink:href="#DejaVuSans-61" transform="translate(2027.738281 0)"/>
     <use xlink:href="#DejaVuSans-73" transform="translate(2089.017578 0)"/>
     <use xlink:href="#DejaVuSans-20" transform="translate(2141.117188 0)"/>
     <use xlink:href="#DejaVuSans-70" transform="translate(2172.904297 0)"/>
     <use xlink:href="#DejaVuSans-65" transform="translate(2236.380859 0)"/>
     <use xlink:href="#DejaVuSans-72" transform="translate(2297.904297 0)"/>
     <use xlink:href="#DejaVuSans-20" transform="translate(2339.017578 0)"/>
     <use xlink:href="#DejaVuSans-69" transform="translate(2370.804688 0)"/>
     <use xlink:href="#DejaVuSans-74" transform="translate(2398.587891 0)"/>
     <use xlink:href="#DejaVuSans-65" transform="translate(2437.796875 0)"/>
     <use xlink:href="#DejaVuSans-72" transform="translate(2499.320312 0)"/>
     <use xlink:href="#DejaVuSans-29" transform="translate(2540.433594 0)"/>
    </g>
   </g>
  </g>
 </g>
 <defs>
  <clipPath id="pa1cb41e364">
   <rect x="56.805938" y="22.318125" width="632.835" height="208.74"/>
  </clipPath>
 </defs>
</svg>
