<?xml version="1.0" encoding="utf-8" standalone="no"?>
<!DOCTYPE svg PUBLIC "-//W3C//DTD SVG 1.1//EN"
  "http://www.w3.org/Graphics/SVG/1.1/DTD/svg11.dtd">
<svg xmlns:xlink="http://www.w3.org/1999/xlink" width="708.780547pt" height="276.904219pt" viewBox="0 0 708.780547 276.904219" xmlns="http://www.w3.org/2000/svg" version="1.1">
 <metadata>
  <rdf:RDF xmlns:dc="http://purl.org/dc/elements/1.1/" xmlns:cc="http://creativecommons.org/ns#" xmlns:rdf="http://www.w3.org/1999/02/22-rdf-syntax-ns#">
   <cc:Work>
    <dc:type rdf:resource="http://purl.org/dc/dcmitype/StillImage"/>
    <dc:date>2026-05-01T10:15:30.251355</dc:date>
    <dc:format>image/svg+xml</dc:format>
    <dc:creator>
     <cc:Agent>
      <dc:title>Matplotlib v3.10.9, https://matplotlib.org/</dc:title>
     </cc:Agent>
    </dc:creator>
   </cc:Work>
  </rdf:RDF>
 </metadata>
 <defs>
  <style type="text/css">*{stroke-linejoin: round; stroke-linecap: butt}</style>
 </defs>
 <g id="figure_1">
  <g id="patch_1">
   <path d="M 0 276.904219 
L 708.780547 276.904219 
L 708.780547 0 
L 0 0 
z
" style="fill: #121622"/>
  </g>
  <g id="axes_1">
   <g id="patch_2">
    <path d="M 47.25125 234.883125 
L 692.405 234.883125 
L 692.405 21.935625 
L 47.25125 21.935625 
z
" style="fill: #121622"/>
   </g>
   <g id="matplotlib.axis_1">
    <g id="xtick_1">
     <g id="text_1">
      <!-- 0 -->
      <g style="fill: #e0e0e0" transform="translate(44.192734 252.256719) scale(0.11 -0.11)">
       <defs>
        <path id="ArialMT-30" d="M 266 2259 
Q 266 3072 433 3567 
Q 600 4063 929 4331 
Q 1259 4600 1759 4600 
Q 2128 4600 2406 4451 
Q 2684 4303 2865 4023 
Q 3047 3744 3150 3342 
Q 3253 2941 3253 2259 
Q 3253 1453 3087 958 
Q 2922 463 2592 192 
Q 2263 -78 1759 -78 
Q 1097 -78 719 397 
Q 266 969 266 2259 
z
M 844 2259 
Q 844 1131 1108 757 
Q 1372 384 1759 384 
Q 2147 384 2411 759 
Q 2675 1134 2675 2259 
Q 2675 3391 2411 3762 
Q 2147 4134 1753 4134 
Q 1366 4134 1134 3806 
Q 844 3388 844 2259 
z
" transform="scale(0.015625)"/>
       </defs>
       <use xlink:href="#ArialMT-30"/>
      </g>
     </g>
    </g>
    <g id="xtick_2">
     <g id="text_2">
      <!-- 20 -->
      <g style="fill: #e0e0e0" transform="translate(170.164969 252.256719) scale(0.11 -0.11)">
       <defs>
        <path id="ArialMT-32" d="M 3222 541 
L 3222 0 
L 194 0 
Q 188 203 259 391 
Q 375 700 629 1000 
Q 884 1300 1366 1694 
Q 2113 2306 2375 2664 
Q 2638 3022 2638 3341 
Q 2638 3675 2398 3904 
Q 2159 4134 1775 4134 
Q 1369 4134 1125 3890 
Q 881 3647 878 3216 
L 300 3275 
Q 359 3922 746 4261 
Q 1134 4600 1788 4600 
Q 2447 4600 2831 4234 
Q 3216 3869 3216 3328 
Q 3216 3053 3103 2787 
Q 2991 2522 2730 2228 
Q 2469 1934 1863 1422 
Q 1356 997 1212 845 
Q 1069 694 975 541 
L 3222 541 
z
" transform="scale(0.015625)"/>
       </defs>
       <use xlink:href="#ArialMT-32"/>
       <use xlink:href="#ArialMT-30" transform="translate(55.615234 0)"/>
      </g>
     </g>
    </g>
    <g id="xtick_3">
     <g id="text_3">
      <!-- 40 -->
      <g style="fill: #e0e0e0" transform="translate(299.195719 252.256719) scale(0.11 -0.11)">
       <defs>
        <path id="ArialMT-34" d="M 2069 0 
L 2069 1097 
L 81 1097 
L 81 1613 
L 2172 4581 
L 2631 4581 
L 2631 1613 
L 3250 1613 
L 3250 1097 
L 2631 1097 
L 2631 0 
L 2069 0 
z
M 2069 1613 
L 2069 3678 
L 634 1613 
L 2069 1613 
z
" transform="scale(0.015625)"/>
       </defs>
       <use xlink:href="#ArialMT-34"/>
       <use xlink:href="#ArialMT-30" transform="translate(55.615234 0)"/>
      </g>
     </g>
    </g>
    <g id="xtick_4">
     <g id="text_4">
      <!-- 60 -->
      <g style="fill: #e0e0e0" transform="translate(428.226469 252.256719) scale(0.11 -0.11)">
       <defs>
        <path id="ArialMT-36" d="M 3184 3459 
L 2625 3416 
Q 2550 3747 2413 3897 
Q 2184 4138 1850 4138 
Q 1581 4138 1378 3988 
Q 1113 3794 959 3422 
Q 806 3050 800 2363 
Q 1003 2672 1297 2822 
Q 1591 2972 1913 2972 
Q 2475 2972 2870 2558 
Q 3266 2144 3266 1488 
Q 3266 1056 3080 686 
Q 2894 316 2569 119 
Q 2244 -78 1831 -78 
Q 1128 -78 684 439 
Q 241 956 241 2144 
Q 241 3472 731 4075 
Q 1159 4600 1884 4600 
Q 2425 4600 2770 4297 
Q 3116 3994 3184 3459 
z
M 888 1484 
Q 888 1194 1011 928 
Q 1134 663 1356 523 
Q 1578 384 1822 384 
Q 2178 384 2434 671 
Q 2691 959 2691 1453 
Q 2691 1928 2437 2201 
Q 2184 2475 1800 2475 
Q 1419 2475 1153 2201 
Q 888 1928 888 1484 
z
" transform="scale(0.015625)"/>
       </defs>
       <use xlink:href="#ArialMT-36"/>
       <use xlink:href="#ArialMT-30" transform="translate(55.615234 0)"/>
      </g>
     </g>
    </g>
    <g id="xtick_5">
     <g id="text_5">
      <!-- 80 -->
      <g style="fill: #e0e0e0" transform="translate(557.257219 252.256719) scale(0.11 -0.11)">
       <defs>
        <path id="ArialMT-38" d="M 1131 2484 
Q 781 2613 612 2850 
Q 444 3088 444 3419 
Q 444 3919 803 4259 
Q 1163 4600 1759 4600 
Q 2359 4600 2725 4251 
Q 3091 3903 3091 3403 
Q 3091 3084 2923 2848 
Q 2756 2613 2416 2484 
Q 2838 2347 3058 2040 
Q 3278 1734 3278 1309 
Q 3278 722 2862 322 
Q 2447 -78 1769 -78 
Q 1091 -78 675 323 
Q 259 725 259 1325 
Q 259 1772 486 2073 
Q 713 2375 1131 2484 
z
M 1019 3438 
Q 1019 3113 1228 2906 
Q 1438 2700 1772 2700 
Q 2097 2700 2305 2904 
Q 2513 3109 2513 3406 
Q 2513 3716 2298 3927 
Q 2084 4138 1766 4138 
Q 1444 4138 1231 3931 
Q 1019 3725 1019 3438 
z
M 838 1322 
Q 838 1081 952 856 
Q 1066 631 1291 507 
Q 1516 384 1775 384 
Q 2178 384 2440 643 
Q 2703 903 2703 1303 
Q 2703 1709 2433 1975 
Q 2163 2241 1756 2241 
Q 1359 2241 1098 1978 
Q 838 1716 838 1322 
z
" transform="scale(0.015625)"/>
       </defs>
       <use xlink:href="#ArialMT-38"/>
       <use xlink:href="#ArialMT-30" transform="translate(55.615234 0)"/>
      </g>
     </g>
    </g>
    <g id="xtick_6">
     <g id="text_6">
      <!-- 100 -->
      <g style="fill: #e0e0e0" transform="translate(683.229453 252.256719) scale(0.11 -0.11)">
       <defs>
        <path id="ArialMT-31" d="M 2384 0 
L 1822 0 
L 1822 3584 
Q 1619 3391 1289 3197 
Q 959 3003 697 2906 
L 697 3450 
Q 1169 3672 1522 3987 
Q 1875 4303 2022 4600 
L 2384 4600 
L 2384 0 
z
" transform="scale(0.015625)"/>
       </defs>
       <use xlink:href="#ArialMT-31"/>
       <use xlink:href="#ArialMT-30" transform="translate(55.615234 0)"/>
       <use xlink:href="#ArialMT-30" transform="translate(111.230469 0)"/>
      </g>
     </g>
    </g>
    <g id="text_7">
     <!-- Cycles between consecutive rdtscp reads -->
     <g style="fill: #e0e0e0" transform="translate(259.446875 267.178594) scale(0.12 -0.12)">
      <defs>
       <path id="ArialMT-43" d="M 3763 1606 
L 4369 1453 
Q 4178 706 3683 314 
Q 3188 -78 2472 -78 
Q 1731 -78 1267 223 
Q 803 525 561 1097 
Q 319 1669 319 2325 
Q 319 3041 592 3573 
Q 866 4106 1370 4382 
Q 1875 4659 2481 4659 
Q 3169 4659 3637 4309 
Q 4106 3959 4291 3325 
L 3694 3184 
Q 3534 3684 3231 3912 
Q 2928 4141 2469 4141 
Q 1941 4141 1586 3887 
Q 1231 3634 1087 3207 
Q 944 2781 944 2328 
Q 944 1744 1114 1308 
Q 1284 872 1643 656 
Q 2003 441 2422 441 
Q 2931 441 3284 734 
Q 3638 1028 3763 1606 
z
" transform="scale(0.015625)"/>
       <path id="ArialMT-79" d="M 397 -1278 
L 334 -750 
Q 519 -800 656 -800 
Q 844 -800 956 -737 
Q 1069 -675 1141 -563 
Q 1194 -478 1313 -144 
Q 1328 -97 1363 -6 
L 103 3319 
L 709 3319 
L 1400 1397 
Q 1534 1031 1641 628 
Q 1738 1016 1872 1384 
L 2581 3319 
L 3144 3319 
L 1881 -56 
Q 1678 -603 1566 -809 
Q 1416 -1088 1222 -1217 
Q 1028 -1347 759 -1347 
Q 597 -1347 397 -1278 
z
" transform="scale(0.015625)"/>
       <path id="ArialMT-63" d="M 2588 1216 
L 3141 1144 
Q 3050 572 2676 248 
Q 2303 -75 1759 -75 
Q 1078 -75 664 370 
Q 250 816 250 1647 
Q 250 2184 428 2587 
Q 606 2991 970 3192 
Q 1334 3394 1763 3394 
Q 2303 3394 2647 3120 
Q 2991 2847 3088 2344 
L 2541 2259 
Q 2463 2594 2264 2762 
Q 2066 2931 1784 2931 
Q 1359 2931 1093 2626 
Q 828 2322 828 1663 
Q 828 994 1084 691 
Q 1341 388 1753 388 
Q 2084 388 2306 591 
Q 2528 794 2588 1216 
z
" transform="scale(0.015625)"/>
       <path id="ArialMT-6c" d="M 409 0 
L 409 4581 
L 972 4581 
L 972 0 
L 409 0 
z
" transform="scale(0.015625)"/>
       <path id="ArialMT-65" d="M 2694 1069 
L 3275 997 
Q 3138 488 2766 206 
Q 2394 -75 1816 -75 
Q 1088 -75 661 373 
Q 234 822 234 1631 
Q 234 2469 665 2931 
Q 1097 3394 1784 3394 
Q 2450 3394 2872 2941 
Q 3294 2488 3294 1666 
Q 3294 1616 3291 1516 
L 816 1516 
Q 847 969 1125 678 
Q 1403 388 1819 388 
Q 2128 388 2347 550 
Q 2566 713 2694 1069 
z
M 847 1978 
L 2700 1978 
Q 2663 2397 2488 2606 
Q 2219 2931 1791 2931 
Q 1403 2931 1139 2672 
Q 875 2413 847 1978 
z
" transform="scale(0.015625)"/>
       <path id="ArialMT-73" d="M 197 991 
L 753 1078 
Q 800 744 1014 566 
Q 1228 388 1613 388 
Q 2000 388 2187 545 
Q 2375 703 2375 916 
Q 2375 1106 2209 1216 
Q 2094 1291 1634 1406 
Q 1016 1563 777 1677 
Q 538 1791 414 1992 
Q 291 2194 291 2438 
Q 291 2659 392 2848 
Q 494 3038 669 3163 
Q 800 3259 1026 3326 
Q 1253 3394 1513 3394 
Q 1903 3394 2198 3281 
Q 2494 3169 2634 2976 
Q 2775 2784 2828 2463 
L 2278 2388 
Q 2241 2644 2061 2787 
Q 1881 2931 1553 2931 
Q 1166 2931 1000 2803 
Q 834 2675 834 2503 
Q 834 2394 903 2306 
Q 972 2216 1119 2156 
Q 1203 2125 1616 2013 
Q 2213 1853 2448 1751 
Q 2684 1650 2818 1456 
Q 2953 1263 2953 975 
Q 2953 694 2789 445 
Q 2625 197 2315 61 
Q 2006 -75 1616 -75 
Q 969 -75 630 194 
Q 291 463 197 991 
z
" transform="scale(0.015625)"/>
       <path id="ArialMT-20" transform="scale(0.015625)"/>
       <path id="ArialMT-62" d="M 941 0 
L 419 0 
L 419 4581 
L 981 4581 
L 981 2947 
Q 1338 3394 1891 3394 
Q 2197 3394 2470 3270 
Q 2744 3147 2920 2923 
Q 3097 2700 3197 2384 
Q 3297 2069 3297 1709 
Q 3297 856 2875 390 
Q 2453 -75 1863 -75 
Q 1275 -75 941 416 
L 941 0 
z
M 934 1684 
Q 934 1088 1097 822 
Q 1363 388 1816 388 
Q 2184 388 2453 708 
Q 2722 1028 2722 1663 
Q 2722 2313 2464 2622 
Q 2206 2931 1841 2931 
Q 1472 2931 1203 2611 
Q 934 2291 934 1684 
z
" transform="scale(0.015625)"/>
       <path id="ArialMT-74" d="M 1650 503 
L 1731 6 
Q 1494 -44 1306 -44 
Q 1000 -44 831 53 
Q 663 150 594 308 
Q 525 466 525 972 
L 525 2881 
L 113 2881 
L 113 3319 
L 525 3319 
L 525 4141 
L 1084 4478 
L 1084 3319 
L 1650 3319 
L 1650 2881 
L 1084 2881 
L 1084 941 
Q 1084 700 1114 631 
Q 1144 563 1211 522 
Q 1278 481 1403 481 
Q 1497 481 1650 503 
z
" transform="scale(0.015625)"/>
       <path id="ArialMT-77" d="M 1034 0 
L 19 3319 
L 600 3319 
L 1128 1403 
L 1325 691 
Q 1338 744 1497 1375 
L 2025 3319 
L 2603 3319 
L 3100 1394 
L 3266 759 
L 3456 1400 
L 4025 3319 
L 4572 3319 
L 3534 0 
L 2950 0 
L 2422 1988 
L 2294 2553 
L 1622 0 
L 1034 0 
z
" transform="scale(0.015625)"/>
       <path id="ArialMT-6e" d="M 422 0 
L 422 3319 
L 928 3319 
L 928 2847 
Q 1294 3394 1984 3394 
Q 2284 3394 2536 3286 
Q 2788 3178 2913 3003 
Q 3038 2828 3088 2588 
Q 3119 2431 3119 2041 
L 3119 0 
L 2556 0 
L 2556 2019 
Q 2556 2363 2490 2533 
Q 2425 2703 2258 2804 
Q 2091 2906 1866 2906 
Q 1506 2906 1245 2678 
Q 984 2450 984 1813 
L 984 0 
L 422 0 
z
" transform="scale(0.015625)"/>
       <path id="ArialMT-6f" d="M 213 1659 
Q 213 2581 725 3025 
Q 1153 3394 1769 3394 
Q 2453 3394 2887 2945 
Q 3322 2497 3322 1706 
Q 3322 1066 3130 698 
Q 2938 331 2570 128 
Q 2203 -75 1769 -75 
Q 1072 -75 642 372 
Q 213 819 213 1659 
z
M 791 1659 
Q 791 1022 1069 705 
Q 1347 388 1769 388 
Q 2188 388 2466 706 
Q 2744 1025 2744 1678 
Q 2744 2294 2464 2611 
Q 2184 2928 1769 2928 
Q 1347 2928 1069 2612 
Q 791 2297 791 1659 
z
" transform="scale(0.015625)"/>
       <path id="ArialMT-75" d="M 2597 0 
L 2597 488 
Q 2209 -75 1544 -75 
Q 1250 -75 995 37 
Q 741 150 617 320 
Q 494 491 444 738 
Q 409 903 409 1263 
L 409 3319 
L 972 3319 
L 972 1478 
Q 972 1038 1006 884 
Q 1059 663 1231 536 
Q 1403 409 1656 409 
Q 1909 409 2131 539 
Q 2353 669 2445 892 
Q 2538 1116 2538 1541 
L 2538 3319 
L 3100 3319 
L 3100 0 
L 2597 0 
z
" transform="scale(0.015625)"/>
       <path id="ArialMT-69" d="M 425 3934 
L 425 4581 
L 988 4581 
L 988 3934 
L 425 3934 
z
M 425 0 
L 425 3319 
L 988 3319 
L 988 0 
L 425 0 
z
" transform="scale(0.015625)"/>
       <path id="ArialMT-76" d="M 1344 0 
L 81 3319 
L 675 3319 
L 1388 1331 
Q 1503 1009 1600 663 
Q 1675 925 1809 1294 
L 2547 3319 
L 3125 3319 
L 1869 0 
L 1344 0 
z
" transform="scale(0.015625)"/>
       <path id="ArialMT-72" d="M 416 0 
L 416 3319 
L 922 3319 
L 922 2816 
Q 1116 3169 1280 3281 
Q 1444 3394 1641 3394 
Q 1925 3394 2219 3213 
L 2025 2691 
Q 1819 2813 1613 2813 
Q 1428 2813 1281 2702 
Q 1134 2591 1072 2394 
Q 978 2094 978 1738 
L 978 0 
L 416 0 
z
" transform="scale(0.015625)"/>
       <path id="ArialMT-64" d="M 2575 0 
L 2575 419 
Q 2259 -75 1647 -75 
Q 1250 -75 917 144 
Q 584 363 401 755 
Q 219 1147 219 1656 
Q 219 2153 384 2558 
Q 550 2963 881 3178 
Q 1213 3394 1622 3394 
Q 1922 3394 2156 3267 
Q 2391 3141 2538 2938 
L 2538 4581 
L 3097 4581 
L 3097 0 
L 2575 0 
z
M 797 1656 
Q 797 1019 1065 703 
Q 1334 388 1700 388 
Q 2069 388 2326 689 
Q 2584 991 2584 1609 
Q 2584 2291 2321 2609 
Q 2059 2928 1675 2928 
Q 1300 2928 1048 2622 
Q 797 2316 797 1656 
z
" transform="scale(0.015625)"/>
       <path id="ArialMT-70" d="M 422 -1272 
L 422 3319 
L 934 3319 
L 934 2888 
Q 1116 3141 1344 3267 
Q 1572 3394 1897 3394 
Q 2322 3394 2647 3175 
Q 2972 2956 3137 2557 
Q 3303 2159 3303 1684 
Q 3303 1175 3120 767 
Q 2938 359 2589 142 
Q 2241 -75 1856 -75 
Q 1575 -75 1351 44 
Q 1128 163 984 344 
L 984 -1272 
L 422 -1272 
z
M 931 1641 
Q 931 1000 1190 694 
Q 1450 388 1819 388 
Q 2194 388 2461 705 
Q 2728 1022 2728 1688 
Q 2728 2322 2467 2637 
Q 2206 2953 1844 2953 
Q 1484 2953 1207 2617 
Q 931 2281 931 1641 
z
" transform="scale(0.015625)"/>
       <path id="ArialMT-61" d="M 2588 409 
Q 2275 144 1986 34 
Q 1697 -75 1366 -75 
Q 819 -75 525 192 
Q 231 459 231 875 
Q 231 1119 342 1320 
Q 453 1522 633 1644 
Q 813 1766 1038 1828 
Q 1203 1872 1538 1913 
Q 2219 1994 2541 2106 
Q 2544 2222 2544 2253 
Q 2544 2597 2384 2738 
Q 2169 2928 1744 2928 
Q 1347 2928 1158 2789 
Q 969 2650 878 2297 
L 328 2372 
Q 403 2725 575 2942 
Q 747 3159 1072 3276 
Q 1397 3394 1825 3394 
Q 2250 3394 2515 3294 
Q 2781 3194 2906 3042 
Q 3031 2891 3081 2659 
Q 3109 2516 3109 2141 
L 3109 1391 
Q 3109 606 3145 398 
Q 3181 191 3288 0 
L 2700 0 
Q 2613 175 2588 409 
z
M 2541 1666 
Q 2234 1541 1622 1453 
Q 1275 1403 1131 1340 
Q 988 1278 909 1158 
Q 831 1038 831 891 
Q 831 666 1001 516 
Q 1172 366 1500 366 
Q 1825 366 2078 508 
Q 2331 650 2450 897 
Q 2541 1088 2541 1459 
L 2541 1666 
z
" transform="scale(0.015625)"/>
      </defs>
      <use xlink:href="#ArialMT-43"/>
      <use xlink:href="#ArialMT-79" transform="translate(72.216797 0)"/>
      <use xlink:href="#ArialMT-63" transform="translate(122.216797 0)"/>
      <use xlink:href="#ArialMT-6c" transform="translate(172.216797 0)"/>
      <use xlink:href="#ArialMT-65" transform="translate(194.433594 0)"/>
      <use xlink:href="#ArialMT-73" transform="translate(250.048828 0)"/>
      <use xlink:href="#ArialMT-20" transform="translate(300.048828 0)"/>
      <use xlink:href="#ArialMT-62" transform="translate(327.832031 0)"/>
      <use xlink:href="#ArialMT-65" transform="translate(383.447266 0)"/>
      <use xlink:href="#ArialMT-74" transform="translate(439.0625 0)"/>
      <use xlink:href="#ArialMT-77" transform="translate(466.845703 0)"/>
      <use xlink:href="#ArialMT-65" transform="translate(539.0625 0)"/>
      <use xlink:href="#ArialMT-65" transform="translate(594.677734 0)"/>
      <use xlink:href="#ArialMT-6e" transform="translate(650.292969 0)"/>
      <use xlink:href="#ArialMT-20" transform="translate(705.908203 0)"/>
      <use xlink:href="#ArialMT-63" transform="translate(733.691406 0)"/>
      <use xlink:href="#ArialMT-6f" transform="translate(783.691406 0)"/>
      <use xlink:href="#ArialMT-6e" transform="translate(839.306641 0)"/>
      <use xlink:href="#ArialMT-73" transform="translate(894.921875 0)"/>
      <use xlink:href="#ArialMT-65" transform="translate(944.921875 0)"/>
      <use xlink:href="#ArialMT-63" transform="translate(1000.537109 0)"/>
      <use xlink:href="#ArialMT-75" transform="translate(1050.537109 0)"/>
      <use xlink:href="#ArialMT-74" transform="translate(1106.152344 0)"/>
      <use xlink:href="#ArialMT-69" transform="translate(1133.935547 0)"/>
      <use xlink:href="#ArialMT-76" transform="translate(1156.152344 0)"/>
      <use xlink:href="#ArialMT-65" transform="translate(1206.152344 0)"/>
      <use xlink:href="#ArialMT-20" transform="translate(1261.767578 0)"/>
      <use xlink:href="#ArialMT-72" transform="translate(1289.550781 0)"/>
      <use xlink:href="#ArialMT-64" transform="translate(1322.851562 0)"/>
      <use xlink:href="#ArialMT-74" transform="translate(1378.466797 0)"/>
      <use xlink:href="#ArialMT-73" transform="translate(1406.25 0)"/>
      <use xlink:href="#ArialMT-63" transform="translate(1456.25 0)"/>
      <use xlink:href="#ArialMT-70" transform="translate(1506.25 0)"/>
      <use xlink:href="#ArialMT-20" transform="translate(1561.865234 0)"/>
      <use xlink:href="#ArialMT-72" transform="translate(1589.648438 0)"/>
      <use xlink:href="#ArialMT-65" transform="translate(1622.949219 0)"/>
      <use xlink:href="#ArialMT-61" transform="translate(1678.564453 0)"/>
      <use xlink:href="#ArialMT-64" transform="translate(1734.179688 0)"/>
      <use xlink:href="#ArialMT-73" transform="translate(1789.794922 0)"/>
     </g>
    </g>
   </g>
   <g id="matplotlib.axis_2">
    <g id="ytick_1">
     <g id="line2d_1">
      <path d="M 47.25125 234.883125 
L 692.405 234.883125 
" clip-path="url(#p7efe69f95d)" style="fill: none; stroke: #30333e; stroke-width: 0.5; stroke-linecap: round"/>
     </g>
     <g id="text_8">
      <!-- 0.0 -->
      <g style="fill: #e0e0e0" transform="translate(22.46125 238.819922) scale(0.11 -0.11)">
       <defs>
        <path id="ArialMT-2e" d="M 581 0 
L 581 641 
L 1222 641 
L 1222 0 
L 581 0 
z
" transform="scale(0.015625)"/>
       </defs>
       <use xlink:href="#ArialMT-30"/>
       <use xlink:href="#ArialMT-2e" transform="translate(55.615234 0)"/>
       <use xlink:href="#ArialMT-30" transform="translate(83.398438 0)"/>
      </g>
     </g>
    </g>
    <g id="ytick_2">
     <g id="line2d_2">
      <path d="M 47.25125 187.611702 
L 692.405 187.611702 
" clip-path="url(#p7efe69f95d)" style="fill: none; stroke: #30333e; stroke-width: 0.5; stroke-linecap: round"/>
     </g>
     <g id="text_9">
      <!-- 0.2 -->
      <g style="fill: #e0e0e0" transform="translate(22.46125 191.548499) scale(0.11 -0.11)">
       <use xlink:href="#ArialMT-30"/>
       <use xlink:href="#ArialMT-2e" transform="translate(55.615234 0)"/>
       <use xlink:href="#ArialMT-32" transform="translate(83.398438 0)"/>
      </g>
     </g>
    </g>
    <g id="ytick_3">
     <g id="line2d_3">
      <path d="M 47.25125 140.340278 
L 692.405 140.340278 
" clip-path="url(#p7efe69f95d)" style="fill: none; stroke: #30333e; stroke-width: 0.5; stroke-linecap: round"/>
     </g>
     <g id="text_10">
      <!-- 0.4 -->
      <g style="fill: #e0e0e0" transform="translate(22.46125 144.277075) scale(0.11 -0.11)">
       <use xlink:href="#ArialMT-30"/>
       <use xlink:href="#ArialMT-2e" transform="translate(55.615234 0)"/>
       <use xlink:href="#ArialMT-34" transform="translate(83.398438 0)"/>
      </g>
     </g>
    </g>
    <g id="ytick_4">
     <g id="line2d_4">
      <path d="M 47.25125 93.068855 
L 692.405 93.068855 
" clip-path="url(#p7efe69f95d)" style="fill: none; stroke: #30333e; stroke-width: 0.5; stroke-linecap: round"/>
     </g>
     <g id="text_11">
      <!-- 0.6 -->
      <g style="fill: #e0e0e0" transform="translate(22.46125 97.005652) scale(0.11 -0.11)">
       <use xlink:href="#ArialMT-30"/>
       <use xlink:href="#ArialMT-2e" transform="translate(55.615234 0)"/>
       <use xlink:href="#ArialMT-36" transform="translate(83.398438 0)"/>
      </g>
     </g>
    </g>
    <g id="ytick_5">
     <g id="line2d_5">
      <path d="M 47.25125 45.797432 
L 692.405 45.797432 
" clip-path="url(#p7efe69f95d)" style="fill: none; stroke: #30333e; stroke-width: 0.5; stroke-linecap: round"/>
     </g>
     <g id="text_12">
      <!-- 0.8 -->
      <g style="fill: #e0e0e0" transform="translate(22.46125 49.734229) scale(0.11 -0.11)">
       <use xlink:href="#ArialMT-30"/>
       <use xlink:href="#ArialMT-2e" transform="translate(55.615234 0)"/>
       <use xlink:href="#ArialMT-38" transform="translate(83.398438 0)"/>
      </g>
     </g>
    </g>
    <g id="text_13">
     <!-- Relative frequency -->
     <g style="fill: #e0e0e0" transform="translate(15.935625 178.099688) rotate(-90) scale(0.12 -0.12)">
      <defs>
       <path id="ArialMT-52" d="M 503 0 
L 503 4581 
L 2534 4581 
Q 3147 4581 3465 4457 
Q 3784 4334 3975 4021 
Q 4166 3709 4166 3331 
Q 4166 2844 3850 2509 
Q 3534 2175 2875 2084 
Q 3116 1969 3241 1856 
Q 3506 1613 3744 1247 
L 4541 0 
L 3778 0 
L 3172 953 
Q 2906 1366 2734 1584 
Q 2563 1803 2427 1890 
Q 2291 1978 2150 2013 
Q 2047 2034 1813 2034 
L 1109 2034 
L 1109 0 
L 503 0 
z
M 1109 2559 
L 2413 2559 
Q 2828 2559 3062 2645 
Q 3297 2731 3419 2920 
Q 3541 3109 3541 3331 
Q 3541 3656 3305 3865 
Q 3069 4075 2559 4075 
L 1109 4075 
L 1109 2559 
z
" transform="scale(0.015625)"/>
       <path id="ArialMT-66" d="M 556 0 
L 556 2881 
L 59 2881 
L 59 3319 
L 556 3319 
L 556 3672 
Q 556 4006 616 4169 
Q 697 4388 901 4523 
Q 1106 4659 1475 4659 
Q 1713 4659 2000 4603 
L 1916 4113 
Q 1741 4144 1584 4144 
Q 1328 4144 1222 4034 
Q 1116 3925 1116 3625 
L 1116 3319 
L 1763 3319 
L 1763 2881 
L 1116 2881 
L 1116 0 
L 556 0 
z
" transform="scale(0.015625)"/>
       <path id="ArialMT-71" d="M 2538 -1272 
L 2538 353 
Q 2406 169 2170 47 
Q 1934 -75 1669 -75 
Q 1078 -75 651 397 
Q 225 869 225 1691 
Q 225 2191 398 2587 
Q 572 2984 901 3189 
Q 1231 3394 1625 3394 
Q 2241 3394 2594 2875 
L 2594 3319 
L 3100 3319 
L 3100 -1272 
L 2538 -1272 
z
M 803 1669 
Q 803 1028 1072 708 
Q 1341 388 1716 388 
Q 2075 388 2334 692 
Q 2594 997 2594 1619 
Q 2594 2281 2320 2615 
Q 2047 2950 1678 2950 
Q 1313 2950 1058 2639 
Q 803 2328 803 1669 
z
" transform="scale(0.015625)"/>
      </defs>
      <use xlink:href="#ArialMT-52"/>
      <use xlink:href="#ArialMT-65" transform="translate(72.216797 0)"/>
      <use xlink:href="#ArialMT-6c" transform="translate(127.832031 0)"/>
      <use xlink:href="#ArialMT-61" transform="translate(150.048828 0)"/>
      <use xlink:href="#ArialMT-74" transform="translate(205.664062 0)"/>
      <use xlink:href="#ArialMT-69" transform="translate(233.447266 0)"/>
      <use xlink:href="#ArialMT-76" transform="translate(255.664062 0)"/>
      <use xlink:href="#ArialMT-65" transform="translate(305.664062 0)"/>
      <use xlink:href="#ArialMT-20" transform="translate(361.279297 0)"/>
      <use xlink:href="#ArialMT-66" transform="translate(389.0625 0)"/>
      <use xlink:href="#ArialMT-72" transform="translate(416.845703 0)"/>
      <use xlink:href="#ArialMT-65" transform="translate(450.146484 0)"/>
      <use xlink:href="#ArialMT-71" transform="translate(505.761719 0)"/>
      <use xlink:href="#ArialMT-75" transform="translate(561.376953 0)"/>
      <use xlink:href="#ArialMT-65" transform="translate(616.992188 0)"/>
      <use xlink:href="#ArialMT-6e" transform="translate(672.607422 0)"/>
      <use xlink:href="#ArialMT-63" transform="translate(728.222656 0)"/>
      <use xlink:href="#ArialMT-79" transform="translate(778.222656 0)"/>
     </g>
    </g>
   </g>
   <g id="patch_3">
    <path d="M 47.25125 234.883125 
L 53.702788 234.883125 
L 53.702788 234.883125 
L 47.25125 234.883125 
z
" clip-path="url(#p7efe69f95d)" style="fill: #ec407a; stroke: #121622; stroke-width: 0.5; stroke-linejoin: miter"/>
   </g>
   <g id="patch_4">
    <path d="M 53.702788 234.883125 
L 60.154325 234.883125 
L 60.154325 234.883125 
L 53.702788 234.883125 
z
" clip-path="url(#p7efe69f95d)" style="fill: #ec407a; stroke: #121622; stroke-width: 0.5; stroke-linejoin: miter"/>
   </g>
   <g id="patch_5">
    <path d="M 60.154325 234.883125 
L 66.605863 234.883125 
L 66.605863 234.883125 
L 60.154325 234.883125 
z
" clip-path="url(#p7efe69f95d)" style="fill: #ec407a; stroke: #121622; stroke-width: 0.5; stroke-linejoin: miter"/>
   </g>
   <g id="patch_6">
    <path d="M 66.605863 234.883125 
L 73.0574 234.883125 
L 73.0574 234.883125 
L 66.605863 234.883125 
z
" clip-path="url(#p7efe69f95d)" style="fill: #ec407a; stroke: #121622; stroke-width: 0.5; stroke-linejoin: miter"/>
   </g>
   <g id="patch_7">
    <path d="M 73.0574 234.883125 
L 79.508938 234.883125 
L 79.508938 234.883125 
L 73.0574 234.883125 
z
" clip-path="url(#p7efe69f95d)" style="fill: #ec407a; stroke: #121622; stroke-width: 0.5; stroke-linejoin: miter"/>
   </g>
   <g id="patch_8">
    <path d="M 79.508938 234.883125 
L 85.960475 234.883125 
L 85.960475 234.883125 
L 79.508938 234.883125 
z
" clip-path="url(#p7efe69f95d)" style="fill: #ec407a; stroke: #121622; stroke-width: 0.5; stroke-linejoin: miter"/>
   </g>
   <g id="patch_9">
    <path d="M 85.960475 234.883125 
L 92.412013 234.883125 
L 92.412013 234.883125 
L 85.960475 234.883125 
z
" clip-path="url(#p7efe69f95d)" style="fill: #ec407a; stroke: #121622; stroke-width: 0.5; stroke-linejoin: miter"/>
   </g>
   <g id="patch_10">
    <path d="M 92.412013 234.883125 
L 98.86355 234.883125 
L 98.86355 234.883125 
L 92.412013 234.883125 
z
" clip-path="url(#p7efe69f95d)" style="fill: #ec407a; stroke: #121622; stroke-width: 0.5; stroke-linejoin: miter"/>
   </g>
   <g id="patch_11">
    <path d="M 98.86355 234.883125 
L 105.315088 234.883125 
L 105.315088 234.883125 
L 98.86355 234.883125 
z
" clip-path="url(#p7efe69f95d)" style="fill: #ec407a; stroke: #121622; stroke-width: 0.5; stroke-linejoin: miter"/>
   </g>
   <g id="patch_12">
    <path d="M 105.315088 234.883125 
L 111.766625 234.883125 
L 111.766625 234.883125 
L 105.315088 234.883125 
z
" clip-path="url(#p7efe69f95d)" style="fill: #ec407a; stroke: #121622; stroke-width: 0.5; stroke-linejoin: miter"/>
   </g>
   <g id="patch_13">
    <path d="M 111.766625 234.883125 
L 118.218163 234.883125 
L 118.218163 234.883125 
L 111.766625 234.883125 
z
" clip-path="url(#p7efe69f95d)" style="fill: #ec407a; stroke: #121622; stroke-width: 0.5; stroke-linejoin: miter"/>
   </g>
   <g id="patch_14">
    <path d="M 118.218163 234.883125 
L 124.6697 234.883125 
L 124.6697 234.883125 
L 118.218163 234.883125 
z
" clip-path="url(#p7efe69f95d)" style="fill: #ec407a; stroke: #121622; stroke-width: 0.5; stroke-linejoin: miter"/>
   </g>
   <g id="patch_15">
    <path d="M 124.6697 234.883125 
L 131.121238 234.883125 
L 131.121238 234.883125 
L 124.6697 234.883125 
z
" clip-path="url(#p7efe69f95d)" style="fill: #ec407a; stroke: #121622; stroke-width: 0.5; stroke-linejoin: miter"/>
   </g>
   <g id="patch_16">
    <path d="M 131.121238 234.883125 
L 137.572775 234.883125 
L 137.572775 234.883125 
L 131.121238 234.883125 
z
" clip-path="url(#p7efe69f95d)" style="fill: #ec407a; stroke: #121622; stroke-width: 0.5; stroke-linejoin: miter"/>
   </g>
   <g id="patch_17">
    <path d="M 137.572775 234.883125 
L 144.024313 234.883125 
L 144.024313 234.883125 
L 137.572775 234.883125 
z
" clip-path="url(#p7efe69f95d)" style="fill: #ec407a; stroke: #121622; stroke-width: 0.5; stroke-linejoin: miter"/>
   </g>
   <g id="patch_18">
    <path d="M 144.024313 234.883125 
L 150.47585 234.883125 
L 150.47585 234.883125 
L 144.024313 234.883125 
z
" clip-path="url(#p7efe69f95d)" style="fill: #ec407a; stroke: #121622; stroke-width: 0.5; stroke-linejoin: miter"/>
   </g>
   <g id="patch_19">
    <path d="M 150.47585 234.883125 
L 156.927388 234.883125 
L 156.927388 234.883125 
L 150.47585 234.883125 
z
" clip-path="url(#p7efe69f95d)" style="fill: #ec407a; stroke: #121622; stroke-width: 0.5; stroke-linejoin: miter"/>
   </g>
   <g id="patch_20">
    <path d="M 156.927388 234.883125 
L 163.378925 234.883125 
L 163.378925 234.883125 
L 156.927388 234.883125 
z
" clip-path="url(#p7efe69f95d)" style="fill: #ec407a; stroke: #121622; stroke-width: 0.5; stroke-linejoin: miter"/>
   </g>
   <g id="patch_21">
    <path d="M 163.378925 234.883125 
L 169.830463 234.883125 
L 169.830463 234.883125 
L 163.378925 234.883125 
z
" clip-path="url(#p7efe69f95d)" style="fill: #ec407a; stroke: #121622; stroke-width: 0.5; stroke-linejoin: miter"/>
   </g>
   <g id="patch_22">
    <path d="M 169.830463 234.883125 
L 176.282 234.883125 
L 176.282 234.883125 
L 169.830463 234.883125 
z
" clip-path="url(#p7efe69f95d)" style="fill: #ec407a; stroke: #121622; stroke-width: 0.5; stroke-linejoin: miter"/>
   </g>
   <g id="patch_23">
    <path d="M 176.282 234.883125 
L 182.733537 234.883125 
L 182.733537 234.883125 
L 176.282 234.883125 
z
" clip-path="url(#p7efe69f95d)" style="fill: #ec407a; stroke: #121622; stroke-width: 0.5; stroke-linejoin: miter"/>
   </g>
   <g id="patch_24">
    <path d="M 182.733537 234.883125 
L 189.185075 234.883125 
L 189.185075 234.883125 
L 182.733537 234.883125 
z
" clip-path="url(#p7efe69f95d)" style="fill: #ec407a; stroke: #121622; stroke-width: 0.5; stroke-linejoin: miter"/>
   </g>
   <g id="patch_25">
    <path d="M 189.185075 234.883125 
L 195.636612 234.883125 
L 195.636612 234.883125 
L 189.185075 234.883125 
z
" clip-path="url(#p7efe69f95d)" style="fill: #ec407a; stroke: #121622; stroke-width: 0.5; stroke-linejoin: miter"/>
   </g>
   <g id="patch_26">
    <path d="M 195.636612 234.883125 
L 202.08815 234.883125 
L 202.08815 234.883125 
L 195.636612 234.883125 
z
" clip-path="url(#p7efe69f95d)" style="fill: #ec407a; stroke: #121622; stroke-width: 0.5; stroke-linejoin: miter"/>
   </g>
   <g id="patch_27">
    <path d="M 202.08815 234.883125 
L 208.539687 234.883125 
L 208.539687 234.883125 
L 202.08815 234.883125 
z
" clip-path="url(#p7efe69f95d)" style="fill: #ec407a; stroke: #121622; stroke-width: 0.5; stroke-linejoin: miter"/>
   </g>
   <g id="patch_28">
    <path d="M 208.539687 234.883125 
L 214.991225 234.883125 
L 214.991225 234.883125 
L 208.539687 234.883125 
z
" clip-path="url(#p7efe69f95d)" style="fill: #ec407a; stroke: #121622; stroke-width: 0.5; stroke-linejoin: miter"/>
   </g>
   <g id="patch_29">
    <path d="M 214.991225 234.883125 
L 221.442762 234.883125 
L 221.442762 234.883125 
L 214.991225 234.883125 
z
" clip-path="url(#p7efe69f95d)" style="fill: #ec407a; stroke: #121622; stroke-width: 0.5; stroke-linejoin: miter"/>
   </g>
   <g id="patch_30">
    <path d="M 221.442762 234.883125 
L 227.8943 234.883125 
L 227.8943 234.883125 
L 221.442762 234.883125 
z
" clip-path="url(#p7efe69f95d)" style="fill: #ec407a; stroke: #121622; stroke-width: 0.5; stroke-linejoin: miter"/>
   </g>
   <g id="patch_31">
    <path d="M 227.8943 234.883125 
L 234.345837 234.883125 
L 234.345837 234.883125 
L 227.8943 234.883125 
z
" clip-path="url(#p7efe69f95d)" style="fill: #ec407a; stroke: #121622; stroke-width: 0.5; stroke-linejoin: miter"/>
   </g>
   <g id="patch_32">
    <path d="M 234.345837 234.883125 
L 240.797375 234.883125 
L 240.797375 234.883125 
L 234.345837 234.883125 
z
" clip-path="url(#p7efe69f95d)" style="fill: #ec407a; stroke: #121622; stroke-width: 0.5; stroke-linejoin: miter"/>
   </g>
   <g id="patch_33">
    <path d="M 240.797375 234.883125 
L 247.248912 234.883125 
L 247.248912 234.883125 
L 240.797375 234.883125 
z
" clip-path="url(#p7efe69f95d)" style="fill: #ec407a; stroke: #121622; stroke-width: 0.5; stroke-linejoin: miter"/>
   </g>
   <g id="patch_34">
    <path d="M 247.248912 234.883125 
L 253.70045 234.883125 
L 253.70045 234.883125 
L 247.248912 234.883125 
z
" clip-path="url(#p7efe69f95d)" style="fill: #ec407a; stroke: #121622; stroke-width: 0.5; stroke-linejoin: miter"/>
   </g>
   <g id="patch_35">
    <path d="M 253.70045 234.883125 
L 260.151987 234.883125 
L 260.151987 234.883125 
L 253.70045 234.883125 
z
" clip-path="url(#p7efe69f95d)" style="fill: #ec407a; stroke: #121622; stroke-width: 0.5; stroke-linejoin: miter"/>
   </g>
   <g id="patch_36">
    <path d="M 260.151988 234.883125 
L 266.603525 234.883125 
L 266.603525 234.883125 
L 260.151988 234.883125 
z
" clip-path="url(#p7efe69f95d)" style="fill: #ec407a; stroke: #121622; stroke-width: 0.5; stroke-linejoin: miter"/>
   </g>
   <g id="patch_37">
    <path d="M 266.603525 234.883125 
L 273.055062 234.883125 
L 273.055062 234.883125 
L 266.603525 234.883125 
z
" clip-path="url(#p7efe69f95d)" style="fill: #ec407a; stroke: #121622; stroke-width: 0.5; stroke-linejoin: miter"/>
   </g>
   <g id="patch_38">
    <path d="M 273.055063 234.883125 
L 279.5066 234.883125 
L 279.5066 234.883125 
L 273.055063 234.883125 
z
" clip-path="url(#p7efe69f95d)" style="fill: #ec407a; stroke: #121622; stroke-width: 0.5; stroke-linejoin: miter"/>
   </g>
   <g id="patch_39">
    <path d="M 279.5066 234.883125 
L 285.958137 234.883125 
L 285.958137 234.883125 
L 279.5066 234.883125 
z
" clip-path="url(#p7efe69f95d)" style="fill: #ec407a; stroke: #121622; stroke-width: 0.5; stroke-linejoin: miter"/>
   </g>
   <g id="patch_40">
    <path d="M 285.958138 234.883125 
L 292.409675 234.883125 
L 292.409675 201.333151 
L 285.958138 201.333151 
z
" clip-path="url(#p7efe69f95d)" style="fill: #ec407a; stroke: #121622; stroke-width: 0.5; stroke-linejoin: miter"/>
   </g>
   <g id="patch_41">
    <path d="M 292.409675 234.883125 
L 298.861212 234.883125 
L 298.861212 234.883125 
L 292.409675 234.883125 
z
" clip-path="url(#p7efe69f95d)" style="fill: #ec407a; stroke: #121622; stroke-width: 0.5; stroke-linejoin: miter"/>
   </g>
   <g id="patch_42">
    <path d="M 298.861213 234.883125 
L 305.31275 234.883125 
L 305.31275 234.883125 
L 298.861213 234.883125 
z
" clip-path="url(#p7efe69f95d)" style="fill: #ec407a; stroke: #121622; stroke-width: 0.5; stroke-linejoin: miter"/>
   </g>
   <g id="patch_43">
    <path d="M 305.31275 234.883125 
L 311.764287 234.883125 
L 311.764287 234.883125 
L 305.31275 234.883125 
z
" clip-path="url(#p7efe69f95d)" style="fill: #ec407a; stroke: #121622; stroke-width: 0.5; stroke-linejoin: miter"/>
   </g>
   <g id="patch_44">
    <path d="M 311.764288 234.883125 
L 318.215825 234.883125 
L 318.215825 234.883125 
L 311.764288 234.883125 
z
" clip-path="url(#p7efe69f95d)" style="fill: #ec407a; stroke: #121622; stroke-width: 0.5; stroke-linejoin: miter"/>
   </g>
   <g id="patch_45">
    <path d="M 318.215825 234.883125 
L 324.667362 234.883125 
L 324.667362 234.883125 
L 318.215825 234.883125 
z
" clip-path="url(#p7efe69f95d)" style="fill: #ec407a; stroke: #121622; stroke-width: 0.5; stroke-linejoin: miter"/>
   </g>
   <g id="patch_46">
    <path d="M 324.667363 234.883125 
L 331.1189 234.883125 
L 331.1189 234.883125 
L 324.667363 234.883125 
z
" clip-path="url(#p7efe69f95d)" style="fill: #ec407a; stroke: #121622; stroke-width: 0.5; stroke-linejoin: miter"/>
   </g>
   <g id="patch_47">
    <path d="M 331.1189 234.883125 
L 337.570437 234.883125 
L 337.570437 234.883125 
L 331.1189 234.883125 
z
" clip-path="url(#p7efe69f95d)" style="fill: #ec407a; stroke: #121622; stroke-width: 0.5; stroke-linejoin: miter"/>
   </g>
   <g id="patch_48">
    <path d="M 337.570438 234.883125 
L 344.021975 234.883125 
L 344.021975 234.883125 
L 337.570438 234.883125 
z
" clip-path="url(#p7efe69f95d)" style="fill: #ec407a; stroke: #121622; stroke-width: 0.5; stroke-linejoin: miter"/>
   </g>
   <g id="patch_49">
    <path d="M 344.021975 234.883125 
L 350.473512 234.883125 
L 350.473512 234.883125 
L 344.021975 234.883125 
z
" clip-path="url(#p7efe69f95d)" style="fill: #ec407a; stroke: #121622; stroke-width: 0.5; stroke-linejoin: miter"/>
   </g>
   <g id="patch_50">
    <path d="M 350.473513 234.883125 
L 356.92505 234.883125 
L 356.92505 234.883125 
L 350.473513 234.883125 
z
" clip-path="url(#p7efe69f95d)" style="fill: #ec407a; stroke: #121622; stroke-width: 0.5; stroke-linejoin: miter"/>
   </g>
   <g id="patch_51">
    <path d="M 356.92505 234.883125 
L 363.376587 234.883125 
L 363.376587 234.883125 
L 356.92505 234.883125 
z
" clip-path="url(#p7efe69f95d)" style="fill: #ec407a; stroke: #121622; stroke-width: 0.5; stroke-linejoin: miter"/>
   </g>
   <g id="patch_52">
    <path d="M 363.376588 234.883125 
L 369.828125 234.883125 
L 369.828125 234.883125 
L 363.376588 234.883125 
z
" clip-path="url(#p7efe69f95d)" style="fill: #ec407a; stroke: #121622; stroke-width: 0.5; stroke-linejoin: miter"/>
   </g>
   <g id="patch_53">
    <path d="M 369.828125 234.883125 
L 376.279662 234.883125 
L 376.279662 234.883125 
L 369.828125 234.883125 
z
" clip-path="url(#p7efe69f95d)" style="fill: #ec407a; stroke: #121622; stroke-width: 0.5; stroke-linejoin: miter"/>
   </g>
   <g id="patch_54">
    <path d="M 376.279663 234.883125 
L 382.7312 234.883125 
L 382.7312 234.883125 
L 376.279663 234.883125 
z
" clip-path="url(#p7efe69f95d)" style="fill: #ec407a; stroke: #121622; stroke-width: 0.5; stroke-linejoin: miter"/>
   </g>
   <g id="patch_55">
    <path d="M 382.7312 234.883125 
L 389.182737 234.883125 
L 389.182737 234.883125 
L 382.7312 234.883125 
z
" clip-path="url(#p7efe69f95d)" style="fill: #ec407a; stroke: #121622; stroke-width: 0.5; stroke-linejoin: miter"/>
   </g>
   <g id="patch_56">
    <path d="M 389.182738 234.883125 
L 395.634275 234.883125 
L 395.634275 234.883125 
L 389.182738 234.883125 
z
" clip-path="url(#p7efe69f95d)" style="fill: #ec407a; stroke: #121622; stroke-width: 0.5; stroke-linejoin: miter"/>
   </g>
   <g id="patch_57">
    <path d="M 395.634275 234.883125 
L 402.085812 234.883125 
L 402.085812 234.883125 
L 395.634275 234.883125 
z
" clip-path="url(#p7efe69f95d)" style="fill: #ec407a; stroke: #121622; stroke-width: 0.5; stroke-linejoin: miter"/>
   </g>
   <g id="patch_58">
    <path d="M 402.085813 234.883125 
L 408.53735 234.883125 
L 408.53735 234.883125 
L 402.085813 234.883125 
z
" clip-path="url(#p7efe69f95d)" style="fill: #ec407a; stroke: #121622; stroke-width: 0.5; stroke-linejoin: miter"/>
   </g>
   <g id="patch_59">
    <path d="M 408.53735 234.883125 
L 414.988887 234.883125 
L 414.988887 234.883125 
L 408.53735 234.883125 
z
" clip-path="url(#p7efe69f95d)" style="fill: #ec407a; stroke: #121622; stroke-width: 0.5; stroke-linejoin: miter"/>
   </g>
   <g id="patch_60">
    <path d="M 414.988888 234.883125 
L 421.440425 234.883125 
L 421.440425 234.883125 
L 414.988888 234.883125 
z
" clip-path="url(#p7efe69f95d)" style="fill: #ec407a; stroke: #121622; stroke-width: 0.5; stroke-linejoin: miter"/>
   </g>
   <g id="patch_61">
    <path d="M 421.440425 234.883125 
L 427.891962 234.883125 
L 427.891962 234.883125 
L 421.440425 234.883125 
z
" clip-path="url(#p7efe69f95d)" style="fill: #ec407a; stroke: #121622; stroke-width: 0.5; stroke-linejoin: miter"/>
   </g>
   <g id="patch_62">
    <path d="M 427.891963 234.883125 
L 434.3435 234.883125 
L 434.3435 234.883125 
L 427.891963 234.883125 
z
" clip-path="url(#p7efe69f95d)" style="fill: #ec407a; stroke: #121622; stroke-width: 0.5; stroke-linejoin: miter"/>
   </g>
   <g id="patch_63">
    <path d="M 434.3435 234.883125 
L 440.795037 234.883125 
L 440.795037 234.883125 
L 434.3435 234.883125 
z
" clip-path="url(#p7efe69f95d)" style="fill: #ec407a; stroke: #121622; stroke-width: 0.5; stroke-linejoin: miter"/>
   </g>
   <g id="patch_64">
    <path d="M 440.795038 234.883125 
L 447.246575 234.883125 
L 447.246575 234.883125 
L 440.795038 234.883125 
z
" clip-path="url(#p7efe69f95d)" style="fill: #ec407a; stroke: #121622; stroke-width: 0.5; stroke-linejoin: miter"/>
   </g>
   <g id="patch_65">
    <path d="M 447.246575 234.883125 
L 453.698112 234.883125 
L 453.698112 234.883125 
L 447.246575 234.883125 
z
" clip-path="url(#p7efe69f95d)" style="fill: #ec407a; stroke: #121622; stroke-width: 0.5; stroke-linejoin: miter"/>
   </g>
   <g id="patch_66">
    <path d="M 453.698113 234.883125 
L 460.14965 234.883125 
L 460.14965 234.883125 
L 453.698113 234.883125 
z
" clip-path="url(#p7efe69f95d)" style="fill: #ec407a; stroke: #121622; stroke-width: 0.5; stroke-linejoin: miter"/>
   </g>
   <g id="patch_67">
    <path d="M 460.14965 234.883125 
L 466.601187 234.883125 
L 466.601187 234.883125 
L 460.14965 234.883125 
z
" clip-path="url(#p7efe69f95d)" style="fill: #ec407a; stroke: #121622; stroke-width: 0.5; stroke-linejoin: miter"/>
   </g>
   <g id="patch_68">
    <path d="M 466.601187 234.883125 
L 473.052725 234.883125 
L 473.052725 234.883125 
L 466.601187 234.883125 
z
" clip-path="url(#p7efe69f95d)" style="fill: #ec407a; stroke: #121622; stroke-width: 0.5; stroke-linejoin: miter"/>
   </g>
   <g id="patch_69">
    <path d="M 473.052725 234.883125 
L 479.504262 234.883125 
L 479.504262 234.883125 
L 473.052725 234.883125 
z
" clip-path="url(#p7efe69f95d)" style="fill: #ec407a; stroke: #121622; stroke-width: 0.5; stroke-linejoin: miter"/>
   </g>
   <g id="patch_70">
    <path d="M 479.504262 234.883125 
L 485.9558 234.883125 
L 485.9558 234.883125 
L 479.504262 234.883125 
z
" clip-path="url(#p7efe69f95d)" style="fill: #ec407a; stroke: #121622; stroke-width: 0.5; stroke-linejoin: miter"/>
   </g>
   <g id="patch_71">
    <path d="M 485.9558 234.883125 
L 492.407337 234.883125 
L 492.407337 234.883125 
L 485.9558 234.883125 
z
" clip-path="url(#p7efe69f95d)" style="fill: #ec407a; stroke: #121622; stroke-width: 0.5; stroke-linejoin: miter"/>
   </g>
   <g id="patch_72">
    <path d="M 492.407337 234.883125 
L 498.858875 234.883125 
L 498.858875 234.883125 
L 492.407337 234.883125 
z
" clip-path="url(#p7efe69f95d)" style="fill: #ec407a; stroke: #121622; stroke-width: 0.5; stroke-linejoin: miter"/>
   </g>
   <g id="patch_73">
    <path d="M 498.858875 234.883125 
L 505.310412 234.883125 
L 505.310412 234.883125 
L 498.858875 234.883125 
z
" clip-path="url(#p7efe69f95d)" style="fill: #ec407a; stroke: #121622; stroke-width: 0.5; stroke-linejoin: miter"/>
   </g>
   <g id="patch_74">
    <path d="M 505.310412 234.883125 
L 511.76195 234.883125 
L 511.76195 234.883125 
L 505.310412 234.883125 
z
" clip-path="url(#p7efe69f95d)" style="fill: #ec407a; stroke: #121622; stroke-width: 0.5; stroke-linejoin: miter"/>
   </g>
   <g id="patch_75">
    <path d="M 511.76195 234.883125 
L 518.213488 234.883125 
L 518.213488 234.883125 
L 511.76195 234.883125 
z
" clip-path="url(#p7efe69f95d)" style="fill: #ec407a; stroke: #121622; stroke-width: 0.5; stroke-linejoin: miter"/>
   </g>
   <g id="patch_76">
    <path d="M 518.213487 234.883125 
L 524.665025 234.883125 
L 524.665025 234.883125 
L 518.213487 234.883125 
z
" clip-path="url(#p7efe69f95d)" style="fill: #ec407a; stroke: #121622; stroke-width: 0.5; stroke-linejoin: miter"/>
   </g>
   <g id="patch_77">
    <path d="M 524.665025 234.883125 
L 531.116562 234.883125 
L 531.116562 32.075982 
L 524.665025 32.075982 
z
" clip-path="url(#p7efe69f95d)" style="fill: #ec407a; stroke: #121622; stroke-width: 0.5; stroke-linejoin: miter"/>
   </g>
   <g id="patch_78">
    <path d="M 531.116562 234.883125 
L 537.5681 234.883125 
L 537.5681 234.883125 
L 531.116562 234.883125 
z
" clip-path="url(#p7efe69f95d)" style="fill: #ec407a; stroke: #121622; stroke-width: 0.5; stroke-linejoin: miter"/>
   </g>
   <g id="patch_79">
    <path d="M 537.5681 234.883125 
L 544.019637 234.883125 
L 544.019637 234.883125 
L 537.5681 234.883125 
z
" clip-path="url(#p7efe69f95d)" style="fill: #ec407a; stroke: #121622; stroke-width: 0.5; stroke-linejoin: miter"/>
   </g>
   <g id="patch_80">
    <path d="M 544.019637 234.883125 
L 550.471175 234.883125 
L 550.471175 234.883125 
L 544.019637 234.883125 
z
" clip-path="url(#p7efe69f95d)" style="fill: #ec407a; stroke: #121622; stroke-width: 0.5; stroke-linejoin: miter"/>
   </g>
   <g id="patch_81">
    <path d="M 550.471175 234.883125 
L 556.922712 234.883125 
L 556.922712 234.883125 
L 550.471175 234.883125 
z
" clip-path="url(#p7efe69f95d)" style="fill: #ec407a; stroke: #121622; stroke-width: 0.5; stroke-linejoin: miter"/>
   </g>
   <g id="patch_82">
    <path d="M 556.922712 234.883125 
L 563.37425 234.883125 
L 563.37425 234.883125 
L 556.922712 234.883125 
z
" clip-path="url(#p7efe69f95d)" style="fill: #ec407a; stroke: #121622; stroke-width: 0.5; stroke-linejoin: miter"/>
   </g>
   <g id="patch_83">
    <path d="M 563.37425 234.883125 
L 569.825787 234.883125 
L 569.825787 234.883125 
L 563.37425 234.883125 
z
" clip-path="url(#p7efe69f95d)" style="fill: #ec407a; stroke: #121622; stroke-width: 0.5; stroke-linejoin: miter"/>
   </g>
   <g id="patch_84">
    <path d="M 569.825788 234.883125 
L 576.277325 234.883125 
L 576.277325 234.883125 
L 569.825788 234.883125 
z
" clip-path="url(#p7efe69f95d)" style="fill: #ec407a; stroke: #121622; stroke-width: 0.5; stroke-linejoin: miter"/>
   </g>
   <g id="patch_85">
    <path d="M 576.277325 234.883125 
L 582.728862 234.883125 
L 582.728862 234.883125 
L 576.277325 234.883125 
z
" clip-path="url(#p7efe69f95d)" style="fill: #ec407a; stroke: #121622; stroke-width: 0.5; stroke-linejoin: miter"/>
   </g>
   <g id="patch_86">
    <path d="M 582.728862 234.883125 
L 589.1804 234.883125 
L 589.1804 234.883125 
L 582.728862 234.883125 
z
" clip-path="url(#p7efe69f95d)" style="fill: #ec407a; stroke: #121622; stroke-width: 0.5; stroke-linejoin: miter"/>
   </g>
   <g id="patch_87">
    <path d="M 589.1804 234.883125 
L 595.631937 234.883125 
L 595.631937 234.883125 
L 589.1804 234.883125 
z
" clip-path="url(#p7efe69f95d)" style="fill: #ec407a; stroke: #121622; stroke-width: 0.5; stroke-linejoin: miter"/>
   </g>
   <g id="patch_88">
    <path d="M 595.631938 234.883125 
L 602.083475 234.883125 
L 602.083475 234.883125 
L 595.631938 234.883125 
z
" clip-path="url(#p7efe69f95d)" style="fill: #ec407a; stroke: #121622; stroke-width: 0.5; stroke-linejoin: miter"/>
   </g>
   <g id="patch_89">
    <path d="M 602.083475 234.883125 
L 608.535012 234.883125 
L 608.535012 234.883125 
L 602.083475 234.883125 
z
" clip-path="url(#p7efe69f95d)" style="fill: #ec407a; stroke: #121622; stroke-width: 0.5; stroke-linejoin: miter"/>
   </g>
   <g id="patch_90">
    <path d="M 608.535012 234.883125 
L 614.98655 234.883125 
L 614.98655 234.883125 
L 608.535012 234.883125 
z
" clip-path="url(#p7efe69f95d)" style="fill: #ec407a; stroke: #121622; stroke-width: 0.5; stroke-linejoin: miter"/>
   </g>
   <g id="patch_91">
    <path d="M 614.98655 234.883125 
L 621.438087 234.883125 
L 621.438087 234.883125 
L 614.98655 234.883125 
z
" clip-path="url(#p7efe69f95d)" style="fill: #ec407a; stroke: #121622; stroke-width: 0.5; stroke-linejoin: miter"/>
   </g>
   <g id="patch_92">
    <path d="M 621.438088 234.883125 
L 627.889625 234.883125 
L 627.889625 234.883125 
L 621.438088 234.883125 
z
" clip-path="url(#p7efe69f95d)" style="fill: #ec407a; stroke: #121622; stroke-width: 0.5; stroke-linejoin: miter"/>
   </g>
   <g id="patch_93">
    <path d="M 627.889625 234.883125 
L 634.341162 234.883125 
L 634.341162 234.883125 
L 627.889625 234.883125 
z
" clip-path="url(#p7efe69f95d)" style="fill: #ec407a; stroke: #121622; stroke-width: 0.5; stroke-linejoin: miter"/>
   </g>
   <g id="patch_94">
    <path d="M 634.341162 234.883125 
L 640.7927 234.883125 
L 640.7927 234.883125 
L 634.341162 234.883125 
z
" clip-path="url(#p7efe69f95d)" style="fill: #ec407a; stroke: #121622; stroke-width: 0.5; stroke-linejoin: miter"/>
   </g>
   <g id="patch_95">
    <path d="M 640.7927 234.883125 
L 647.244237 234.883125 
L 647.244237 234.883125 
L 640.7927 234.883125 
z
" clip-path="url(#p7efe69f95d)" style="fill: #ec407a; stroke: #121622; stroke-width: 0.5; stroke-linejoin: miter"/>
   </g>
   <g id="patch_96">
    <path d="M 647.244238 234.883125 
L 653.695775 234.883125 
L 653.695775 234.883125 
L 647.244238 234.883125 
z
" clip-path="url(#p7efe69f95d)" style="fill: #ec407a; stroke: #121622; stroke-width: 0.5; stroke-linejoin: miter"/>
   </g>
   <g id="patch_97">
    <path d="M 653.695775 234.883125 
L 660.147312 234.883125 
L 660.147312 234.883125 
L 653.695775 234.883125 
z
" clip-path="url(#p7efe69f95d)" style="fill: #ec407a; stroke: #121622; stroke-width: 0.5; stroke-linejoin: miter"/>
   </g>
   <g id="patch_98">
    <path d="M 660.147312 234.883125 
L 666.59885 234.883125 
L 666.59885 234.883125 
L 660.147312 234.883125 
z
" clip-path="url(#p7efe69f95d)" style="fill: #ec407a; stroke: #121622; stroke-width: 0.5; stroke-linejoin: miter"/>
   </g>
   <g id="patch_99">
    <path d="M 666.59885 234.883125 
L 673.050387 234.883125 
L 673.050387 234.883125 
L 666.59885 234.883125 
z
" clip-path="url(#p7efe69f95d)" style="fill: #ec407a; stroke: #121622; stroke-width: 0.5; stroke-linejoin: miter"/>
   </g>
   <g id="patch_100">
    <path d="M 673.050387 234.883125 
L 679.501925 234.883125 
L 679.501925 234.883125 
L 673.050387 234.883125 
z
" clip-path="url(#p7efe69f95d)" style="fill: #ec407a; stroke: #121622; stroke-width: 0.5; stroke-linejoin: miter"/>
   </g>
   <g id="patch_101">
    <path d="M 679.501925 234.883125 
L 685.953463 234.883125 
L 685.953463 234.883125 
L 679.501925 234.883125 
z
" clip-path="url(#p7efe69f95d)" style="fill: #ec407a; stroke: #121622; stroke-width: 0.5; stroke-linejoin: miter"/>
   </g>
   <g id="patch_102">
    <path d="M 685.953463 234.883125 
L 692.405 234.883125 
L 692.405 234.883125 
L 685.953463 234.883125 
z
" clip-path="url(#p7efe69f95d)" style="fill: #ec407a; stroke: #121622; stroke-width: 0.5; stroke-linejoin: miter"/>
   </g>
   <g id="patch_103">
    <path d="M 47.25125 234.883125 
L 47.25125 21.935625 
" style="fill: none; stroke: #30333e; stroke-width: 1.25; stroke-linejoin: miter; stroke-linecap: square"/>
   </g>
   <g id="patch_104">
    <path d="M 47.25125 234.883125 
L 692.405 234.883125 
" style="fill: none; stroke: #30333e; stroke-width: 1.25; stroke-linejoin: miter; stroke-linecap: square"/>
   </g>
   <g id="text_14">
    <!-- rdtscp step distribution (4-unrolled, 3 deltas per iter) -->
    <g style="fill: #e0e0e0" transform="translate(232.773125 15.935625) scale(0.12 -0.12)">
     <defs>
      <path id="ArialMT-28" d="M 1497 -1347 
Q 1031 -759 709 28 
Q 388 816 388 1659 
Q 388 2403 628 3084 
Q 909 3875 1497 4659 
L 1900 4659 
Q 1522 4009 1400 3731 
Q 1209 3300 1100 2831 
Q 966 2247 966 1656 
Q 966 153 1900 -1347 
L 1497 -1347 
z
" transform="scale(0.015625)"/>
      <path id="ArialMT-2d" d="M 203 1375 
L 203 1941 
L 1931 1941 
L 1931 1375 
L 203 1375 
z
" transform="scale(0.015625)"/>
      <path id="ArialMT-2c" d="M 569 0 
L 569 641 
L 1209 641 
L 1209 0 
Q 1209 -353 1084 -570 
Q 959 -788 688 -906 
L 531 -666 
Q 709 -588 793 -436 
Q 878 -284 888 0 
L 569 0 
z
" transform="scale(0.015625)"/>
      <path id="ArialMT-33" d="M 269 1209 
L 831 1284 
Q 928 806 1161 595 
Q 1394 384 1728 384 
Q 2125 384 2398 659 
Q 2672 934 2672 1341 
Q 2672 1728 2419 1979 
Q 2166 2231 1775 2231 
Q 1616 2231 1378 2169 
L 1441 2663 
Q 1497 2656 1531 2656 
Q 1891 2656 2178 2843 
Q 2466 3031 2466 3422 
Q 2466 3731 2256 3934 
Q 2047 4138 1716 4138 
Q 1388 4138 1169 3931 
Q 950 3725 888 3313 
L 325 3413 
Q 428 3978 793 4289 
Q 1159 4600 1703 4600 
Q 2078 4600 2393 4439 
Q 2709 4278 2876 4000 
Q 3044 3722 3044 3409 
Q 3044 3113 2884 2869 
Q 2725 2625 2413 2481 
Q 2819 2388 3044 2092 
Q 3269 1797 3269 1353 
Q 3269 753 2831 336 
Q 2394 -81 1725 -81 
Q 1122 -81 723 278 
Q 325 638 269 1209 
z
" transform="scale(0.015625)"/>
      <path id="ArialMT-29" d="M 791 -1347 
L 388 -1347 
Q 1322 153 1322 1656 
Q 1322 2244 1188 2822 
Q 1081 3291 891 3722 
Q 769 4003 388 4659 
L 791 4659 
Q 1378 3875 1659 3084 
Q 1900 2403 1900 1659 
Q 1900 816 1576 28 
Q 1253 -759 791 -1347 
z
" transform="scale(0.015625)"/>
     </defs>
     <use xlink:href="#ArialMT-72"/>
     <use xlink:href="#ArialMT-64" transform="translate(33.300781 0)"/>
     <use xlink:href="#ArialMT-74" transform="translate(88.916016 0)"/>
     <use xlink:href="#ArialMT-73" transform="translate(116.699219 0)"/>
     <use xlink:href="#ArialMT-63" transform="translate(166.699219 0)"/>
     <use xlink:href="#ArialMT-70" transform="translate(216.699219 0)"/>
     <use xlink:href="#ArialMT-20" transform="translate(272.314453 0)"/>
     <use xlink:href="#ArialMT-73" transform="translate(300.097656 0)"/>
     <use xlink:href="#ArialMT-74" transform="translate(350.097656 0)"/>
     <use xlink:href="#ArialMT-65" transform="translate(377.880859 0)"/>
     <use xlink:href="#ArialMT-70" transform="translate(433.496094 0)"/>
     <use xlink:href="#ArialMT-20" transform="translate(489.111328 0)"/>
     <use xlink:href="#ArialMT-64" transform="translate(516.894531 0)"/>
     <use xlink:href="#ArialMT-69" transform="translate(572.509766 0)"/>
     <use xlink:href="#ArialMT-73" transform="translate(594.726562 0)"/>
     <use xlink:href="#ArialMT-74" transform="translate(644.726562 0)"/>
     <use xlink:href="#ArialMT-72" transform="translate(672.509766 0)"/>
     <use xlink:href="#ArialMT-69" transform="translate(705.810547 0)"/>
     <use xlink:href="#ArialMT-62" transform="translate(728.027344 0)"/>
     <use xlink:href="#ArialMT-75" transform="translate(783.642578 0)"/>
     <use xlink:href="#ArialMT-74" transform="translate(839.257812 0)"/>
     <use xlink:href="#ArialMT-69" transform="translate(867.041016 0)"/>
     <use xlink:href="#ArialMT-6f" transform="translate(889.257812 0)"/>
     <use xlink:href="#ArialMT-6e" transform="translate(944.873047 0)"/>
     <use xlink:href="#ArialMT-20" transform="translate(1000.488281 0)"/>
     <use xlink:href="#ArialMT-28" transform="translate(1028.271484 0)"/>
     <use xlink:href="#ArialMT-34" transform="translate(1061.572266 0)"/>
     <use xlink:href="#ArialMT-2d" transform="translate(1117.1875 0)"/>
     <use xlink:href="#ArialMT-75" transform="translate(1150.488281 0)"/>
     <use xlink:href="#ArialMT-6e" transform="translate(1206.103516 0)"/>
     <use xlink:href="#ArialMT-72" transform="translate(1261.71875 0)"/>
     <use xlink:href="#ArialMT-6f" transform="translate(1295.019531 0)"/>
     <use xlink:href="#ArialMT-6c" transform="translate(1350.634766 0)"/>
     <use xlink:href="#ArialMT-6c" transform="translate(1372.851562 0)"/>
     <use xlink:href="#ArialMT-65" transform="translate(1395.068359 0)"/>
     <use xlink:href="#ArialMT-64" transform="translate(1450.683594 0)"/>
     <use xlink:href="#ArialMT-2c" transform="translate(1506.298828 0)"/>
     <use xlink:href="#ArialMT-20" transform="translate(1534.082031 0)"/>
     <use xlink:href="#ArialMT-33" transform="translate(1561.865234 0)"/>
     <use xlink:href="#ArialMT-20" transform="translate(1617.480469 0)"/>
     <use xlink:href="#ArialMT-64" transform="translate(1645.263672 0)"/>
     <use xlink:href="#ArialMT-65" transform="translate(1700.878906 0)"/>
     <use xlink:href="#ArialMT-6c" transform="translate(1756.494141 0)"/>
     <use xlink:href="#ArialMT-74" transform="translate(1778.710938 0)"/>
     <use xlink:href="#ArialMT-61" transform="translate(1806.494141 0)"/>
     <use xlink:href="#ArialMT-73" transform="translate(1862.109375 0)"/>
     <use xlink:href="#ArialMT-20" transform="translate(1912.109375 0)"/>
     <use xlink:href="#ArialMT-70" transform="translate(1939.892578 0)"/>
     <use xlink:href="#ArialMT-65" transform="translate(1995.507812 0)"/>
     <use xlink:href="#ArialMT-72" transform="translate(2051.123047 0)"/>
     <use xlink:href="#ArialMT-20" transform="translate(2084.423828 0)"/>
     <use xlink:href="#ArialMT-69" transform="translate(2112.207031 0)"/>
     <use xlink:href="#ArialMT-74" transform="translate(2134.423828 0)"/>
     <use xlink:href="#ArialMT-65" transform="translate(2162.207031 0)"/>
     <use xlink:href="#ArialMT-72" transform="translate(2217.822266 0)"/>
     <use xlink:href="#ArialMT-29" transform="translate(2251.123047 0)"/>
    </g>
   </g>
  </g>
 </g>
 <defs>
  <clipPath id="p7efe69f95d">
   <rect x="47.25125" y="21.935625" width="645.15375" height="212.9475"/>
  </clipPath>
 </defs>
</svg>
